<svg width="400" height="700" viewBox="0 0 400 700" fill="none" xmlns="http://www.w3.org/2000/svg">
<path d="M400 0H0V700H400V0Z" fill="#1B0B26"/>
<path d="M400 0H0V50H400V0Z" fill="#222222"/>
<path d="M400 0H0V50H400V0Z" fill="#1E1A21"/>
<path d="M280 8C280 3.58172 283.582 0 288 0H392C396.418 0 400 3.58172 400 8V42C400 46.4183 396.418 50 392 50H288C283.582 50 280 46.4183 280 42V8Z" fill="#2D2828"/>
<path d="M280 8C280 3.58172 283.582 0 288 0H392C396.418 0 400 3.58172 400 8V42C400 46.4183 396.418 50 392 50H288C283.582 50 280 46.4183 280 42V8Z" fill="#2D2828"/>
<path d="M316.227 25.1818C316.227 26.4091 316.006 27.4697 315.562 28.3636C315.119 29.2576 314.511 29.947 313.739 30.4318C312.966 30.9167 312.083 31.1591 311.091 31.1591C310.098 31.1591 309.216 30.9167 308.443 30.4318C307.67 29.947 307.063 29.2576 306.619 28.3636C306.176 27.4697 305.955 26.4091 305.955 25.1818C305.955 23.9545 306.176 22.8939 306.619 22C307.063 21.1061 307.67 20.4167 308.443 19.9318C309.216 19.447 310.098 19.2045 311.091 19.2045C312.083 19.2045 312.966 19.447 313.739 19.9318C314.511 20.4167 315.119 21.1061 315.562 22C316.006 22.8939 316.227 23.9545 316.227 25.1818ZM314.864 25.1818C314.864 24.1742 314.695 23.3239 314.358 22.6307C314.025 21.9375 313.572 21.4129 313 21.0568C312.432 20.7008 311.795 20.5227 311.091 20.5227C310.386 20.5227 309.748 20.7008 309.176 21.0568C308.608 21.4129 308.155 21.9375 307.818 22.6307C307.485 23.3239 307.318 24.1742 307.318 25.1818C307.318 26.1894 307.485 27.0398 307.818 27.733C308.155 28.4261 308.608 28.9508 309.176 29.3068C309.748 29.6629 310.386 29.8409 311.091 29.8409C311.795 29.8409 312.432 29.6629 313 29.3068C313.572 28.9508 314.025 28.4261 314.358 27.733C314.695 27.0398 314.864 26.1894 314.864 25.1818ZM319.756 19.3636V31H318.415V19.3636H319.756ZM324.78 31.2045C324.227 31.2045 323.725 31.1004 323.274 30.892C322.823 30.6799 322.465 30.375 322.2 29.9773C321.935 29.5758 321.803 29.0909 321.803 28.5227C321.803 28.0227 321.901 27.6174 322.098 27.3068C322.295 26.9924 322.558 26.7462 322.888 26.5682C323.217 26.3902 323.581 26.2576 323.979 26.1705C324.38 26.0795 324.784 26.0076 325.189 25.9545C325.719 25.8864 326.149 25.8352 326.479 25.8011C326.812 25.7633 327.054 25.7008 327.206 25.6136C327.361 25.5265 327.439 25.375 327.439 25.1591V25.1136C327.439 24.553 327.286 24.1174 326.979 23.8068C326.676 23.4962 326.215 23.3409 325.598 23.3409C324.958 23.3409 324.456 23.4811 324.092 23.7614C323.729 24.0417 323.473 24.3409 323.325 24.6591L322.053 24.2045C322.28 23.6742 322.583 23.2614 322.962 22.9659C323.344 22.6667 323.761 22.4583 324.212 22.3409C324.666 22.2197 325.113 22.1591 325.553 22.1591C325.833 22.1591 326.155 22.1932 326.518 22.2614C326.886 22.3258 327.24 22.4602 327.581 22.6648C327.926 22.8693 328.212 23.178 328.439 23.5909C328.666 24.0038 328.78 24.5568 328.78 25.25V31H327.439V29.8182H327.371C327.28 30.0076 327.128 30.2102 326.916 30.4261C326.704 30.642 326.422 30.8258 326.07 30.9773C325.717 31.1288 325.287 31.2045 324.78 31.2045ZM324.984 30C325.515 30 325.962 29.8958 326.325 29.6875C326.693 29.4792 326.969 29.2102 327.155 28.8807C327.344 28.5511 327.439 28.2045 327.439 27.8409V26.6136C327.382 26.6818 327.257 26.7443 327.064 26.8011C326.875 26.8542 326.655 26.9015 326.405 26.9432C326.159 26.9811 325.918 27.0152 325.683 27.0455C325.452 27.072 325.265 27.0947 325.121 27.1136C324.772 27.1591 324.446 27.233 324.143 27.3352C323.844 27.4337 323.602 27.5833 323.416 27.7841C323.234 27.9811 323.143 28.25 323.143 28.5909C323.143 29.0568 323.316 29.4091 323.661 29.6477C324.009 29.8826 324.45 30 324.984 30ZM325.03 21.0909L326.416 18.4545H327.984L326.212 21.0909H325.03ZM333.227 29.4091L333.136 30.0227C333.072 30.4545 332.973 30.9167 332.841 31.4091C332.712 31.9015 332.578 32.3655 332.438 32.8011C332.297 33.2367 332.182 33.5833 332.091 33.8409H331.068C331.117 33.5985 331.182 33.2784 331.261 32.8807C331.341 32.483 331.42 32.0379 331.5 31.5455C331.583 31.0568 331.652 30.5568 331.705 30.0455L331.773 29.4091H333.227ZM340.871 19.3636L344.325 29.1591H344.462L347.916 19.3636H349.393L345.121 31H343.666L339.393 19.3636H340.871ZM351.024 31V22.2727H352.365V31H351.024ZM351.706 20.8182C351.445 20.8182 351.219 20.7292 351.03 20.5511C350.844 20.3731 350.751 20.1591 350.751 19.9091C350.751 19.6591 350.844 19.4451 351.03 19.267C351.219 19.089 351.445 19 351.706 19C351.967 19 352.191 19.089 352.376 19.267C352.566 19.4451 352.661 19.6591 352.661 19.9091C352.661 20.1591 352.566 20.3731 352.376 20.5511C352.191 20.7292 351.967 20.8182 351.706 20.8182ZM358.616 22.2727V23.4091H354.094V22.2727H358.616ZM355.412 20.1818H356.753V28.5C356.753 28.8788 356.808 29.1629 356.918 29.3523C357.031 29.5379 357.175 29.6629 357.349 29.7273C357.527 29.7879 357.715 29.8182 357.912 29.8182C358.06 29.8182 358.181 29.8106 358.276 29.7955C358.37 29.7765 358.446 29.7614 358.503 29.75L358.776 30.9545C358.685 30.9886 358.558 31.0227 358.395 31.0568C358.232 31.0947 358.026 31.1136 357.776 31.1136C357.397 31.1136 357.026 31.0322 356.662 30.8693C356.302 30.7064 356.003 30.4583 355.764 30.125C355.529 29.7917 355.412 29.3712 355.412 28.8636V20.1818ZM364.085 31.1818C363.297 31.1818 362.606 30.9943 362.011 30.6193C361.42 30.2443 360.958 29.7197 360.625 29.0455C360.295 28.3712 360.131 27.5833 360.131 26.6818C360.131 25.7727 360.295 24.9792 360.625 24.3011C360.958 23.6231 361.42 23.0966 362.011 22.7216C362.606 22.3466 363.297 22.1591 364.085 22.1591C364.873 22.1591 365.563 22.3466 366.153 22.7216C366.748 23.0966 367.21 23.6231 367.54 24.3011C367.873 24.9792 368.04 25.7727 368.04 26.6818C368.04 27.5833 367.873 28.3712 367.54 29.0455C367.21 29.7197 366.748 30.2443 366.153 30.6193C365.563 30.9943 364.873 31.1818 364.085 31.1818ZM364.085 29.9773C364.684 29.9773 365.176 29.8239 365.562 29.517C365.949 29.2102 366.235 28.8068 366.42 28.3068C366.606 27.8068 366.699 27.2652 366.699 26.6818C366.699 26.0985 366.606 25.5549 366.42 25.0511C366.235 24.5473 365.949 24.1402 365.562 23.8295C365.176 23.5189 364.684 23.3636 364.085 23.3636C363.487 23.3636 362.994 23.5189 362.608 23.8295C362.222 24.1402 361.936 24.5473 361.75 25.0511C361.564 25.5549 361.472 26.0985 361.472 26.6818C361.472 27.2652 361.564 27.8068 361.75 28.3068C361.936 28.8068 362.222 29.2102 362.608 29.517C362.994 29.8239 363.487 29.9773 364.085 29.9773ZM370.087 31V22.2727H371.382V23.5909H371.473C371.632 23.1591 371.92 22.8087 372.337 22.5398C372.753 22.2708 373.223 22.1364 373.746 22.1364C373.844 22.1364 373.967 22.1383 374.115 22.142C374.263 22.1458 374.375 22.1515 374.45 22.1591V23.5227C374.405 23.5114 374.301 23.4943 374.138 23.4716C373.979 23.4451 373.81 23.4318 373.632 23.4318C373.208 23.4318 372.829 23.5208 372.496 23.6989C372.166 23.8731 371.905 24.1155 371.712 24.4261C371.522 24.733 371.428 25.0833 371.428 25.4773V31H370.087Z" fill="white"/>
<path d="M16.4091 29V17.3636H23.3864V18.6136H17.8182V22.5455H22.8636V23.7955H17.8182V29H16.4091ZM25.6179 29V20.2727H26.9588V29H25.6179ZM26.2997 18.8182C26.0384 18.8182 25.813 18.7292 25.6236 18.5511C25.438 18.3731 25.3452 18.1591 25.3452 17.9091C25.3452 17.6591 25.438 17.4451 25.6236 17.267C25.813 17.089 26.0384 17 26.2997 17C26.5611 17 26.7846 17.089 26.9702 17.267C27.1596 17.4451 27.2543 17.6591 27.2543 17.9091C27.2543 18.1591 27.1596 18.3731 26.9702 18.5511C26.7846 18.7292 26.5611 18.8182 26.2997 18.8182ZM30.7557 17.3636V29H29.4148V17.3636H30.7557ZM36.8707 29.1818C36.0298 29.1818 35.3045 28.9962 34.6946 28.625C34.0885 28.25 33.6207 27.7273 33.2912 27.0568C32.9654 26.3826 32.8026 25.5985 32.8026 24.7045C32.8026 23.8106 32.9654 23.0227 33.2912 22.3409C33.6207 21.6553 34.0791 21.1212 34.6662 20.7386C35.2571 20.3523 35.9465 20.1591 36.7344 20.1591C37.1889 20.1591 37.6378 20.2348 38.081 20.3864C38.5241 20.5379 38.9276 20.7841 39.2912 21.125C39.6548 21.4621 39.9446 21.9091 40.1605 22.4659C40.3764 23.0227 40.4844 23.7083 40.4844 24.5227V25.0909H33.7571V23.9318H39.1207C39.1207 23.4394 39.0223 23 38.8253 22.6136C38.6321 22.2273 38.3556 21.9223 37.9957 21.6989C37.6397 21.4754 37.2192 21.3636 36.7344 21.3636C36.2003 21.3636 35.7382 21.4962 35.348 21.7614C34.9616 22.0227 34.6643 22.3636 34.456 22.7841C34.2476 23.2045 34.1435 23.6553 34.1435 24.1364V24.9091C34.1435 25.5682 34.2571 26.1269 34.4844 26.5852C34.7154 27.0398 35.0355 27.3864 35.4446 27.625C35.8537 27.8598 36.3291 27.9773 36.8707 27.9773C37.223 27.9773 37.5412 27.928 37.8253 27.8295C38.1132 27.7273 38.3613 27.5758 38.5696 27.375C38.7779 27.1705 38.9389 26.9167 39.0526 26.6136L40.348 26.9773C40.2116 27.4167 39.9825 27.803 39.6605 28.1364C39.3385 28.4659 38.9408 28.7235 38.4673 28.9091C37.9938 29.0909 37.4616 29.1818 36.8707 29.1818ZM53.5696 20.2727C53.5014 19.697 53.2249 19.25 52.7401 18.9318C52.2552 18.6136 51.6605 18.4545 50.956 18.4545C50.4408 18.4545 49.9901 18.5379 49.6037 18.7045C49.2211 18.8712 48.9219 19.1004 48.706 19.392C48.4938 19.6837 48.3878 20.0152 48.3878 20.3864C48.3878 20.697 48.4616 20.964 48.6094 21.1875C48.7609 21.4072 48.9541 21.5909 49.1889 21.7386C49.4238 21.8826 49.67 22.0019 49.9276 22.0966C50.1851 22.1875 50.4219 22.2614 50.6378 22.3182L51.8196 22.6364C52.1226 22.7159 52.4598 22.8258 52.831 22.9659C53.206 23.1061 53.5639 23.2973 53.9048 23.5398C54.2495 23.7784 54.5336 24.0852 54.7571 24.4602C54.9806 24.8352 55.0923 25.2955 55.0923 25.8409C55.0923 26.4697 54.9276 27.0379 54.598 27.5455C54.2723 28.053 53.795 28.4564 53.1662 28.7557C52.5412 29.0549 51.7817 29.2045 50.8878 29.2045C50.0545 29.2045 49.3329 29.0701 48.723 28.8011C48.117 28.5322 47.6397 28.1572 47.2912 27.6761C46.9465 27.1951 46.7514 26.6364 46.706 26H48.1605C48.1984 26.4394 48.3461 26.803 48.6037 27.0909C48.8651 27.375 49.1946 27.5871 49.5923 27.7273C49.9938 27.8636 50.4257 27.9318 50.8878 27.9318C51.4257 27.9318 51.9086 27.8447 52.3366 27.6705C52.7647 27.4924 53.1037 27.2462 53.3537 26.9318C53.6037 26.6136 53.7287 26.2424 53.7287 25.8182C53.7287 25.4318 53.6207 25.1174 53.4048 24.875C53.1889 24.6326 52.9048 24.4356 52.5526 24.2841C52.2003 24.1326 51.8196 24 51.4105 23.8864L49.9787 23.4773C49.0696 23.2159 48.3499 22.8428 47.8196 22.358C47.2893 21.8731 47.0241 21.2386 47.0241 20.4545C47.0241 19.803 47.2003 19.2348 47.5526 18.75C47.9086 18.2614 48.3859 17.8826 48.9844 17.6136C49.5866 17.3409 50.259 17.2045 51.0014 17.2045C51.7514 17.2045 52.4181 17.339 53.0014 17.608C53.5848 17.8731 54.0469 18.2367 54.3878 18.6989C54.7325 19.161 54.9143 19.6856 54.9332 20.2727H53.5696ZM58.5682 23.75V29H57.2273V17.3636H58.5682V21.6364H58.6818C58.8864 21.1856 59.1932 20.8277 59.6023 20.5625C60.0152 20.2936 60.5644 20.1591 61.25 20.1591C61.8447 20.1591 62.3655 20.2784 62.8125 20.517C63.2595 20.7519 63.6061 21.1136 63.8523 21.6023C64.1023 22.0871 64.2273 22.7045 64.2273 23.4545V29H62.8864V23.5455C62.8864 22.8523 62.7064 22.3163 62.3466 21.9375C61.9905 21.5549 61.4962 21.3636 60.8636 21.3636C60.4242 21.3636 60.0303 21.4564 59.6818 21.642C59.3371 21.8277 59.0644 22.0985 58.8636 22.4545C58.6667 22.8106 58.5682 23.2424 58.5682 23.75ZM69.2486 29.2045C68.6955 29.2045 68.1937 29.1004 67.7429 28.892C67.2921 28.6799 66.9342 28.375 66.669 27.9773C66.4039 27.5758 66.2713 27.0909 66.2713 26.5227C66.2713 26.0227 66.3698 25.6174 66.5668 25.3068C66.7637 24.9924 67.027 24.7462 67.3565 24.5682C67.6861 24.3902 68.0497 24.2576 68.4474 24.1705C68.849 24.0795 69.2524 24.0076 69.6577 23.9545C70.188 23.8864 70.6179 23.8352 70.9474 23.8011C71.2808 23.7633 71.5232 23.7008 71.6747 23.6136C71.83 23.5265 71.9077 23.375 71.9077 23.1591V23.1136C71.9077 22.553 71.7543 22.1174 71.4474 21.8068C71.1444 21.4962 70.6842 21.3409 70.0668 21.3409C69.4266 21.3409 68.9247 21.4811 68.5611 21.7614C68.1974 22.0417 67.9418 22.3409 67.794 22.6591L66.5213 22.2045C66.7486 21.6742 67.0516 21.2614 67.4304 20.9659C67.813 20.6667 68.2296 20.4583 68.6804 20.3409C69.1349 20.2197 69.5819 20.1591 70.0213 20.1591C70.3016 20.1591 70.6236 20.1932 70.9872 20.2614C71.3546 20.3258 71.7088 20.4602 72.0497 20.6648C72.3944 20.8693 72.6804 21.178 72.9077 21.5909C73.1349 22.0038 73.2486 22.5568 73.2486 23.25V29H71.9077V27.8182H71.8395C71.7486 28.0076 71.5971 28.2102 71.3849 28.4261C71.1728 28.642 70.8906 28.8258 70.5384 28.9773C70.1861 29.1288 69.7562 29.2045 69.2486 29.2045ZM69.4531 28C69.9834 28 70.4304 27.8958 70.794 27.6875C71.1615 27.4792 71.438 27.2102 71.6236 26.8807C71.813 26.5511 71.9077 26.2045 71.9077 25.8409V24.6136C71.8509 24.6818 71.7259 24.7443 71.5327 24.8011C71.3433 24.8542 71.1236 24.9015 70.8736 24.9432C70.6274 24.9811 70.3868 25.0152 70.152 25.0455C69.9209 25.072 69.7334 25.0947 69.5895 25.1136C69.241 25.1591 68.9152 25.233 68.6122 25.3352C68.313 25.4337 68.0705 25.5833 67.8849 25.7841C67.7031 25.9811 67.6122 26.25 67.6122 26.5909C67.6122 27.0568 67.7846 27.4091 68.1293 27.6477C68.4777 27.8826 68.919 28 69.4531 28ZM75.696 29V20.2727H76.9915V21.5909H77.0824C77.2415 21.1591 77.5294 20.8087 77.946 20.5398C78.3627 20.2708 78.8324 20.1364 79.3551 20.1364C79.4536 20.1364 79.5767 20.1383 79.7244 20.142C79.8722 20.1458 79.9839 20.1515 80.0597 20.1591V21.5227C80.0142 21.5114 79.91 21.4943 79.7472 21.4716C79.5881 21.4451 79.4195 21.4318 79.2415 21.4318C78.8172 21.4318 78.4384 21.5208 78.1051 21.6989C77.7756 21.8731 77.5142 22.1155 77.321 22.4261C77.1316 22.733 77.0369 23.0833 77.0369 23.4773V29H75.696ZM85.0426 29.1818C84.2017 29.1818 83.4763 28.9962 82.8665 28.625C82.2604 28.25 81.7926 27.7273 81.4631 27.0568C81.1373 26.3826 80.9744 25.5985 80.9744 24.7045C80.9744 23.8106 81.1373 23.0227 81.4631 22.3409C81.7926 21.6553 82.2509 21.1212 82.8381 20.7386C83.429 20.3523 84.1184 20.1591 84.9062 20.1591C85.3608 20.1591 85.8097 20.2348 86.2528 20.3864C86.696 20.5379 87.0994 20.7841 87.4631 21.125C87.8267 21.4621 88.1165 21.9091 88.3324 22.4659C88.5483 23.0227 88.6562 23.7083 88.6562 24.5227V25.0909H81.929V23.9318H87.2926C87.2926 23.4394 87.1941 23 86.9972 22.6136C86.804 22.2273 86.5275 21.9223 86.1676 21.6989C85.8116 21.4754 85.3911 21.3636 84.9062 21.3636C84.3722 21.3636 83.91 21.4962 83.5199 21.7614C83.1335 22.0227 82.8362 22.3636 82.6278 22.7841C82.4195 23.2045 82.3153 23.6553 82.3153 24.1364V24.9091C82.3153 25.5682 82.429 26.1269 82.6562 26.5852C82.8873 27.0398 83.2074 27.3864 83.6165 27.625C84.0256 27.8598 84.5009 27.9773 85.0426 27.9773C85.3949 27.9773 85.7131 27.928 85.9972 27.8295C86.285 27.7273 86.5331 27.5758 86.7415 27.375C86.9498 27.1705 87.1108 26.9167 87.2244 26.6136L88.5199 26.9773C88.3835 27.4167 88.1544 27.803 87.8324 28.1364C87.5104 28.4659 87.1127 28.7235 86.6392 28.9091C86.1657 29.0909 85.6335 29.1818 85.0426 29.1818Z" fill="#2ECC71"/>
<path d="M144.042 86.9091H145.934L150.383 97.7756H150.537L154.985 86.9091H156.877V100H155.395V90.054H155.267L151.176 100H149.744L145.653 90.054H145.525V100H144.042V86.9091ZM163.968 100.205C163.022 100.205 162.206 99.9957 161.52 99.5781C160.838 99.1562 160.312 98.5682 159.941 97.8139C159.574 97.0554 159.391 96.1733 159.391 95.1676C159.391 94.1619 159.574 93.2756 159.941 92.5085C160.312 91.7372 160.827 91.1364 161.488 90.706C162.153 90.2713 162.928 90.054 163.814 90.054C164.326 90.054 164.831 90.1392 165.329 90.3097C165.828 90.4801 166.282 90.7571 166.691 91.1406C167.1 91.5199 167.426 92.0227 167.669 92.6491C167.912 93.2756 168.033 94.0469 168.033 94.9631V95.6023H160.465V94.2983H166.499C166.499 93.7443 166.388 93.25 166.167 92.8153C165.949 92.3807 165.638 92.0376 165.233 91.7862C164.833 91.5348 164.36 91.4091 163.814 91.4091C163.214 91.4091 162.694 91.5582 162.255 91.8565C161.82 92.1506 161.486 92.5341 161.251 93.0071C161.017 93.4801 160.9 93.9872 160.9 94.5284V95.3977C160.9 96.1392 161.028 96.7678 161.283 97.2834C161.543 97.7947 161.903 98.1847 162.363 98.4531C162.824 98.7173 163.358 98.8494 163.968 98.8494C164.364 98.8494 164.722 98.794 165.042 98.6832C165.366 98.5682 165.645 98.3977 165.879 98.1719C166.113 97.9418 166.295 97.6562 166.422 97.3153L167.88 97.7244C167.726 98.2188 167.469 98.6534 167.106 99.0284C166.744 99.3991 166.297 99.6889 165.764 99.8977C165.231 100.102 164.633 100.205 163.968 100.205ZM176.515 95.9858V90.1818H178.024V100H176.515V98.3381H176.413C176.183 98.8366 175.825 99.2607 175.339 99.6101C174.854 99.9553 174.24 100.128 173.498 100.128C172.885 100.128 172.339 99.9936 171.862 99.7251C171.385 99.4524 171.01 99.0433 170.737 98.4979C170.464 97.9482 170.328 97.2557 170.328 96.4205V90.1818H171.836V96.3182C171.836 97.0341 172.037 97.6051 172.437 98.0312C172.842 98.4574 173.358 98.6705 173.984 98.6705C174.359 98.6705 174.741 98.5746 175.128 98.3828C175.52 98.1911 175.849 97.897 176.113 97.5007C176.381 97.1044 176.515 96.5994 176.515 95.9858ZM187.741 92.3807L186.386 92.7642C186.301 92.5384 186.175 92.3189 186.009 92.1058C185.847 91.8885 185.626 91.7095 185.344 91.5689C185.063 91.4283 184.703 91.358 184.264 91.358C183.663 91.358 183.163 91.4964 182.762 91.7734C182.366 92.0462 182.168 92.3935 182.168 92.8153C182.168 93.1903 182.304 93.4865 182.577 93.7038C182.849 93.9212 183.276 94.1023 183.855 94.2472L185.312 94.6051C186.19 94.8182 186.844 95.1442 187.275 95.5831C187.705 96.0178 187.92 96.5781 187.92 97.2642C187.92 97.8267 187.759 98.3295 187.435 98.7727C187.115 99.2159 186.668 99.5653 186.092 99.821C185.517 100.077 184.848 100.205 184.085 100.205C183.084 100.205 182.255 99.9872 181.599 99.5526C180.942 99.1179 180.527 98.483 180.352 97.6477L181.784 97.2898C181.92 97.8182 182.178 98.2145 182.558 98.4787C182.941 98.7429 183.442 98.875 184.06 98.875C184.763 98.875 185.321 98.7259 185.734 98.4276C186.152 98.125 186.361 97.7628 186.361 97.3409C186.361 97 186.241 96.7145 186.003 96.4844C185.764 96.25 185.398 96.0753 184.903 95.9602L183.267 95.5767C182.368 95.3636 181.707 95.0334 181.286 94.5859C180.868 94.1342 180.659 93.5696 180.659 92.892C180.659 92.3381 180.815 91.848 181.126 91.4219C181.441 90.9957 181.869 90.6612 182.411 90.4183C182.956 90.1754 183.574 90.054 184.264 90.054C185.236 90.054 185.999 90.267 186.553 90.6932C187.111 91.1193 187.507 91.6818 187.741 92.3807ZM195.995 100H194.333L199.14 86.9091H200.776L205.583 100H203.921L200.009 88.9801H199.907L195.995 100ZM196.609 94.8864H203.308V96.2926H196.609V94.8864ZM207.418 100V90.1818H208.875V91.6648H208.977C209.156 91.179 209.48 90.7848 209.949 90.4822C210.418 90.1797 210.946 90.0284 211.534 90.0284C211.645 90.0284 211.784 90.0305 211.95 90.0348C212.116 90.0391 212.242 90.0455 212.327 90.054V91.5881C212.276 91.5753 212.159 91.5561 211.975 91.5305C211.796 91.5007 211.607 91.4858 211.406 91.4858C210.929 91.4858 210.503 91.5859 210.128 91.7862C209.757 91.9822 209.463 92.255 209.246 92.6044C209.033 92.9496 208.926 93.3437 208.926 93.7869V100H207.418ZM220.515 103.682V98.4915H220.387C220.276 98.6705 220.119 98.8963 219.914 99.169C219.71 99.4375 219.418 99.6783 219.039 99.8913C218.659 100.1 218.154 100.205 217.524 100.205C216.705 100.205 215.983 99.9979 215.357 99.5845C214.73 99.1669 214.24 98.5788 213.887 97.8203C213.533 97.0575 213.356 96.1562 213.356 95.1165C213.356 94.0852 213.533 93.1903 213.887 92.4318C214.24 91.6733 214.732 91.0874 215.363 90.674C215.994 90.2607 216.722 90.054 217.549 90.054C218.188 90.054 218.693 90.1605 219.064 90.3736C219.439 90.5824 219.725 90.821 219.921 91.0895C220.121 91.3537 220.276 91.571 220.387 91.7415H220.566V90.1818H222.024V103.682H220.515ZM217.728 98.8494C218.333 98.8494 218.845 98.6918 219.262 98.3764C219.68 98.0568 219.997 97.6158 220.215 97.0533C220.432 96.4865 220.541 95.8324 220.541 95.0909C220.541 94.358 220.434 93.7166 220.221 93.1669C220.008 92.6129 219.693 92.1825 219.275 91.8757C218.857 91.5646 218.342 91.4091 217.728 91.4091C217.089 91.4091 216.556 91.5732 216.13 91.9013C215.708 92.2251 215.391 92.6662 215.178 93.2244C214.969 93.7784 214.865 94.4006 214.865 95.0909C214.865 95.7898 214.971 96.4247 215.184 96.9957C215.401 97.5625 215.721 98.0142 216.143 98.3509C216.569 98.6832 217.097 98.8494 217.728 98.8494ZM230.972 95.9858V90.1818H232.481V100H230.972V98.3381H230.87C230.64 98.8366 230.282 99.2607 229.796 99.6101C229.311 99.9553 228.697 100.128 227.955 100.128C227.342 100.128 226.796 99.9936 226.319 99.7251C225.842 99.4524 225.467 99.0433 225.194 98.4979C224.921 97.9482 224.785 97.2557 224.785 96.4205V90.1818H226.294V96.3182C226.294 97.0341 226.494 97.6051 226.894 98.0312C227.299 98.4574 227.815 98.6705 228.441 98.6705C228.816 98.6705 229.198 98.5746 229.585 98.3828C229.977 98.1911 230.306 97.897 230.57 97.5007C230.838 97.1044 230.972 96.5994 230.972 95.9858ZM235.244 100V90.1818H236.752V100H235.244ZM236.011 88.5455C235.717 88.5455 235.463 88.4453 235.25 88.245C235.042 88.0447 234.937 87.804 234.937 87.5227C234.937 87.2415 235.042 87.0007 235.25 86.8004C235.463 86.6001 235.717 86.5 236.011 86.5C236.305 86.5 236.556 86.6001 236.765 86.8004C236.978 87.0007 237.085 87.2415 237.085 87.5227C237.085 87.804 236.978 88.0447 236.765 88.245C236.556 88.4453 236.305 88.5455 236.011 88.5455ZM247.544 90.1818L243.913 100H242.379L238.748 90.1818H240.385L243.095 98.0057H243.197L245.907 90.1818H247.544ZM253.172 100.205C252.286 100.205 251.508 99.9936 250.839 99.5717C250.174 99.1499 249.654 98.5597 249.279 97.8011C248.909 97.0426 248.723 96.1562 248.723 95.142C248.723 94.1193 248.909 93.2266 249.279 92.4638C249.654 91.701 250.174 91.1087 250.839 90.6868C251.508 90.2649 252.286 90.054 253.172 90.054C254.058 90.054 254.834 90.2649 255.499 90.6868C256.168 91.1087 256.688 91.701 257.058 92.4638C257.433 93.2266 257.621 94.1193 257.621 95.142C257.621 96.1562 257.433 97.0426 257.058 97.8011C256.688 98.5597 256.168 99.1499 255.499 99.5717C254.834 99.9936 254.058 100.205 253.172 100.205ZM253.172 98.8494C253.845 98.8494 254.399 98.6768 254.834 98.3317C255.269 97.9865 255.59 97.5327 255.799 96.9702C256.008 96.4077 256.112 95.7983 256.112 95.142C256.112 94.4858 256.008 93.8743 255.799 93.3075C255.59 92.7408 255.269 92.2827 254.834 91.9332C254.399 91.5838 253.845 91.4091 253.172 91.4091C252.499 91.4091 251.945 91.5838 251.51 91.9332C251.075 92.2827 250.754 92.7408 250.545 93.3075C250.336 93.8743 250.232 94.4858 250.232 95.142C250.232 95.7983 250.336 96.4077 250.545 96.9702C250.754 97.5327 251.075 97.9865 251.51 98.3317C251.945 98.6768 252.499 98.8494 253.172 98.8494Z" fill="white"/>
<path d="M344 148H56C52.6863 148 50 150.686 50 154V202C50 205.314 52.6863 208 56 208H344C347.314 208 350 205.314 350 202V154C350 150.686 347.314 148 344 148Z" fill="#1E1A21"/>
<path d="M80 193C88.2843 193 95 186.284 95 178C95 169.716 88.2843 163 80 163C71.7157 163 65 169.716 65 178C65 186.284 71.7157 193 80 193Z" fill="#2ECC71"/>
<path d="M111.415 174.273L114.006 181.619H114.108L116.699 174.273H117.807L114.602 183H113.511L110.307 174.273H111.415ZM119.03 183V176.455H120.036V183H119.03ZM119.081 175.568L120.121 173.591H121.297L119.967 175.568H119.081ZM124.349 183.136C123.804 183.136 123.322 182.999 122.904 182.723C122.487 182.445 122.16 182.053 121.924 181.547C121.689 181.038 121.571 180.438 121.571 179.744C121.571 179.057 121.689 178.46 121.924 177.955C122.16 177.449 122.488 177.058 122.909 176.783C123.329 176.507 123.815 176.369 124.366 176.369C124.792 176.369 125.129 176.44 125.376 176.582C125.626 176.722 125.816 176.881 125.947 177.06C126.081 177.236 126.184 177.381 126.258 177.494H126.343V174.273H127.349V183H126.377V181.994H126.258C126.184 182.114 126.079 182.264 125.943 182.446C125.806 182.625 125.612 182.786 125.359 182.928C125.106 183.067 124.77 183.136 124.349 183.136ZM124.485 182.233C124.889 182.233 125.23 182.128 125.508 181.918C125.787 181.705 125.998 181.411 126.143 181.036C126.288 180.658 126.36 180.222 126.36 179.727C126.36 179.239 126.289 178.811 126.147 178.445C126.005 178.075 125.795 177.788 125.517 177.584C125.238 177.376 124.895 177.273 124.485 177.273C124.059 177.273 123.704 177.382 123.42 177.601C123.139 177.817 122.927 178.111 122.785 178.483C122.646 178.852 122.576 179.267 122.576 179.727C122.576 180.193 122.647 180.616 122.789 180.997C122.934 181.375 123.147 181.676 123.429 181.901C123.713 182.122 124.065 182.233 124.485 182.233ZM132.075 183.136C131.444 183.136 130.9 182.997 130.443 182.719C129.988 182.438 129.637 182.045 129.39 181.543C129.146 181.037 129.024 180.449 129.024 179.778C129.024 179.108 129.146 178.517 129.39 178.006C129.637 177.491 129.981 177.091 130.422 176.804C130.865 176.514 131.382 176.369 131.973 176.369C132.314 176.369 132.65 176.426 132.983 176.54C133.315 176.653 133.618 176.838 133.89 177.094C134.163 177.347 134.38 177.682 134.542 178.099C134.704 178.517 134.785 179.031 134.785 179.642V180.068H129.74V179.199H133.762C133.762 178.83 133.689 178.5 133.541 178.21C133.396 177.92 133.189 177.692 132.919 177.524C132.652 177.357 132.336 177.273 131.973 177.273C131.572 177.273 131.225 177.372 130.933 177.571C130.643 177.767 130.42 178.023 130.264 178.338C130.108 178.653 130.029 178.991 130.029 179.352V179.932C130.029 180.426 130.115 180.845 130.285 181.189C130.458 181.53 130.699 181.79 131.005 181.969C131.312 182.145 131.669 182.233 132.075 182.233C132.339 182.233 132.578 182.196 132.791 182.122C133.007 182.045 133.193 181.932 133.349 181.781C133.505 181.628 133.626 181.437 133.711 181.21L134.683 181.483C134.581 181.812 134.409 182.102 134.167 182.352C133.926 182.599 133.627 182.793 133.272 182.932C132.917 183.068 132.518 183.136 132.075 183.136ZM138.974 183.136C138.383 183.136 137.865 182.996 137.419 182.714C136.975 182.433 136.629 182.04 136.379 181.534C136.132 181.028 136.008 180.437 136.008 179.761C136.008 179.08 136.132 178.484 136.379 177.976C136.629 177.467 136.975 177.072 137.419 176.791C137.865 176.51 138.383 176.369 138.974 176.369C139.565 176.369 140.082 176.51 140.525 176.791C140.971 177.072 141.318 177.467 141.565 177.976C141.815 178.484 141.94 179.08 141.94 179.761C141.94 180.437 141.815 181.028 141.565 181.534C141.318 182.04 140.971 182.433 140.525 182.714C140.082 182.996 139.565 183.136 138.974 183.136ZM138.974 182.233C139.423 182.233 139.792 182.118 140.082 181.888C140.372 181.658 140.586 181.355 140.725 180.98C140.865 180.605 140.934 180.199 140.934 179.761C140.934 179.324 140.865 178.916 140.725 178.538C140.586 178.161 140.372 177.855 140.082 177.622C139.792 177.389 139.423 177.273 138.974 177.273C138.525 177.273 138.156 177.389 137.866 177.622C137.576 177.855 137.362 178.161 137.223 178.538C137.083 178.916 137.014 179.324 137.014 179.761C137.014 180.199 137.083 180.605 137.223 180.98C137.362 181.355 137.576 181.658 137.866 181.888C138.156 182.118 138.525 182.233 138.974 182.233ZM149.901 174.273V183H148.844V175.381H148.793L146.663 176.795V175.722L148.844 174.273H149.901Z" fill="white"/>
<path d="M344 228H56C52.6863 228 50 230.686 50 234V282C50 285.314 52.6863 288 56 288H344C347.314 288 350 285.314 350 282V234C350 230.686 347.314 228 344 228Z" fill="#1E1A21"/>
<path d="M80 273C88.2843 273 95 266.284 95 258C95 249.716 88.2843 243 80 243C71.7157 243 65 249.716 65 258C65 266.284 71.7157 273 80 273Z" fill="#2ECC71"/>
<path d="M111.415 254.273L114.006 261.619H114.108L116.699 254.273H117.807L114.602 263H113.511L110.307 254.273H111.415ZM119.03 263V256.455H120.036V263H119.03ZM119.081 255.568L120.121 253.591H121.297L119.967 255.568H119.081ZM124.349 263.136C123.804 263.136 123.322 262.999 122.904 262.723C122.487 262.445 122.16 262.053 121.924 261.547C121.689 261.038 121.571 260.438 121.571 259.744C121.571 259.057 121.689 258.46 121.924 257.955C122.16 257.449 122.488 257.058 122.909 256.783C123.329 256.507 123.815 256.369 124.366 256.369C124.792 256.369 125.129 256.44 125.376 256.582C125.626 256.722 125.816 256.881 125.947 257.06C126.081 257.236 126.184 257.381 126.258 257.494H126.343V254.273H127.349V263H126.377V261.994H126.258C126.184 262.114 126.079 262.264 125.943 262.446C125.806 262.625 125.612 262.786 125.359 262.928C125.106 263.067 124.77 263.136 124.349 263.136ZM124.485 262.233C124.889 262.233 125.23 262.128 125.508 261.918C125.787 261.705 125.998 261.411 126.143 261.036C126.288 260.658 126.36 260.222 126.36 259.727C126.36 259.239 126.289 258.811 126.147 258.445C126.005 258.075 125.795 257.788 125.517 257.584C125.238 257.376 124.895 257.273 124.485 257.273C124.059 257.273 123.704 257.382 123.42 257.601C123.139 257.817 122.927 258.111 122.785 258.483C122.646 258.852 122.576 259.267 122.576 259.727C122.576 260.193 122.647 260.616 122.789 260.997C122.934 261.375 123.147 261.676 123.429 261.901C123.713 262.122 124.065 262.233 124.485 262.233ZM132.075 263.136C131.444 263.136 130.9 262.997 130.443 262.719C129.988 262.438 129.637 262.045 129.39 261.543C129.146 261.037 129.024 260.449 129.024 259.778C129.024 259.108 129.146 258.517 129.39 258.006C129.637 257.491 129.981 257.091 130.422 256.804C130.865 256.514 131.382 256.369 131.973 256.369C132.314 256.369 132.65 256.426 132.983 256.54C133.315 256.653 133.618 256.838 133.89 257.094C134.163 257.347 134.38 257.682 134.542 258.099C134.704 258.517 134.785 259.031 134.785 259.642V260.068H129.74V259.199H133.762C133.762 258.83 133.689 258.5 133.541 258.21C133.396 257.92 133.189 257.692 132.919 257.524C132.652 257.357 132.336 257.273 131.973 257.273C131.572 257.273 131.225 257.372 130.933 257.571C130.643 257.767 130.42 258.023 130.264 258.338C130.108 258.653 130.029 258.991 130.029 259.352V259.932C130.029 260.426 130.115 260.845 130.285 261.189C130.458 261.53 130.699 261.79 131.005 261.969C131.312 262.145 131.669 262.233 132.075 262.233C132.339 262.233 132.578 262.196 132.791 262.122C133.007 262.045 133.193 261.932 133.349 261.781C133.505 261.628 133.626 261.437 133.711 261.21L134.683 261.483C134.581 261.812 134.409 262.102 134.167 262.352C133.926 262.599 133.627 262.793 133.272 262.932C132.917 263.068 132.518 263.136 132.075 263.136ZM138.974 263.136C138.383 263.136 137.865 262.996 137.419 262.714C136.975 262.433 136.629 262.04 136.379 261.534C136.132 261.028 136.008 260.437 136.008 259.761C136.008 259.08 136.132 258.484 136.379 257.976C136.629 257.467 136.975 257.072 137.419 256.791C137.865 256.51 138.383 256.369 138.974 256.369C139.565 256.369 140.082 256.51 140.525 256.791C140.971 257.072 141.318 257.467 141.565 257.976C141.815 258.484 141.94 259.08 141.94 259.761C141.94 260.437 141.815 261.028 141.565 261.534C141.318 262.04 140.971 262.433 140.525 262.714C140.082 262.996 139.565 263.136 138.974 263.136ZM138.974 262.233C139.423 262.233 139.792 262.118 140.082 261.888C140.372 261.658 140.586 261.355 140.725 260.98C140.865 260.605 140.934 260.199 140.934 259.761C140.934 259.324 140.865 258.916 140.725 258.538C140.586 258.161 140.372 257.855 140.082 257.622C139.792 257.389 139.423 257.273 138.974 257.273C138.525 257.273 138.156 257.389 137.866 257.622C137.576 257.855 137.362 258.161 137.223 258.538C137.083 258.916 137.014 259.324 137.014 259.761C137.014 260.199 137.083 260.605 137.223 260.98C137.362 261.355 137.576 261.658 137.866 261.888C138.156 262.118 138.525 262.233 138.974 262.233ZM146.833 263V262.233L149.714 259.08C150.052 258.71 150.33 258.389 150.549 258.116C150.768 257.841 150.93 257.582 151.035 257.341C151.143 257.097 151.197 256.841 151.197 256.574C151.197 256.267 151.123 256.001 150.975 255.777C150.83 255.553 150.631 255.379 150.379 255.257C150.126 255.135 149.842 255.074 149.526 255.074C149.191 255.074 148.898 255.143 148.648 255.283C148.401 255.419 148.21 255.611 148.073 255.858C147.94 256.105 147.873 256.395 147.873 256.727H146.867C146.867 256.216 146.985 255.767 147.221 255.381C147.457 254.994 147.778 254.693 148.184 254.477C148.593 254.261 149.052 254.153 149.56 254.153C150.072 254.153 150.525 254.261 150.92 254.477C151.315 254.693 151.624 254.984 151.849 255.351C152.073 255.717 152.185 256.125 152.185 256.574C152.185 256.895 152.127 257.209 152.011 257.516C151.897 257.82 151.698 258.159 151.414 258.534C151.133 258.906 150.742 259.361 150.242 259.898L148.282 261.994V262.062H152.339V263H146.833Z" fill="white"/>
<path d="M344 308H56C52.6863 308 50 310.686 50 314V362C50 365.314 52.6863 368 56 368H344C347.314 368 350 365.314 350 362V314C350 310.686 347.314 308 344 308Z" fill="#1E1A21"/>
<path d="M80 353C88.2843 353 95 346.284 95 338C95 329.716 88.2843 323 80 323C71.7157 323 65 329.716 65 338C65 346.284 71.7157 353 80 353Z" fill="#2ECC71"/>
<path d="M111.415 334.273L114.006 341.619H114.108L116.699 334.273H117.807L114.602 343H113.511L110.307 334.273H111.415ZM119.03 343V336.455H120.036V343H119.03ZM119.081 335.568L120.121 333.591H121.297L119.967 335.568H119.081ZM124.349 343.136C123.804 343.136 123.322 342.999 122.904 342.723C122.487 342.445 122.16 342.053 121.924 341.547C121.689 341.038 121.571 340.438 121.571 339.744C121.571 339.057 121.689 338.46 121.924 337.955C122.16 337.449 122.488 337.058 122.909 336.783C123.329 336.507 123.815 336.369 124.366 336.369C124.792 336.369 125.129 336.44 125.376 336.582C125.626 336.722 125.816 336.881 125.947 337.06C126.081 337.236 126.184 337.381 126.258 337.494H126.343V334.273H127.349V343H126.377V341.994H126.258C126.184 342.114 126.079 342.264 125.943 342.446C125.806 342.625 125.612 342.786 125.359 342.928C125.106 343.067 124.77 343.136 124.349 343.136ZM124.485 342.233C124.889 342.233 125.23 342.128 125.508 341.918C125.787 341.705 125.998 341.411 126.143 341.036C126.288 340.658 126.36 340.222 126.36 339.727C126.36 339.239 126.289 338.811 126.147 338.445C126.005 338.075 125.795 337.788 125.517 337.584C125.238 337.376 124.895 337.273 124.485 337.273C124.059 337.273 123.704 337.382 123.42 337.601C123.139 337.817 122.927 338.111 122.785 338.483C122.646 338.852 122.576 339.267 122.576 339.727C122.576 340.193 122.647 340.616 122.789 340.997C122.934 341.375 123.147 341.676 123.429 341.901C123.713 342.122 124.065 342.233 124.485 342.233ZM132.075 343.136C131.444 343.136 130.9 342.997 130.443 342.719C129.988 342.438 129.637 342.045 129.39 341.543C129.146 341.037 129.024 340.449 129.024 339.778C129.024 339.108 129.146 338.517 129.39 338.006C129.637 337.491 129.981 337.091 130.422 336.804C130.865 336.514 131.382 336.369 131.973 336.369C132.314 336.369 132.65 336.426 132.983 336.54C133.315 336.653 133.618 336.838 133.89 337.094C134.163 337.347 134.38 337.682 134.542 338.099C134.704 338.517 134.785 339.031 134.785 339.642V340.068H129.74V339.199H133.762C133.762 338.83 133.689 338.5 133.541 338.21C133.396 337.92 133.189 337.692 132.919 337.524C132.652 337.357 132.336 337.273 131.973 337.273C131.572 337.273 131.225 337.372 130.933 337.571C130.643 337.767 130.42 338.023 130.264 338.338C130.108 338.653 130.029 338.991 130.029 339.352V339.932C130.029 340.426 130.115 340.845 130.285 341.189C130.458 341.53 130.699 341.79 131.005 341.969C131.312 342.145 131.669 342.233 132.075 342.233C132.339 342.233 132.578 342.196 132.791 342.122C133.007 342.045 133.193 341.932 133.349 341.781C133.505 341.628 133.626 341.437 133.711 341.21L134.683 341.483C134.581 341.812 134.409 342.102 134.167 342.352C133.926 342.599 133.627 342.793 133.272 342.932C132.917 343.068 132.518 343.136 132.075 343.136ZM138.974 343.136C138.383 343.136 137.865 342.996 137.419 342.714C136.975 342.433 136.629 342.04 136.379 341.534C136.132 341.028 136.008 340.437 136.008 339.761C136.008 339.08 136.132 338.484 136.379 337.976C136.629 337.467 136.975 337.072 137.419 336.791C137.865 336.51 138.383 336.369 138.974 336.369C139.565 336.369 140.082 336.51 140.525 336.791C140.971 337.072 141.318 337.467 141.565 337.976C141.815 338.484 141.94 339.08 141.94 339.761C141.94 340.437 141.815 341.028 141.565 341.534C141.318 342.04 140.971 342.433 140.525 342.714C140.082 342.996 139.565 343.136 138.974 343.136ZM138.974 342.233C139.423 342.233 139.792 342.118 140.082 341.888C140.372 341.658 140.586 341.355 140.725 340.98C140.865 340.605 140.934 340.199 140.934 339.761C140.934 339.324 140.865 338.916 140.725 338.538C140.586 338.161 140.372 337.855 140.082 337.622C139.792 337.389 139.423 337.273 138.974 337.273C138.525 337.273 138.156 337.389 137.866 337.622C137.576 337.855 137.362 338.161 137.223 338.538C137.083 338.916 137.014 339.324 137.014 339.761C137.014 340.199 137.083 340.605 137.223 340.98C137.362 341.355 137.576 341.658 137.866 341.888C138.156 342.118 138.525 342.233 138.974 342.233ZM149.782 343.119C149.219 343.119 148.718 343.023 148.278 342.83C147.84 342.636 147.492 342.368 147.234 342.024C146.978 341.678 146.839 341.276 146.816 340.818H147.89C147.913 341.099 148.009 341.342 148.18 341.547C148.35 341.749 148.573 341.905 148.849 342.016C149.124 342.126 149.43 342.182 149.765 342.182C150.14 342.182 150.472 342.116 150.762 341.986C151.052 341.855 151.279 341.673 151.444 341.44C151.609 341.207 151.691 340.938 151.691 340.631C151.691 340.31 151.612 340.027 151.452 339.783C151.293 339.536 151.06 339.342 150.754 339.203C150.447 339.064 150.072 338.994 149.629 338.994H148.93V338.057H149.629C149.975 338.057 150.279 337.994 150.54 337.869C150.805 337.744 151.011 337.568 151.158 337.341C151.309 337.114 151.384 336.847 151.384 336.54C151.384 336.244 151.319 335.987 151.188 335.768C151.058 335.55 150.873 335.379 150.634 335.257C150.398 335.135 150.12 335.074 149.799 335.074C149.498 335.074 149.214 335.129 148.947 335.24C148.683 335.348 148.467 335.506 148.299 335.713C148.131 335.918 148.04 336.165 148.026 336.455H147.004C147.021 335.997 147.158 335.597 147.417 335.253C147.675 334.906 148.013 334.636 148.431 334.443C148.852 334.25 149.313 334.153 149.816 334.153C150.356 334.153 150.819 334.263 151.205 334.482C151.592 334.697 151.888 334.983 152.096 335.338C152.303 335.693 152.407 336.077 152.407 336.489C152.407 336.98 152.278 337.399 152.019 337.746C151.763 338.092 151.415 338.332 150.975 338.466V338.534C151.526 338.625 151.957 338.859 152.266 339.237C152.576 339.612 152.731 340.077 152.731 340.631C152.731 341.105 152.602 341.531 152.343 341.909C152.087 342.284 151.738 342.58 151.295 342.795C150.852 343.011 150.347 343.119 149.782 343.119Z" fill="white"/>
<path d="M400 650H0V700H400V650Z" fill="#1E1A21"/>
<path d="M50 658C50 653.582 53.5817 650 58 650H159C163.418 650 167 653.582 167 658V692C167 696.418 163.418 700 159 700H58C53.5817 700 50 696.418 50 692V658Z" fill="#2D2828"/>
<path d="M241.5 658C241.5 653.582 245.082 650 249.5 650H350.5C354.918 650 358.5 653.582 358.5 658V692C358.5 696.418 354.918 700 350.5 700H249.5C245.082 700 241.5 696.418 241.5 692V658Z" fill="#2D2828"/>
<path d="M254.409 681V669.364H261.432V670.614H255.818V674.545H261.068V675.795H255.818V679.75H261.523V681H254.409ZM265.131 675.75V681H263.79V672.273H265.085V673.636H265.199C265.403 673.193 265.714 672.837 266.131 672.568C266.547 672.295 267.085 672.159 267.744 672.159C268.335 672.159 268.852 672.28 269.295 672.523C269.739 672.761 270.083 673.125 270.33 673.614C270.576 674.098 270.699 674.712 270.699 675.455V681H269.358V675.545C269.358 674.86 269.18 674.326 268.824 673.943C268.468 673.557 267.979 673.364 267.358 673.364C266.93 673.364 266.547 673.456 266.21 673.642C265.877 673.828 265.614 674.098 265.42 674.455C265.227 674.811 265.131 675.242 265.131 675.75ZM279.973 672.273L276.746 681H275.382L272.155 672.273H273.609L276.018 679.227H276.109L278.518 672.273H279.973ZM281.743 681V672.273H283.084V681H281.743ZM282.425 670.818C282.163 670.818 281.938 670.729 281.749 670.551C281.563 670.373 281.47 670.159 281.47 669.909C281.47 669.659 281.563 669.445 281.749 669.267C281.938 669.089 282.163 669 282.425 669C282.686 669 282.91 669.089 283.095 669.267C283.285 669.445 283.379 669.659 283.379 669.909C283.379 670.159 283.285 670.373 283.095 670.551C282.91 670.729 282.686 670.818 282.425 670.818ZM288.108 681.205C287.555 681.205 287.053 681.1 286.602 680.892C286.152 680.68 285.794 680.375 285.528 679.977C285.263 679.576 285.131 679.091 285.131 678.523C285.131 678.023 285.229 677.617 285.426 677.307C285.623 676.992 285.886 676.746 286.216 676.568C286.545 676.39 286.909 676.258 287.307 676.17C287.708 676.08 288.112 676.008 288.517 675.955C289.047 675.886 289.477 675.835 289.807 675.801C290.14 675.763 290.383 675.701 290.534 675.614C290.689 675.527 290.767 675.375 290.767 675.159V675.114C290.767 674.553 290.614 674.117 290.307 673.807C290.004 673.496 289.544 673.341 288.926 673.341C288.286 673.341 287.784 673.481 287.42 673.761C287.057 674.042 286.801 674.341 286.653 674.659L285.381 674.205C285.608 673.674 285.911 673.261 286.29 672.966C286.672 672.667 287.089 672.458 287.54 672.341C287.994 672.22 288.441 672.159 288.881 672.159C289.161 672.159 289.483 672.193 289.847 672.261C290.214 672.326 290.568 672.46 290.909 672.665C291.254 672.869 291.54 673.178 291.767 673.591C291.994 674.004 292.108 674.557 292.108 675.25V681H290.767V679.818H290.699C290.608 680.008 290.456 680.21 290.244 680.426C290.032 680.642 289.75 680.826 289.398 680.977C289.045 681.129 288.616 681.205 288.108 681.205ZM288.312 680C288.843 680 289.29 679.896 289.653 679.688C290.021 679.479 290.297 679.21 290.483 678.881C290.672 678.551 290.767 678.205 290.767 677.841V676.614C290.71 676.682 290.585 676.744 290.392 676.801C290.203 676.854 289.983 676.902 289.733 676.943C289.487 676.981 289.246 677.015 289.011 677.045C288.78 677.072 288.593 677.095 288.449 677.114C288.1 677.159 287.775 677.233 287.472 677.335C287.172 677.434 286.93 677.583 286.744 677.784C286.563 677.981 286.472 678.25 286.472 678.591C286.472 679.057 286.644 679.409 286.989 679.648C287.337 679.883 287.778 680 288.312 680ZM294.555 681V672.273H295.851V673.591H295.942C296.101 673.159 296.389 672.809 296.805 672.54C297.222 672.271 297.692 672.136 298.214 672.136C298.313 672.136 298.436 672.138 298.584 672.142C298.732 672.146 298.843 672.152 298.919 672.159V673.523C298.874 673.511 298.769 673.494 298.607 673.472C298.447 673.445 298.279 673.432 298.101 673.432C297.677 673.432 297.298 673.521 296.964 673.699C296.635 673.873 296.374 674.116 296.18 674.426C295.991 674.733 295.896 675.083 295.896 675.477V681H294.555ZM305.668 669.364L309.122 679.159H309.259L312.713 669.364H314.19L309.918 681H308.463L304.19 669.364H305.668ZM315.821 681V672.273H317.162V681H315.821ZM315.889 671.091L317.276 668.455H318.844L317.071 671.091H315.889ZM322.913 681.182C322.186 681.182 321.544 680.998 320.987 680.631C320.43 680.259 319.995 679.737 319.68 679.062C319.366 678.384 319.209 677.583 319.209 676.659C319.209 675.742 319.366 674.947 319.68 674.273C319.995 673.598 320.432 673.078 320.993 672.71C321.554 672.343 322.201 672.159 322.936 672.159C323.504 672.159 323.953 672.254 324.283 672.443C324.616 672.629 324.87 672.841 325.044 673.08C325.222 673.314 325.36 673.508 325.459 673.659H325.572V669.364H326.913V681H325.618V679.659H325.459C325.36 679.818 325.22 680.019 325.038 680.261C324.857 680.5 324.597 680.714 324.26 680.903C323.923 681.089 323.474 681.182 322.913 681.182ZM323.095 679.977C323.633 679.977 324.088 679.837 324.459 679.557C324.83 679.273 325.112 678.881 325.305 678.381C325.499 677.877 325.595 677.295 325.595 676.636C325.595 675.985 325.5 675.415 325.311 674.926C325.122 674.434 324.841 674.051 324.47 673.778C324.099 673.502 323.641 673.364 323.095 673.364C322.527 673.364 322.054 673.509 321.675 673.801C321.3 674.089 321.018 674.481 320.828 674.977C320.643 675.47 320.55 676.023 320.55 676.636C320.55 677.258 320.644 677.822 320.834 678.33C321.027 678.833 321.311 679.235 321.686 679.534C322.065 679.83 322.535 679.977 323.095 679.977ZM333.214 681.182C332.374 681.182 331.648 680.996 331.038 680.625C330.432 680.25 329.964 679.727 329.635 679.057C329.309 678.383 329.146 677.598 329.146 676.705C329.146 675.811 329.309 675.023 329.635 674.341C329.964 673.655 330.423 673.121 331.01 672.739C331.601 672.352 332.29 672.159 333.078 672.159C333.533 672.159 333.982 672.235 334.425 672.386C334.868 672.538 335.271 672.784 335.635 673.125C335.999 673.462 336.288 673.909 336.504 674.466C336.72 675.023 336.828 675.708 336.828 676.523V677.091H330.101V675.932H335.464C335.464 675.439 335.366 675 335.169 674.614C334.976 674.227 334.699 673.922 334.339 673.699C333.983 673.475 333.563 673.364 333.078 673.364C332.544 673.364 332.082 673.496 331.692 673.761C331.305 674.023 331.008 674.364 330.8 674.784C330.591 675.205 330.487 675.655 330.487 676.136V676.909C330.487 677.568 330.601 678.127 330.828 678.585C331.059 679.04 331.379 679.386 331.788 679.625C332.197 679.86 332.673 679.977 333.214 679.977C333.567 679.977 333.885 679.928 334.169 679.83C334.457 679.727 334.705 679.576 334.913 679.375C335.122 679.17 335.283 678.917 335.396 678.614L336.692 678.977C336.555 679.417 336.326 679.803 336.004 680.136C335.682 680.466 335.285 680.723 334.811 680.909C334.338 681.091 333.805 681.182 333.214 681.182ZM342.413 681.182C341.625 681.182 340.934 680.994 340.339 680.619C339.749 680.244 339.286 679.72 338.953 679.045C338.624 678.371 338.459 677.583 338.459 676.682C338.459 675.773 338.624 674.979 338.953 674.301C339.286 673.623 339.749 673.097 340.339 672.722C340.934 672.347 341.625 672.159 342.413 672.159C343.201 672.159 343.891 672.347 344.482 672.722C345.076 673.097 345.538 673.623 345.868 674.301C346.201 674.979 346.368 675.773 346.368 676.682C346.368 677.583 346.201 678.371 345.868 679.045C345.538 679.72 345.076 680.244 344.482 680.619C343.891 680.994 343.201 681.182 342.413 681.182ZM342.413 679.977C343.012 679.977 343.504 679.824 343.891 679.517C344.277 679.21 344.563 678.807 344.749 678.307C344.934 677.807 345.027 677.265 345.027 676.682C345.027 676.098 344.934 675.555 344.749 675.051C344.563 674.547 344.277 674.14 343.891 673.83C343.504 673.519 343.012 673.364 342.413 673.364C341.815 673.364 341.322 673.519 340.936 673.83C340.55 674.14 340.264 674.547 340.078 675.051C339.893 675.555 339.8 676.098 339.8 676.682C339.8 677.265 339.893 677.807 340.078 678.307C340.264 678.807 340.55 679.21 340.936 679.517C341.322 679.824 341.815 679.977 342.413 679.977Z" fill="white"/>
<path d="M60.4091 669.364H62.0909L66.0455 679.023H66.1818L70.1364 669.364H71.8182V681H70.5V672.159H70.3864L66.75 681H65.4773L61.8409 672.159H61.7273V681H60.4091V669.364ZM78.1207 681.182C77.2798 681.182 76.5545 680.996 75.9446 680.625C75.3385 680.25 74.8707 679.727 74.5412 679.057C74.2154 678.383 74.0526 677.598 74.0526 676.705C74.0526 675.811 74.2154 675.023 74.5412 674.341C74.8707 673.655 75.3291 673.121 75.9162 672.739C76.5071 672.352 77.1965 672.159 77.9844 672.159C78.4389 672.159 78.8878 672.235 79.331 672.386C79.7741 672.538 80.1776 672.784 80.5412 673.125C80.9048 673.462 81.1946 673.909 81.4105 674.466C81.6264 675.023 81.7344 675.708 81.7344 676.523V677.091H75.0071V675.932H80.3707C80.3707 675.439 80.2723 675 80.0753 674.614C79.8821 674.227 79.6056 673.922 79.2457 673.699C78.8897 673.475 78.4692 673.364 77.9844 673.364C77.4503 673.364 76.9882 673.496 76.598 673.761C76.2116 674.023 75.9143 674.364 75.706 674.784C75.4976 675.205 75.3935 675.655 75.3935 676.136V676.909C75.3935 677.568 75.5071 678.127 75.7344 678.585C75.9654 679.04 76.2855 679.386 76.6946 679.625C77.1037 679.86 77.5791 679.977 78.1207 679.977C78.473 679.977 78.7912 679.928 79.0753 679.83C79.3632 679.727 79.6113 679.576 79.8196 679.375C80.0279 679.17 80.1889 678.917 80.3026 678.614L81.598 678.977C81.4616 679.417 81.2325 679.803 80.9105 680.136C80.5885 680.466 80.1908 680.723 79.7173 680.909C79.2438 681.091 78.7116 681.182 78.1207 681.182ZM89.2741 677.432V672.273H90.6151V681H89.2741V679.523H89.1832C88.9787 679.966 88.6605 680.343 88.2287 680.653C87.7969 680.96 87.2514 681.114 86.5923 681.114C86.0469 681.114 85.562 680.994 85.1378 680.756C84.7135 680.513 84.3802 680.15 84.1378 679.665C83.8954 679.176 83.7741 678.561 83.7741 677.818V672.273H85.1151V677.727C85.1151 678.364 85.2931 678.871 85.6491 679.25C86.009 679.629 86.4673 679.818 87.0241 679.818C87.3575 679.818 87.6965 679.733 88.0412 679.562C88.3897 679.392 88.6813 679.131 88.9162 678.778C89.1548 678.426 89.2741 677.977 89.2741 677.432ZM99.2528 674.227L98.0483 674.568C97.9725 674.367 97.8608 674.172 97.7131 673.983C97.5691 673.79 97.3722 673.631 97.1222 673.506C96.8722 673.381 96.5521 673.318 96.1619 673.318C95.6278 673.318 95.1828 673.441 94.8267 673.688C94.4744 673.93 94.2983 674.239 94.2983 674.614C94.2983 674.947 94.4195 675.21 94.6619 675.403C94.9044 675.597 95.2831 675.758 95.7983 675.886L97.0938 676.205C97.8741 676.394 98.4555 676.684 98.8381 677.074C99.2206 677.46 99.4119 677.958 99.4119 678.568C99.4119 679.068 99.268 679.515 98.9801 679.909C98.696 680.303 98.2983 680.614 97.7869 680.841C97.2756 681.068 96.6809 681.182 96.0028 681.182C95.1127 681.182 94.3759 680.989 93.7926 680.602C93.2093 680.216 92.84 679.652 92.6847 678.909L93.9574 678.591C94.0786 679.061 94.3078 679.413 94.6449 679.648C94.9858 679.883 95.4309 680 95.9801 680C96.6051 680 97.1013 679.867 97.4688 679.602C97.84 679.333 98.0256 679.011 98.0256 678.636C98.0256 678.333 97.9195 678.08 97.7074 677.875C97.4953 677.667 97.1695 677.511 96.7301 677.409L95.2756 677.068C94.4763 676.879 93.8892 676.585 93.5142 676.188C93.143 675.786 92.9574 675.284 92.9574 674.682C92.9574 674.189 93.0956 673.754 93.3722 673.375C93.6525 672.996 94.0331 672.699 94.5142 672.483C94.9991 672.267 95.5483 672.159 96.1619 672.159C97.0256 672.159 97.7036 672.348 98.196 672.727C98.6922 673.106 99.0445 673.606 99.2528 674.227ZM106.589 669.364L110.044 679.159H110.18L113.635 669.364H115.112L110.839 681H109.385L105.112 669.364H106.589ZM116.743 681V672.273H118.084V681H116.743ZM116.811 671.091L118.197 668.455H119.766L117.993 671.091H116.811ZM123.835 681.182C123.108 681.182 122.466 680.998 121.909 680.631C121.352 680.259 120.917 679.737 120.602 679.062C120.288 678.384 120.131 677.583 120.131 676.659C120.131 675.742 120.288 674.947 120.602 674.273C120.917 673.598 121.354 673.078 121.915 672.71C122.475 672.343 123.123 672.159 123.858 672.159C124.426 672.159 124.875 672.254 125.205 672.443C125.538 672.629 125.792 672.841 125.966 673.08C126.144 673.314 126.282 673.508 126.381 673.659H126.494V669.364H127.835V681H126.54V679.659H126.381C126.282 679.818 126.142 680.019 125.96 680.261C125.778 680.5 125.519 680.714 125.182 680.903C124.845 681.089 124.396 681.182 123.835 681.182ZM124.017 679.977C124.555 679.977 125.009 679.837 125.381 679.557C125.752 679.273 126.034 678.881 126.227 678.381C126.42 677.877 126.517 677.295 126.517 676.636C126.517 675.985 126.422 675.415 126.233 674.926C126.044 674.434 125.763 674.051 125.392 673.778C125.021 673.502 124.563 673.364 124.017 673.364C123.449 673.364 122.975 673.509 122.597 673.801C122.222 674.089 121.939 674.481 121.75 674.977C121.564 675.47 121.472 676.023 121.472 676.636C121.472 677.258 121.566 677.822 121.756 678.33C121.949 678.833 122.233 679.235 122.608 679.534C122.987 679.83 123.456 679.977 124.017 679.977ZM134.136 681.182C133.295 681.182 132.57 680.996 131.96 680.625C131.354 680.25 130.886 679.727 130.557 679.057C130.231 678.383 130.068 677.598 130.068 676.705C130.068 675.811 130.231 675.023 130.557 674.341C130.886 673.655 131.345 673.121 131.932 672.739C132.523 672.352 133.212 672.159 134 672.159C134.455 672.159 134.903 672.235 135.347 672.386C135.79 672.538 136.193 672.784 136.557 673.125C136.92 673.462 137.21 673.909 137.426 674.466C137.642 675.023 137.75 675.708 137.75 676.523V677.091H131.023V675.932H136.386C136.386 675.439 136.288 675 136.091 674.614C135.898 674.227 135.621 673.922 135.261 673.699C134.905 673.475 134.485 673.364 134 673.364C133.466 673.364 133.004 673.496 132.614 673.761C132.227 674.023 131.93 674.364 131.722 674.784C131.513 675.205 131.409 675.655 131.409 676.136V676.909C131.409 677.568 131.523 678.127 131.75 678.585C131.981 679.04 132.301 679.386 132.71 679.625C133.119 679.86 133.595 679.977 134.136 679.977C134.489 679.977 134.807 679.928 135.091 679.83C135.379 679.727 135.627 679.576 135.835 679.375C136.044 679.17 136.205 678.917 136.318 678.614L137.614 678.977C137.477 679.417 137.248 679.803 136.926 680.136C136.604 680.466 136.206 680.723 135.733 680.909C135.259 681.091 134.727 681.182 134.136 681.182ZM143.335 681.182C142.547 681.182 141.856 680.994 141.261 680.619C140.67 680.244 140.208 679.72 139.875 679.045C139.545 678.371 139.381 677.583 139.381 676.682C139.381 675.773 139.545 674.979 139.875 674.301C140.208 673.623 140.67 673.097 141.261 672.722C141.856 672.347 142.547 672.159 143.335 672.159C144.123 672.159 144.813 672.347 145.403 672.722C145.998 673.097 146.46 673.623 146.79 674.301C147.123 674.979 147.29 675.773 147.29 676.682C147.29 677.583 147.123 678.371 146.79 679.045C146.46 679.72 145.998 680.244 145.403 680.619C144.813 680.994 144.123 681.182 143.335 681.182ZM143.335 679.977C143.934 679.977 144.426 679.824 144.812 679.517C145.199 679.21 145.485 678.807 145.67 678.307C145.856 677.807 145.949 677.265 145.949 676.682C145.949 676.098 145.856 675.555 145.67 675.051C145.485 674.547 145.199 674.14 144.812 673.83C144.426 673.519 143.934 673.364 143.335 673.364C142.737 673.364 142.244 673.519 141.858 673.83C141.472 674.14 141.186 674.547 141 675.051C140.814 675.555 140.722 676.098 140.722 676.682C140.722 677.265 140.814 677.807 141 678.307C141.186 678.807 141.472 679.21 141.858 679.517C142.244 679.824 142.737 679.977 143.335 679.977ZM155.518 674.227L154.314 674.568C154.238 674.367 154.126 674.172 153.979 673.983C153.835 673.79 153.638 673.631 153.388 673.506C153.138 673.381 152.818 673.318 152.428 673.318C151.893 673.318 151.448 673.441 151.092 673.688C150.74 673.93 150.564 674.239 150.564 674.614C150.564 674.947 150.685 675.21 150.928 675.403C151.17 675.597 151.549 675.758 152.064 675.886L153.359 676.205C154.14 676.394 154.721 676.684 155.104 677.074C155.486 677.46 155.678 677.958 155.678 678.568C155.678 679.068 155.534 679.515 155.246 679.909C154.962 680.303 154.564 680.614 154.053 680.841C153.541 681.068 152.946 681.182 152.268 681.182C151.378 681.182 150.642 680.989 150.058 680.602C149.475 680.216 149.106 679.652 148.95 678.909L150.223 678.591C150.344 679.061 150.573 679.413 150.911 679.648C151.251 679.883 151.696 680 152.246 680C152.871 680 153.367 679.867 153.734 679.602C154.106 679.333 154.291 679.011 154.291 678.636C154.291 678.333 154.185 678.08 153.973 677.875C153.761 677.667 153.435 677.511 152.996 677.409L151.541 677.068C150.742 676.879 150.155 676.585 149.78 676.188C149.409 675.786 149.223 675.284 149.223 674.682C149.223 674.189 149.361 673.754 149.638 673.375C149.918 672.996 150.299 672.699 150.78 672.483C151.265 672.267 151.814 672.159 152.428 672.159C153.291 672.159 153.969 672.348 154.462 672.727C154.958 673.106 155.31 673.606 155.518 674.227Z" fill="white"/>
<path d="M45 658C45 653.582 48.5817 650 53 650H159.683C164.102 650 167.683 653.582 167.683 658V692C167.683 696.418 164.102 700 159.683 700H53C48.5817 700 45 696.418 45 692V658Z" fill="#2D2828"/>
<path d="M235.317 658C235.317 653.582 239.072 650 243.705 650H349.611C354.244 650 358 653.582 358 658V692C358 696.418 354.244 700 349.611 700H243.705C239.072 700 235.317 696.418 235.317 692V658Z" fill="#2D2828"/>
<path d="M247.409 681V669.364H254.432V670.614H248.818V674.545H254.068V675.795H248.818V679.75H254.523V681H247.409ZM258.131 675.75V681H256.79V672.273H258.085V673.636H258.199C258.403 673.193 258.714 672.837 259.131 672.568C259.547 672.295 260.085 672.159 260.744 672.159C261.335 672.159 261.852 672.28 262.295 672.523C262.739 672.761 263.083 673.125 263.33 673.614C263.576 674.098 263.699 674.712 263.699 675.455V681H262.358V675.545C262.358 674.86 262.18 674.326 261.824 673.943C261.468 673.557 260.979 673.364 260.358 673.364C259.93 673.364 259.547 673.456 259.21 673.642C258.877 673.828 258.614 674.098 258.42 674.455C258.227 674.811 258.131 675.242 258.131 675.75ZM272.973 672.273L269.746 681H268.382L265.155 672.273H266.609L269.018 679.227H269.109L271.518 672.273H272.973ZM274.743 681V672.273H276.084V681H274.743ZM275.425 670.818C275.163 670.818 274.938 670.729 274.749 670.551C274.563 670.373 274.47 670.159 274.47 669.909C274.47 669.659 274.563 669.445 274.749 669.267C274.938 669.089 275.163 669 275.425 669C275.686 669 275.91 669.089 276.095 669.267C276.285 669.445 276.379 669.659 276.379 669.909C276.379 670.159 276.285 670.373 276.095 670.551C275.91 670.729 275.686 670.818 275.425 670.818ZM281.108 681.205C280.555 681.205 280.053 681.1 279.602 680.892C279.152 680.68 278.794 680.375 278.528 679.977C278.263 679.576 278.131 679.091 278.131 678.523C278.131 678.023 278.229 677.617 278.426 677.307C278.623 676.992 278.886 676.746 279.216 676.568C279.545 676.39 279.909 676.258 280.307 676.17C280.708 676.08 281.112 676.008 281.517 675.955C282.047 675.886 282.477 675.835 282.807 675.801C283.14 675.763 283.383 675.701 283.534 675.614C283.689 675.527 283.767 675.375 283.767 675.159V675.114C283.767 674.553 283.614 674.117 283.307 673.807C283.004 673.496 282.544 673.341 281.926 673.341C281.286 673.341 280.784 673.481 280.42 673.761C280.057 674.042 279.801 674.341 279.653 674.659L278.381 674.205C278.608 673.674 278.911 673.261 279.29 672.966C279.672 672.667 280.089 672.458 280.54 672.341C280.994 672.22 281.441 672.159 281.881 672.159C282.161 672.159 282.483 672.193 282.847 672.261C283.214 672.326 283.568 672.46 283.909 672.665C284.254 672.869 284.54 673.178 284.767 673.591C284.994 674.004 285.108 674.557 285.108 675.25V681H283.767V679.818H283.699C283.608 680.008 283.456 680.21 283.244 680.426C283.032 680.642 282.75 680.826 282.398 680.977C282.045 681.129 281.616 681.205 281.108 681.205ZM281.312 680C281.843 680 282.29 679.896 282.653 679.688C283.021 679.479 283.297 679.21 283.483 678.881C283.672 678.551 283.767 678.205 283.767 677.841V676.614C283.71 676.682 283.585 676.744 283.392 676.801C283.203 676.854 282.983 676.902 282.733 676.943C282.487 676.981 282.246 677.015 282.011 677.045C281.78 677.072 281.593 677.095 281.449 677.114C281.1 677.159 280.775 677.233 280.472 677.335C280.172 677.434 279.93 677.583 279.744 677.784C279.563 677.981 279.472 678.25 279.472 678.591C279.472 679.057 279.644 679.409 279.989 679.648C280.337 679.883 280.778 680 281.312 680ZM287.555 681V672.273H288.851V673.591H288.942C289.101 673.159 289.389 672.809 289.805 672.54C290.222 672.271 290.692 672.136 291.214 672.136C291.313 672.136 291.436 672.138 291.584 672.142C291.732 672.146 291.843 672.152 291.919 672.159V673.523C291.874 673.511 291.769 673.494 291.607 673.472C291.447 673.445 291.279 673.432 291.101 673.432C290.677 673.432 290.298 673.521 289.964 673.699C289.635 673.873 289.374 674.116 289.18 674.426C288.991 674.733 288.896 675.083 288.896 675.477V681H287.555ZM298.668 681H297.19L301.463 669.364H302.918L307.19 681H305.713L302.236 671.205H302.145L298.668 681ZM299.213 676.455H305.168V677.705H299.213V676.455ZM308.821 681V672.273H310.116V673.591H310.207C310.366 673.159 310.654 672.809 311.071 672.54C311.488 672.271 311.957 672.136 312.48 672.136C312.579 672.136 312.702 672.138 312.849 672.142C312.997 672.146 313.109 672.152 313.185 672.159V673.523C313.139 673.511 313.035 673.494 312.872 673.472C312.713 673.445 312.545 673.432 312.366 673.432C311.942 673.432 311.563 673.521 311.23 673.699C310.901 673.873 310.639 674.116 310.446 674.426C310.257 674.733 310.162 675.083 310.162 675.477V681H308.821ZM320.463 684.273V679.659H320.349C320.251 679.818 320.111 680.019 319.929 680.261C319.747 680.5 319.488 680.714 319.151 680.903C318.813 681.089 318.365 681.182 317.804 681.182C317.077 681.182 316.435 680.998 315.878 680.631C315.321 680.259 314.885 679.737 314.571 679.062C314.257 678.384 314.099 677.583 314.099 676.659C314.099 675.742 314.257 674.947 314.571 674.273C314.885 673.598 315.323 673.078 315.884 672.71C316.444 672.343 317.092 672.159 317.827 672.159C318.395 672.159 318.844 672.254 319.173 672.443C319.507 672.629 319.76 672.841 319.935 673.08C320.113 673.314 320.251 673.508 320.349 673.659H320.509V672.273H321.804V684.273H320.463ZM317.986 679.977C318.524 679.977 318.978 679.837 319.349 679.557C319.721 679.273 320.003 678.881 320.196 678.381C320.389 677.877 320.486 677.295 320.486 676.636C320.486 675.985 320.391 675.415 320.202 674.926C320.012 674.434 319.732 674.051 319.361 673.778C318.99 673.502 318.531 673.364 317.986 673.364C317.418 673.364 316.944 673.509 316.565 673.801C316.19 674.089 315.908 674.481 315.719 674.977C315.533 675.47 315.44 676.023 315.44 676.636C315.44 677.258 315.535 677.822 315.724 678.33C315.918 678.833 316.202 679.235 316.577 679.534C316.955 679.83 317.425 679.977 317.986 679.977ZM329.759 677.432V672.273H331.099V681H329.759V679.523H329.668C329.463 679.966 329.145 680.343 328.713 680.653C328.281 680.96 327.736 681.114 327.077 681.114C326.531 681.114 326.046 680.994 325.622 680.756C325.198 680.513 324.865 680.15 324.622 679.665C324.38 679.176 324.259 678.561 324.259 677.818V672.273H325.599V677.727C325.599 678.364 325.777 678.871 326.134 679.25C326.493 679.629 326.952 679.818 327.509 679.818C327.842 679.818 328.181 679.733 328.526 679.562C328.874 679.392 329.166 679.131 329.401 678.778C329.639 678.426 329.759 677.977 329.759 677.432ZM333.555 681V672.273H334.896V681H333.555ZM334.237 670.818C333.976 670.818 333.75 670.729 333.561 670.551C333.375 670.373 333.283 670.159 333.283 669.909C333.283 669.659 333.375 669.445 333.561 669.267C333.75 669.089 333.976 669 334.237 669C334.499 669 334.722 669.089 334.908 669.267C335.097 669.445 335.192 669.659 335.192 669.909C335.192 670.159 335.097 670.373 334.908 670.551C334.722 670.729 334.499 670.818 334.237 670.818ZM344.489 672.273L341.261 681H339.898L336.67 672.273H338.125L340.534 679.227H340.625L343.034 672.273H344.489ZM349.491 681.182C348.704 681.182 348.012 680.994 347.418 680.619C346.827 680.244 346.365 679.72 346.031 679.045C345.702 678.371 345.537 677.583 345.537 676.682C345.537 675.773 345.702 674.979 346.031 674.301C346.365 673.623 346.827 673.097 347.418 672.722C348.012 672.347 348.704 672.159 349.491 672.159C350.279 672.159 350.969 672.347 351.56 672.722C352.154 673.097 352.616 673.623 352.946 674.301C353.279 674.979 353.446 675.773 353.446 676.682C353.446 677.583 353.279 678.371 352.946 679.045C352.616 679.72 352.154 680.244 351.56 680.619C350.969 680.994 350.279 681.182 349.491 681.182ZM349.491 679.977C350.09 679.977 350.582 679.824 350.969 679.517C351.355 679.21 351.641 678.807 351.827 678.307C352.012 677.807 352.105 677.265 352.105 676.682C352.105 676.098 352.012 675.555 351.827 675.051C351.641 674.547 351.355 674.14 350.969 673.83C350.582 673.519 350.09 673.364 349.491 673.364C348.893 673.364 348.401 673.519 348.014 673.83C347.628 674.14 347.342 674.547 347.156 675.051C346.971 675.555 346.878 676.098 346.878 676.682C346.878 677.265 346.971 677.807 347.156 678.307C347.342 678.807 347.628 679.21 348.014 679.517C348.401 679.824 348.893 679.977 349.491 679.977Z" fill="white"/>
<path d="M51.4091 669.364H53.0909L57.0455 679.023H57.1818L61.1364 669.364H62.8182V681H61.5V672.159H61.3864L57.75 681H56.4773L52.8409 672.159H52.7273V681H51.4091V669.364ZM69.1207 681.182C68.2798 681.182 67.5545 680.996 66.9446 680.625C66.3385 680.25 65.8707 679.727 65.5412 679.057C65.2154 678.383 65.0526 677.598 65.0526 676.705C65.0526 675.811 65.2154 675.023 65.5412 674.341C65.8707 673.655 66.3291 673.121 66.9162 672.739C67.5071 672.352 68.1965 672.159 68.9844 672.159C69.4389 672.159 69.8878 672.235 70.331 672.386C70.7741 672.538 71.1776 672.784 71.5412 673.125C71.9048 673.462 72.1946 673.909 72.4105 674.466C72.6264 675.023 72.7344 675.708 72.7344 676.523V677.091H66.0071V675.932H71.3707C71.3707 675.439 71.2723 675 71.0753 674.614C70.8821 674.227 70.6056 673.922 70.2457 673.699C69.8897 673.475 69.4692 673.364 68.9844 673.364C68.4503 673.364 67.9882 673.496 67.598 673.761C67.2116 674.023 66.9143 674.364 66.706 674.784C66.4976 675.205 66.3935 675.655 66.3935 676.136V676.909C66.3935 677.568 66.5071 678.127 66.7344 678.585C66.9654 679.04 67.2855 679.386 67.6946 679.625C68.1037 679.86 68.5791 679.977 69.1207 679.977C69.473 679.977 69.7912 679.928 70.0753 679.83C70.3632 679.727 70.6113 679.576 70.8196 679.375C71.0279 679.17 71.1889 678.917 71.3026 678.614L72.598 678.977C72.4616 679.417 72.2325 679.803 71.9105 680.136C71.5885 680.466 71.1908 680.723 70.7173 680.909C70.2438 681.091 69.7116 681.182 69.1207 681.182ZM80.2741 677.432V672.273H81.6151V681H80.2741V679.523H80.1832C79.9787 679.966 79.6605 680.343 79.2287 680.653C78.7969 680.96 78.2514 681.114 77.5923 681.114C77.0469 681.114 76.562 680.994 76.1378 680.756C75.7135 680.513 75.3802 680.15 75.1378 679.665C74.8954 679.176 74.7741 678.561 74.7741 677.818V672.273H76.1151V677.727C76.1151 678.364 76.2931 678.871 76.6491 679.25C77.009 679.629 77.4673 679.818 78.0241 679.818C78.3575 679.818 78.6965 679.733 79.0412 679.562C79.3897 679.392 79.6813 679.131 79.9162 678.778C80.1548 678.426 80.2741 677.977 80.2741 677.432ZM90.2528 674.227L89.0483 674.568C88.9725 674.367 88.8608 674.172 88.7131 673.983C88.5691 673.79 88.3722 673.631 88.1222 673.506C87.8722 673.381 87.5521 673.318 87.1619 673.318C86.6278 673.318 86.1828 673.441 85.8267 673.688C85.4744 673.93 85.2983 674.239 85.2983 674.614C85.2983 674.947 85.4195 675.21 85.6619 675.403C85.9044 675.597 86.2831 675.758 86.7983 675.886L88.0938 676.205C88.8741 676.394 89.4555 676.684 89.8381 677.074C90.2206 677.46 90.4119 677.958 90.4119 678.568C90.4119 679.068 90.268 679.515 89.9801 679.909C89.696 680.303 89.2983 680.614 88.7869 680.841C88.2756 681.068 87.6809 681.182 87.0028 681.182C86.1127 681.182 85.3759 680.989 84.7926 680.602C84.2093 680.216 83.84 679.652 83.6847 678.909L84.9574 678.591C85.0786 679.061 85.3078 679.413 85.6449 679.648C85.9858 679.883 86.4309 680 86.9801 680C87.6051 680 88.1013 679.867 88.4688 679.602C88.84 679.333 89.0256 679.011 89.0256 678.636C89.0256 678.333 88.9195 678.08 88.7074 677.875C88.4953 677.667 88.1695 677.511 87.7301 677.409L86.2756 677.068C85.4763 676.879 84.8892 676.585 84.5142 676.188C84.143 675.786 83.9574 675.284 83.9574 674.682C83.9574 674.189 84.0956 673.754 84.3722 673.375C84.6525 672.996 85.0331 672.699 85.5142 672.483C85.9991 672.267 86.5483 672.159 87.1619 672.159C88.0256 672.159 88.7036 672.348 89.196 672.727C89.6922 673.106 90.0445 673.606 90.2528 674.227ZM97.5895 681H96.1122L100.385 669.364H101.839L106.112 681H104.635L101.158 671.205H101.067L97.5895 681ZM98.1349 676.455H104.089V677.705H98.1349V676.455ZM107.743 681V672.273H109.038V673.591H109.129C109.288 673.159 109.576 672.809 109.993 672.54C110.41 672.271 110.879 672.136 111.402 672.136C111.5 672.136 111.624 672.138 111.771 672.142C111.919 672.146 112.031 672.152 112.107 672.159V673.523C112.061 673.511 111.957 673.494 111.794 673.472C111.635 673.445 111.466 673.432 111.288 673.432C110.864 673.432 110.485 673.521 110.152 673.699C109.822 673.873 109.561 674.116 109.368 674.426C109.179 674.733 109.084 675.083 109.084 675.477V681H107.743ZM119.385 684.273V679.659H119.271C119.173 679.818 119.033 680.019 118.851 680.261C118.669 680.5 118.41 680.714 118.072 680.903C117.735 681.089 117.286 681.182 116.726 681.182C115.999 681.182 115.357 680.998 114.8 680.631C114.243 680.259 113.807 679.737 113.493 679.062C113.179 678.384 113.021 677.583 113.021 676.659C113.021 675.742 113.179 674.947 113.493 674.273C113.807 673.598 114.245 673.078 114.805 672.71C115.366 672.343 116.014 672.159 116.749 672.159C117.317 672.159 117.766 672.254 118.095 672.443C118.429 672.629 118.682 672.841 118.857 673.08C119.035 673.314 119.173 673.508 119.271 673.659H119.43V672.273H120.726V684.273H119.385ZM116.908 679.977C117.446 679.977 117.9 679.837 118.271 679.557C118.643 679.273 118.925 678.881 119.118 678.381C119.311 677.877 119.408 677.295 119.408 676.636C119.408 675.985 119.313 675.415 119.124 674.926C118.934 674.434 118.654 674.051 118.283 673.778C117.911 673.502 117.453 673.364 116.908 673.364C116.339 673.364 115.866 673.509 115.487 673.801C115.112 674.089 114.83 674.481 114.641 674.977C114.455 675.47 114.362 676.023 114.362 676.636C114.362 677.258 114.457 677.822 114.646 678.33C114.839 678.833 115.124 679.235 115.499 679.534C115.877 679.83 116.347 679.977 116.908 679.977ZM128.68 677.432V672.273H130.021V681H128.68V679.523H128.589C128.385 679.966 128.067 680.343 127.635 680.653C127.203 680.96 126.658 681.114 125.999 681.114C125.453 681.114 124.968 680.994 124.544 680.756C124.12 680.513 123.786 680.15 123.544 679.665C123.302 679.176 123.18 678.561 123.18 677.818V672.273H124.521V677.727C124.521 678.364 124.699 678.871 125.055 679.25C125.415 679.629 125.874 679.818 126.43 679.818C126.764 679.818 127.103 679.733 127.447 679.562C127.796 679.392 128.088 679.131 128.322 678.778C128.561 678.426 128.68 677.977 128.68 677.432ZM132.477 681V672.273H133.818V681H132.477ZM133.159 670.818C132.898 670.818 132.672 670.729 132.483 670.551C132.297 670.373 132.205 670.159 132.205 669.909C132.205 669.659 132.297 669.445 132.483 669.267C132.672 669.089 132.898 669 133.159 669C133.42 669 133.644 669.089 133.83 669.267C134.019 669.445 134.114 669.659 134.114 669.909C134.114 670.159 134.019 670.373 133.83 670.551C133.644 670.729 133.42 670.818 133.159 670.818ZM143.411 672.273L140.183 681H138.82L135.592 672.273H137.047L139.456 679.227H139.547L141.956 672.273H143.411ZM148.413 681.182C147.625 681.182 146.934 680.994 146.339 680.619C145.749 680.244 145.286 679.72 144.953 679.045C144.624 678.371 144.459 677.583 144.459 676.682C144.459 675.773 144.624 674.979 144.953 674.301C145.286 673.623 145.749 673.097 146.339 672.722C146.934 672.347 147.625 672.159 148.413 672.159C149.201 672.159 149.891 672.347 150.482 672.722C151.076 673.097 151.538 673.623 151.868 674.301C152.201 674.979 152.368 675.773 152.368 676.682C152.368 677.583 152.201 678.371 151.868 679.045C151.538 679.72 151.076 680.244 150.482 680.619C149.891 680.994 149.201 681.182 148.413 681.182ZM148.413 679.977C149.012 679.977 149.504 679.824 149.891 679.517C150.277 679.21 150.563 678.807 150.749 678.307C150.934 677.807 151.027 677.265 151.027 676.682C151.027 676.098 150.934 675.555 150.749 675.051C150.563 674.547 150.277 674.14 149.891 673.83C149.504 673.519 149.012 673.364 148.413 673.364C147.815 673.364 147.322 673.519 146.936 673.83C146.55 674.14 146.264 674.547 146.078 675.051C145.893 675.555 145.8 676.098 145.8 676.682C145.8 677.265 145.893 677.807 146.078 678.307C146.264 678.807 146.55 679.21 146.936 679.517C147.322 679.824 147.815 679.977 148.413 679.977ZM160.597 674.227L159.392 674.568C159.316 674.367 159.205 674.172 159.057 673.983C158.913 673.79 158.716 673.631 158.466 673.506C158.216 673.381 157.896 673.318 157.506 673.318C156.972 673.318 156.527 673.441 156.17 673.688C155.818 673.93 155.642 674.239 155.642 674.614C155.642 674.947 155.763 675.21 156.006 675.403C156.248 675.597 156.627 675.758 157.142 675.886L158.438 676.205C159.218 676.394 159.799 676.684 160.182 677.074C160.564 677.46 160.756 677.958 160.756 678.568C160.756 679.068 160.612 679.515 160.324 679.909C160.04 680.303 159.642 680.614 159.131 680.841C158.619 681.068 158.025 681.182 157.347 681.182C156.456 681.182 155.72 680.989 155.136 680.602C154.553 680.216 154.184 679.652 154.028 678.909L155.301 678.591C155.422 679.061 155.652 679.413 155.989 679.648C156.33 679.883 156.775 680 157.324 680C157.949 680 158.445 679.867 158.812 679.602C159.184 679.333 159.369 679.011 159.369 678.636C159.369 678.333 159.263 678.08 159.051 677.875C158.839 677.667 158.513 677.511 158.074 677.409L156.619 677.068C155.82 676.879 155.233 676.585 154.858 676.188C154.487 675.786 154.301 675.284 154.301 674.682C154.301 674.189 154.439 673.754 154.716 673.375C154.996 672.996 155.377 672.699 155.858 672.483C156.343 672.267 156.892 672.159 157.506 672.159C158.369 672.159 159.047 672.348 159.54 672.727C160.036 673.106 160.388 673.606 160.597 674.227Z" fill="white"/>
</svg>
