<svg width="400" height="700" viewBox="0 0 400 700" fill="none" xmlns="http://www.w3.org/2000/svg">
<path d="M400 0H0V700H400V0Z" fill="#1B0B26"/>
<path d="M51.0568 316V307.273H54.0057C54.6903 307.273 55.25 307.396 55.6847 307.643C56.1222 307.888 56.446 308.219 56.6562 308.636C56.8665 309.054 56.9716 309.52 56.9716 310.034C56.9716 310.548 56.8665 311.016 56.6562 311.436C56.4489 311.857 56.1278 312.192 55.6932 312.442C55.2585 312.689 54.7017 312.812 54.0227 312.812H51.9091V311.875H53.9886C54.4574 311.875 54.8338 311.794 55.1179 311.632C55.402 311.47 55.608 311.251 55.7358 310.976C55.8665 310.697 55.9318 310.384 55.9318 310.034C55.9318 309.685 55.8665 309.372 55.7358 309.097C55.608 308.821 55.4006 308.605 55.1136 308.449C54.8267 308.29 54.446 308.21 53.9716 308.21H52.1136V316H51.0568ZM58.5376 316V309.455H59.5092V310.443H59.5774C59.6967 310.119 59.9126 309.857 60.2251 309.655C60.5376 309.453 60.8899 309.352 61.282 309.352C61.3558 309.352 61.4482 309.354 61.5589 309.357C61.6697 309.359 61.7536 309.364 61.8104 309.369V310.392C61.7763 310.384 61.6982 310.371 61.576 310.354C61.4567 310.334 61.3303 310.324 61.1967 310.324C60.8786 310.324 60.5945 310.391 60.3445 310.524C60.0973 310.655 59.9013 310.837 59.7564 311.07C59.6143 311.3 59.5433 311.562 59.5433 311.858V316H58.5376ZM65.5476 316.136C64.9169 316.136 64.3729 315.997 63.9155 315.719C63.4609 315.438 63.1101 315.045 62.8629 314.543C62.6186 314.037 62.4964 313.449 62.4964 312.778C62.4964 312.108 62.6186 311.517 62.8629 311.006C63.1101 310.491 63.4538 310.091 63.8942 309.804C64.3374 309.514 64.8544 309.369 65.4453 309.369C65.7862 309.369 66.1229 309.426 66.4553 309.54C66.7876 309.653 67.0902 309.838 67.3629 310.094C67.6357 310.347 67.853 310.682 68.0149 311.099C68.1768 311.517 68.2578 312.031 68.2578 312.642V313.068H63.2124V312.199H67.2351C67.2351 311.83 67.1612 311.5 67.0135 311.21C66.8686 310.92 66.6612 310.692 66.3913 310.524C66.1243 310.357 65.8089 310.273 65.4453 310.273C65.0447 310.273 64.6982 310.372 64.4055 310.571C64.1158 310.767 63.8928 311.023 63.7365 311.338C63.5803 311.653 63.5021 311.991 63.5021 312.352V312.932C63.5021 313.426 63.5874 313.845 63.7578 314.189C63.9311 314.53 64.1712 314.79 64.478 314.969C64.7848 315.145 65.1413 315.233 65.5476 315.233C65.8118 315.233 66.0504 315.196 66.2635 315.122C66.4794 315.045 66.6655 314.932 66.8217 314.781C66.978 314.628 67.0987 314.437 67.1839 314.21L68.1555 314.483C68.0533 314.812 67.8814 315.102 67.6399 315.352C67.3984 315.599 67.1001 315.793 66.745 315.932C66.3899 316.068 65.9908 316.136 65.5476 316.136ZM64.9339 308.568L65.9737 306.591H67.1499L65.8203 308.568H64.9339ZM73.657 307.273L76.2479 314.619H76.3501L78.9411 307.273H80.049L76.8445 316H75.7536L72.549 307.273H73.657ZM81.272 316V309.455H82.2777V316H81.272ZM81.7834 308.364C81.5874 308.364 81.4183 308.297 81.2763 308.163C81.1371 308.03 81.0675 307.869 81.0675 307.682C81.0675 307.494 81.1371 307.334 81.2763 307.2C81.4183 307.067 81.5874 307 81.7834 307C81.9794 307 82.147 307.067 82.2862 307.2C82.4283 307.334 82.4993 307.494 82.4993 307.682C82.4993 307.869 82.4283 308.03 82.2862 308.163C82.147 308.297 81.9794 308.364 81.7834 308.364ZM88.756 310.92L87.8526 311.176C87.7958 311.026 87.712 310.879 87.6012 310.737C87.4933 310.592 87.3455 310.473 87.158 310.379C86.9705 310.286 86.7305 310.239 86.4379 310.239C86.0373 310.239 85.7035 310.331 85.4364 310.516C85.1722 310.697 85.0401 310.929 85.0401 311.21C85.0401 311.46 85.131 311.658 85.3129 311.803C85.4947 311.947 85.7788 312.068 86.1651 312.165L87.1367 312.403C87.7219 312.545 88.158 312.763 88.445 313.055C88.7319 313.345 88.8754 313.719 88.8754 314.176C88.8754 314.551 88.7674 314.886 88.5515 315.182C88.3384 315.477 88.0401 315.71 87.6566 315.881C87.2731 316.051 86.8271 316.136 86.3185 316.136C85.6509 316.136 85.0984 315.991 84.6609 315.702C84.2234 315.412 83.9464 314.989 83.8299 314.432L84.7844 314.193C84.8754 314.545 85.0472 314.81 85.3001 314.986C85.5558 315.162 85.8896 315.25 86.3015 315.25C86.7702 315.25 87.1424 315.151 87.418 314.952C87.6964 314.75 87.8356 314.509 87.8356 314.227C87.8356 314 87.756 313.81 87.5969 313.656C87.4379 313.5 87.1935 313.384 86.864 313.307L85.7731 313.051C85.1737 312.909 84.7333 312.689 84.4521 312.391C84.1737 312.089 84.0344 311.713 84.0344 311.261C84.0344 310.892 84.1381 310.565 84.3455 310.281C84.5558 309.997 84.8413 309.774 85.2021 309.612C85.5657 309.45 85.9776 309.369 86.4379 309.369C87.0856 309.369 87.5941 309.511 87.9634 309.795C88.3356 310.08 88.5998 310.455 88.756 310.92ZM94.5142 313.324V309.455H95.5199V316H94.5142V314.892H94.446C94.2926 315.224 94.054 315.507 93.7301 315.74C93.4063 315.97 92.9972 316.085 92.5028 316.085C92.0938 316.085 91.7301 315.996 91.4119 315.817C91.0938 315.635 90.8438 315.362 90.6619 314.999C90.4801 314.632 90.3892 314.17 90.3892 313.614V309.455H91.3949V313.545C91.3949 314.023 91.5284 314.403 91.7955 314.688C92.0653 314.972 92.4091 315.114 92.8267 315.114C93.0767 315.114 93.331 315.05 93.5895 314.922C93.8509 314.794 94.0696 314.598 94.2457 314.334C94.4247 314.07 94.5142 313.733 94.5142 313.324ZM99.288 316.153C98.8732 316.153 98.4968 316.075 98.1587 315.919C97.8207 315.76 97.5522 315.531 97.3533 315.233C97.1545 314.932 97.055 314.568 97.055 314.142C97.055 313.767 97.1289 313.463 97.2766 313.23C97.4244 312.994 97.6218 312.81 97.869 312.676C98.1161 312.543 98.3888 312.443 98.6871 312.378C98.9883 312.31 99.2908 312.256 99.5948 312.216C99.9925 312.165 100.315 312.126 100.562 312.101C100.812 312.072 100.994 312.026 101.108 311.96C101.224 311.895 101.282 311.781 101.282 311.619V311.585C101.282 311.165 101.167 310.838 100.937 310.605C100.71 310.372 100.365 310.256 99.9016 310.256C99.4215 310.256 99.0451 310.361 98.7724 310.571C98.4996 310.781 98.3079 311.006 98.1971 311.244L97.2425 310.903C97.413 310.506 97.6403 310.196 97.9244 309.974C98.2113 309.75 98.5238 309.594 98.8619 309.506C99.2028 309.415 99.538 309.369 99.8675 309.369C100.078 309.369 100.319 309.395 100.592 309.446C100.868 309.494 101.133 309.595 101.389 309.749C101.647 309.902 101.862 310.134 102.032 310.443C102.203 310.753 102.288 311.168 102.288 311.688V316H101.282V315.114H101.231C101.163 315.256 101.049 315.408 100.89 315.57C100.731 315.732 100.52 315.869 100.255 315.983C99.9911 316.097 99.6687 316.153 99.288 316.153ZM99.4414 315.25C99.8391 315.25 100.174 315.172 100.447 315.016C100.723 314.859 100.93 314.658 101.069 314.411C101.211 314.163 101.282 313.903 101.282 313.631V312.71C101.24 312.761 101.146 312.808 101.001 312.851C100.859 312.891 100.694 312.926 100.507 312.957C100.322 312.986 100.142 313.011 99.9656 313.034C99.7923 313.054 99.6516 313.071 99.5437 313.085C99.2823 313.119 99.038 313.175 98.8107 313.251C98.5863 313.325 98.4045 313.437 98.2653 313.588C98.1289 313.736 98.0607 313.937 98.0607 314.193C98.0607 314.543 98.19 314.807 98.4485 314.986C98.7099 315.162 99.0408 315.25 99.4414 315.25ZM105.129 307.273V316H104.124V307.273H105.129ZM106.971 316V309.455H107.977V316H106.971ZM107.483 308.364C107.287 308.364 107.118 308.297 106.975 308.163C106.836 308.03 106.767 307.869 106.767 307.682C106.767 307.494 106.836 307.334 106.975 307.2C107.118 307.067 107.287 307 107.483 307C107.679 307 107.846 307.067 107.985 307.2C108.127 307.334 108.199 307.494 108.199 307.682C108.199 307.869 108.127 308.03 107.985 308.163C107.846 308.297 107.679 308.364 107.483 308.364ZM109.631 316V315.233L113.347 310.46V310.392H109.751V309.455H114.643V310.256L111.029 314.994V315.062H114.762V316H109.631ZM118.237 316.153C117.822 316.153 117.446 316.075 117.108 315.919C116.77 315.76 116.501 315.531 116.303 315.233C116.104 314.932 116.004 314.568 116.004 314.142C116.004 313.767 116.078 313.463 116.226 313.23C116.374 312.994 116.571 312.81 116.818 312.676C117.065 312.543 117.338 312.443 117.636 312.378C117.938 312.31 118.24 312.256 118.544 312.216C118.942 312.165 119.264 312.126 119.511 312.101C119.761 312.072 119.943 312.026 120.057 311.96C120.173 311.895 120.232 311.781 120.232 311.619V311.585C120.232 311.165 120.116 310.838 119.886 310.605C119.659 310.372 119.314 310.256 118.851 310.256C118.371 310.256 117.994 310.361 117.722 310.571C117.449 310.781 117.257 311.006 117.146 311.244L116.192 310.903C116.362 310.506 116.589 310.196 116.874 309.974C117.161 309.75 117.473 309.594 117.811 309.506C118.152 309.415 118.487 309.369 118.817 309.369C119.027 309.369 119.268 309.395 119.541 309.446C119.817 309.494 120.082 309.595 120.338 309.749C120.597 309.902 120.811 310.134 120.982 310.443C121.152 310.753 121.237 311.168 121.237 311.688V316H120.232V315.114H120.18C120.112 315.256 119.999 315.408 119.839 315.57C119.68 315.732 119.469 315.869 119.205 315.983C118.94 316.097 118.618 316.153 118.237 316.153ZM118.391 315.25C118.788 315.25 119.124 315.172 119.396 315.016C119.672 314.859 119.879 314.658 120.018 314.411C120.161 314.163 120.232 313.903 120.232 313.631V312.71C120.189 312.761 120.095 312.808 119.95 312.851C119.808 312.891 119.643 312.926 119.456 312.957C119.271 312.986 119.091 313.011 118.915 313.034C118.741 313.054 118.601 313.071 118.493 313.085C118.232 313.119 117.987 313.175 117.76 313.251C117.536 313.325 117.354 313.437 117.214 313.588C117.078 313.736 117.01 313.937 117.01 314.193C117.01 314.543 117.139 314.807 117.398 314.986C117.659 315.162 117.99 315.25 118.391 315.25ZM123.073 316V309.455H124.044V310.443H124.113C124.232 310.119 124.448 309.857 124.76 309.655C125.073 309.453 125.425 309.352 125.817 309.352C125.891 309.352 125.983 309.354 126.094 309.357C126.205 309.359 126.289 309.364 126.346 309.369V310.392C126.311 310.384 126.233 310.371 126.111 310.354C125.992 310.334 125.865 310.324 125.732 310.324C125.414 310.324 125.13 310.391 124.88 310.524C124.632 310.655 124.436 310.837 124.292 311.07C124.15 311.3 124.078 311.562 124.078 311.858V316H123.073ZM131.407 316H130.299L133.504 307.273H134.594L137.799 316H136.691L134.083 308.653H134.015L131.407 316ZM131.816 312.591H136.282V313.528H131.816V312.591ZM139.022 316V309.455H139.994V310.443H140.062C140.181 310.119 140.397 309.857 140.71 309.655C141.022 309.453 141.374 309.352 141.766 309.352C141.84 309.352 141.933 309.354 142.043 309.357C142.154 309.359 142.238 309.364 142.295 309.369V310.392C142.261 310.384 142.183 310.371 142.06 310.354C141.941 310.334 141.815 310.324 141.681 310.324C141.363 310.324 141.079 310.391 140.829 310.524C140.582 310.655 140.386 310.837 140.241 311.07C140.099 311.3 140.028 311.562 140.028 311.858V316H139.022ZM147.754 318.455V314.994H147.668C147.594 315.114 147.489 315.264 147.353 315.446C147.217 315.625 147.022 315.786 146.769 315.928C146.516 316.067 146.18 316.136 145.759 316.136C145.214 316.136 144.732 315.999 144.315 315.723C143.897 315.445 143.57 315.053 143.335 314.547C143.099 314.038 142.981 313.438 142.981 312.744C142.981 312.057 143.099 311.46 143.335 310.955C143.57 310.449 143.898 310.058 144.319 309.783C144.739 309.507 145.225 309.369 145.776 309.369C146.202 309.369 146.539 309.44 146.786 309.582C147.036 309.722 147.227 309.881 147.357 310.06C147.491 310.236 147.594 310.381 147.668 310.494H147.788V309.455H148.759V318.455H147.754ZM145.896 315.233C146.299 315.233 146.64 315.128 146.918 314.918C147.197 314.705 147.408 314.411 147.553 314.036C147.698 313.658 147.771 313.222 147.771 312.727C147.771 312.239 147.7 311.811 147.558 311.445C147.415 311.075 147.205 310.788 146.927 310.584C146.648 310.376 146.305 310.273 145.896 310.273C145.469 310.273 145.114 310.382 144.83 310.601C144.549 310.817 144.337 311.111 144.195 311.483C144.056 311.852 143.987 312.267 143.987 312.727C143.987 313.193 144.058 313.616 144.2 313.997C144.344 314.375 144.558 314.676 144.839 314.901C145.123 315.122 145.475 315.233 145.896 315.233ZM154.725 313.324V309.455H155.731V316H154.725V314.892H154.657C154.504 315.224 154.265 315.507 153.941 315.74C153.617 315.97 153.208 316.085 152.714 316.085C152.305 316.085 151.941 315.996 151.623 315.817C151.305 315.635 151.055 315.362 150.873 314.999C150.691 314.632 150.6 314.17 150.6 313.614V309.455H151.606V313.545C151.606 314.023 151.739 314.403 152.006 314.688C152.276 314.972 152.62 315.114 153.038 315.114C153.288 315.114 153.542 315.05 153.8 314.922C154.062 314.794 154.281 314.598 154.457 314.334C154.636 314.07 154.725 313.733 154.725 313.324ZM157.573 316V309.455H158.578V316H157.573ZM158.084 308.364C157.888 308.364 157.719 308.297 157.577 308.163C157.438 308.03 157.368 307.869 157.368 307.682C157.368 307.494 157.438 307.334 157.577 307.2C157.719 307.067 157.888 307 158.084 307C158.28 307 158.448 307.067 158.587 307.2C158.729 307.334 158.8 307.494 158.8 307.682C158.8 307.869 158.729 308.03 158.587 308.163C158.448 308.297 158.28 308.364 158.084 308.364ZM165.773 309.455L163.352 316H162.33L159.909 309.455H161L162.807 314.67H162.875L164.682 309.455H165.773ZM169.525 316.136C168.934 316.136 168.415 315.996 167.969 315.714C167.526 315.433 167.18 315.04 166.93 314.534C166.683 314.028 166.559 313.437 166.559 312.761C166.559 312.08 166.683 311.484 166.93 310.976C167.18 310.467 167.526 310.072 167.969 309.791C168.415 309.51 168.934 309.369 169.525 309.369C170.116 309.369 170.633 309.51 171.076 309.791C171.522 310.072 171.869 310.467 172.116 310.976C172.366 311.484 172.491 312.08 172.491 312.761C172.491 313.437 172.366 314.028 172.116 314.534C171.869 315.04 171.522 315.433 171.076 315.714C170.633 315.996 170.116 316.136 169.525 316.136ZM169.525 315.233C169.974 315.233 170.343 315.118 170.633 314.888C170.923 314.658 171.137 314.355 171.276 313.98C171.415 313.605 171.485 313.199 171.485 312.761C171.485 312.324 171.415 311.916 171.276 311.538C171.137 311.161 170.923 310.855 170.633 310.622C170.343 310.389 169.974 310.273 169.525 310.273C169.076 310.273 168.707 310.389 168.417 310.622C168.127 310.855 167.913 311.161 167.773 311.538C167.634 311.916 167.565 312.324 167.565 312.761C167.565 313.199 167.634 313.605 167.773 313.98C167.913 314.355 168.127 314.658 168.417 314.888C168.707 315.118 169.076 315.233 169.525 315.233Z" fill="white"/>
<path d="M400 0H0V50H400V0Z" fill="#222222"/>
<path d="M400 0H0V50H400V0Z" fill="#1E1A21"/>
<path d="M280 8C280 3.58172 283.582 0 288 0H392C396.418 0 400 3.58172 400 8V42C400 46.4183 396.418 50 392 50H288C283.582 50 280 46.4183 280 42V8Z" fill="#2D2828"/>
<path d="M280 8C280 3.58172 283.582 0 288 0H392C396.418 0 400 3.58172 400 8V42C400 46.4183 396.418 50 392 50H288C283.582 50 280 46.4183 280 42V8Z" fill="#2D2828"/>
<path d="M316.227 25.1818C316.227 26.4091 316.006 27.4697 315.562 28.3636C315.119 29.2576 314.511 29.947 313.739 30.4318C312.966 30.9167 312.083 31.1591 311.091 31.1591C310.098 31.1591 309.216 30.9167 308.443 30.4318C307.67 29.947 307.063 29.2576 306.619 28.3636C306.176 27.4697 305.955 26.4091 305.955 25.1818C305.955 23.9545 306.176 22.8939 306.619 22C307.063 21.1061 307.67 20.4167 308.443 19.9318C309.216 19.447 310.098 19.2045 311.091 19.2045C312.083 19.2045 312.966 19.447 313.739 19.9318C314.511 20.4167 315.119 21.1061 315.562 22C316.006 22.8939 316.227 23.9545 316.227 25.1818ZM314.864 25.1818C314.864 24.1742 314.695 23.3239 314.358 22.6307C314.025 21.9375 313.572 21.4129 313 21.0568C312.432 20.7008 311.795 20.5227 311.091 20.5227C310.386 20.5227 309.748 20.7008 309.176 21.0568C308.608 21.4129 308.155 21.9375 307.818 22.6307C307.485 23.3239 307.318 24.1742 307.318 25.1818C307.318 26.1894 307.485 27.0398 307.818 27.733C308.155 28.4261 308.608 28.9508 309.176 29.3068C309.748 29.6629 310.386 29.8409 311.091 29.8409C311.795 29.8409 312.432 29.6629 313 29.3068C313.572 28.9508 314.025 28.4261 314.358 27.733C314.695 27.0398 314.864 26.1894 314.864 25.1818ZM319.756 19.3636V31H318.415V19.3636H319.756ZM324.78 31.2045C324.227 31.2045 323.725 31.1004 323.274 30.892C322.823 30.6799 322.465 30.375 322.2 29.9773C321.935 29.5758 321.803 29.0909 321.803 28.5227C321.803 28.0227 321.901 27.6174 322.098 27.3068C322.295 26.9924 322.558 26.7462 322.888 26.5682C323.217 26.3902 323.581 26.2576 323.979 26.1705C324.38 26.0795 324.784 26.0076 325.189 25.9545C325.719 25.8864 326.149 25.8352 326.479 25.8011C326.812 25.7633 327.054 25.7008 327.206 25.6136C327.361 25.5265 327.439 25.375 327.439 25.1591V25.1136C327.439 24.553 327.286 24.1174 326.979 23.8068C326.676 23.4962 326.215 23.3409 325.598 23.3409C324.958 23.3409 324.456 23.4811 324.092 23.7614C323.729 24.0417 323.473 24.3409 323.325 24.6591L322.053 24.2045C322.28 23.6742 322.583 23.2614 322.962 22.9659C323.344 22.6667 323.761 22.4583 324.212 22.3409C324.666 22.2197 325.113 22.1591 325.553 22.1591C325.833 22.1591 326.155 22.1932 326.518 22.2614C326.886 22.3258 327.24 22.4602 327.581 22.6648C327.926 22.8693 328.212 23.178 328.439 23.5909C328.666 24.0038 328.78 24.5568 328.78 25.25V31H327.439V29.8182H327.371C327.28 30.0076 327.128 30.2102 326.916 30.4261C326.704 30.642 326.422 30.8258 326.07 30.9773C325.717 31.1288 325.287 31.2045 324.78 31.2045ZM324.984 30C325.515 30 325.962 29.8958 326.325 29.6875C326.693 29.4792 326.969 29.2102 327.155 28.8807C327.344 28.5511 327.439 28.2045 327.439 27.8409V26.6136C327.382 26.6818 327.257 26.7443 327.064 26.8011C326.875 26.8542 326.655 26.9015 326.405 26.9432C326.159 26.9811 325.918 27.0152 325.683 27.0455C325.452 27.072 325.265 27.0947 325.121 27.1136C324.772 27.1591 324.446 27.233 324.143 27.3352C323.844 27.4337 323.602 27.5833 323.416 27.7841C323.234 27.9811 323.143 28.25 323.143 28.5909C323.143 29.0568 323.316 29.4091 323.661 29.6477C324.009 29.8826 324.45 30 324.984 30ZM325.03 21.0909L326.416 18.4545H327.984L326.212 21.0909H325.03ZM333.227 29.4091L333.136 30.0227C333.072 30.4545 332.973 30.9167 332.841 31.4091C332.712 31.9015 332.578 32.3655 332.438 32.8011C332.297 33.2367 332.182 33.5833 332.091 33.8409H331.068C331.117 33.5985 331.182 33.2784 331.261 32.8807C331.341 32.483 331.42 32.0379 331.5 31.5455C331.583 31.0568 331.652 30.5568 331.705 30.0455L331.773 29.4091H333.227ZM340.871 19.3636L344.325 29.1591H344.462L347.916 19.3636H349.393L345.121 31H343.666L339.393 19.3636H340.871ZM351.024 31V22.2727H352.365V31H351.024ZM351.706 20.8182C351.445 20.8182 351.219 20.7292 351.03 20.5511C350.844 20.3731 350.751 20.1591 350.751 19.9091C350.751 19.6591 350.844 19.4451 351.03 19.267C351.219 19.089 351.445 19 351.706 19C351.967 19 352.191 19.089 352.376 19.267C352.566 19.4451 352.661 19.6591 352.661 19.9091C352.661 20.1591 352.566 20.3731 352.376 20.5511C352.191 20.7292 351.967 20.8182 351.706 20.8182ZM358.616 22.2727V23.4091H354.094V22.2727H358.616ZM355.412 20.1818H356.753V28.5C356.753 28.8788 356.808 29.1629 356.918 29.3523C357.031 29.5379 357.175 29.6629 357.349 29.7273C357.527 29.7879 357.715 29.8182 357.912 29.8182C358.06 29.8182 358.181 29.8106 358.276 29.7955C358.37 29.7765 358.446 29.7614 358.503 29.75L358.776 30.9545C358.685 30.9886 358.558 31.0227 358.395 31.0568C358.232 31.0947 358.026 31.1136 357.776 31.1136C357.397 31.1136 357.026 31.0322 356.662 30.8693C356.302 30.7064 356.003 30.4583 355.764 30.125C355.529 29.7917 355.412 29.3712 355.412 28.8636V20.1818ZM364.085 31.1818C363.297 31.1818 362.606 30.9943 362.011 30.6193C361.42 30.2443 360.958 29.7197 360.625 29.0455C360.295 28.3712 360.131 27.5833 360.131 26.6818C360.131 25.7727 360.295 24.9792 360.625 24.3011C360.958 23.6231 361.42 23.0966 362.011 22.7216C362.606 22.3466 363.297 22.1591 364.085 22.1591C364.873 22.1591 365.563 22.3466 366.153 22.7216C366.748 23.0966 367.21 23.6231 367.54 24.3011C367.873 24.9792 368.04 25.7727 368.04 26.6818C368.04 27.5833 367.873 28.3712 367.54 29.0455C367.21 29.7197 366.748 30.2443 366.153 30.6193C365.563 30.9943 364.873 31.1818 364.085 31.1818ZM364.085 29.9773C364.684 29.9773 365.176 29.8239 365.562 29.517C365.949 29.2102 366.235 28.8068 366.42 28.3068C366.606 27.8068 366.699 27.2652 366.699 26.6818C366.699 26.0985 366.606 25.5549 366.42 25.0511C366.235 24.5473 365.949 24.1402 365.562 23.8295C365.176 23.5189 364.684 23.3636 364.085 23.3636C363.487 23.3636 362.994 23.5189 362.608 23.8295C362.222 24.1402 361.936 24.5473 361.75 25.0511C361.564 25.5549 361.472 26.0985 361.472 26.6818C361.472 27.2652 361.564 27.8068 361.75 28.3068C361.936 28.8068 362.222 29.2102 362.608 29.517C362.994 29.8239 363.487 29.9773 364.085 29.9773ZM370.087 31V22.2727H371.382V23.5909H371.473C371.632 23.1591 371.92 22.8087 372.337 22.5398C372.753 22.2708 373.223 22.1364 373.746 22.1364C373.844 22.1364 373.967 22.1383 374.115 22.142C374.263 22.1458 374.375 22.1515 374.45 22.1591V23.5227C374.405 23.5114 374.301 23.4943 374.138 23.4716C373.979 23.4451 373.81 23.4318 373.632 23.4318C373.208 23.4318 372.829 23.5208 372.496 23.6989C372.166 23.8731 371.905 24.1155 371.712 24.4261C371.522 24.733 371.428 25.0833 371.428 25.4773V31H370.087Z" fill="white"/>
<path d="M16.4091 29V17.3636H23.3864V18.6136H17.8182V22.5455H22.8636V23.7955H17.8182V29H16.4091ZM25.6179 29V20.2727H26.9588V29H25.6179ZM26.2997 18.8182C26.0384 18.8182 25.813 18.7292 25.6236 18.5511C25.438 18.3731 25.3452 18.1591 25.3452 17.9091C25.3452 17.6591 25.438 17.4451 25.6236 17.267C25.813 17.089 26.0384 17 26.2997 17C26.5611 17 26.7846 17.089 26.9702 17.267C27.1596 17.4451 27.2543 17.6591 27.2543 17.9091C27.2543 18.1591 27.1596 18.3731 26.9702 18.5511C26.7846 18.7292 26.5611 18.8182 26.2997 18.8182ZM30.7557 17.3636V29H29.4148V17.3636H30.7557ZM36.8707 29.1818C36.0298 29.1818 35.3045 28.9962 34.6946 28.625C34.0885 28.25 33.6207 27.7273 33.2912 27.0568C32.9654 26.3826 32.8026 25.5985 32.8026 24.7045C32.8026 23.8106 32.9654 23.0227 33.2912 22.3409C33.6207 21.6553 34.0791 21.1212 34.6662 20.7386C35.2571 20.3523 35.9465 20.1591 36.7344 20.1591C37.1889 20.1591 37.6378 20.2348 38.081 20.3864C38.5241 20.5379 38.9276 20.7841 39.2912 21.125C39.6548 21.4621 39.9446 21.9091 40.1605 22.4659C40.3764 23.0227 40.4844 23.7083 40.4844 24.5227V25.0909H33.7571V23.9318H39.1207C39.1207 23.4394 39.0223 23 38.8253 22.6136C38.6321 22.2273 38.3556 21.9223 37.9957 21.6989C37.6397 21.4754 37.2192 21.3636 36.7344 21.3636C36.2003 21.3636 35.7382 21.4962 35.348 21.7614C34.9616 22.0227 34.6643 22.3636 34.456 22.7841C34.2476 23.2045 34.1435 23.6553 34.1435 24.1364V24.9091C34.1435 25.5682 34.2571 26.1269 34.4844 26.5852C34.7154 27.0398 35.0355 27.3864 35.4446 27.625C35.8537 27.8598 36.3291 27.9773 36.8707 27.9773C37.223 27.9773 37.5412 27.928 37.8253 27.8295C38.1132 27.7273 38.3613 27.5758 38.5696 27.375C38.7779 27.1705 38.9389 26.9167 39.0526 26.6136L40.348 26.9773C40.2116 27.4167 39.9825 27.803 39.6605 28.1364C39.3385 28.4659 38.9408 28.7235 38.4673 28.9091C37.9938 29.0909 37.4616 29.1818 36.8707 29.1818ZM53.5696 20.2727C53.5014 19.697 53.2249 19.25 52.7401 18.9318C52.2552 18.6136 51.6605 18.4545 50.956 18.4545C50.4408 18.4545 49.9901 18.5379 49.6037 18.7045C49.2211 18.8712 48.9219 19.1004 48.706 19.392C48.4938 19.6837 48.3878 20.0152 48.3878 20.3864C48.3878 20.697 48.4616 20.964 48.6094 21.1875C48.7609 21.4072 48.9541 21.5909 49.1889 21.7386C49.4238 21.8826 49.67 22.0019 49.9276 22.0966C50.1851 22.1875 50.4219 22.2614 50.6378 22.3182L51.8196 22.6364C52.1226 22.7159 52.4598 22.8258 52.831 22.9659C53.206 23.1061 53.5639 23.2973 53.9048 23.5398C54.2495 23.7784 54.5336 24.0852 54.7571 24.4602C54.9806 24.8352 55.0923 25.2955 55.0923 25.8409C55.0923 26.4697 54.9276 27.0379 54.598 27.5455C54.2723 28.053 53.795 28.4564 53.1662 28.7557C52.5412 29.0549 51.7817 29.2045 50.8878 29.2045C50.0545 29.2045 49.3329 29.0701 48.723 28.8011C48.117 28.5322 47.6397 28.1572 47.2912 27.6761C46.9465 27.1951 46.7514 26.6364 46.706 26H48.1605C48.1984 26.4394 48.3461 26.803 48.6037 27.0909C48.8651 27.375 49.1946 27.5871 49.5923 27.7273C49.9938 27.8636 50.4257 27.9318 50.8878 27.9318C51.4257 27.9318 51.9086 27.8447 52.3366 27.6705C52.7647 27.4924 53.1037 27.2462 53.3537 26.9318C53.6037 26.6136 53.7287 26.2424 53.7287 25.8182C53.7287 25.4318 53.6207 25.1174 53.4048 24.875C53.1889 24.6326 52.9048 24.4356 52.5526 24.2841C52.2003 24.1326 51.8196 24 51.4105 23.8864L49.9787 23.4773C49.0696 23.2159 48.3499 22.8428 47.8196 22.358C47.2893 21.8731 47.0241 21.2386 47.0241 20.4545C47.0241 19.803 47.2003 19.2348 47.5526 18.75C47.9086 18.2614 48.3859 17.8826 48.9844 17.6136C49.5866 17.3409 50.259 17.2045 51.0014 17.2045C51.7514 17.2045 52.4181 17.339 53.0014 17.608C53.5848 17.8731 54.0469 18.2367 54.3878 18.6989C54.7325 19.161 54.9143 19.6856 54.9332 20.2727H53.5696ZM58.5682 23.75V29H57.2273V17.3636H58.5682V21.6364H58.6818C58.8864 21.1856 59.1932 20.8277 59.6023 20.5625C60.0152 20.2936 60.5644 20.1591 61.25 20.1591C61.8447 20.1591 62.3655 20.2784 62.8125 20.517C63.2595 20.7519 63.6061 21.1136 63.8523 21.6023C64.1023 22.0871 64.2273 22.7045 64.2273 23.4545V29H62.8864V23.5455C62.8864 22.8523 62.7064 22.3163 62.3466 21.9375C61.9905 21.5549 61.4962 21.3636 60.8636 21.3636C60.4242 21.3636 60.0303 21.4564 59.6818 21.642C59.3371 21.8277 59.0644 22.0985 58.8636 22.4545C58.6667 22.8106 58.5682 23.2424 58.5682 23.75ZM69.2486 29.2045C68.6955 29.2045 68.1937 29.1004 67.7429 28.892C67.2921 28.6799 66.9342 28.375 66.669 27.9773C66.4039 27.5758 66.2713 27.0909 66.2713 26.5227C66.2713 26.0227 66.3698 25.6174 66.5668 25.3068C66.7637 24.9924 67.027 24.7462 67.3565 24.5682C67.6861 24.3902 68.0497 24.2576 68.4474 24.1705C68.849 24.0795 69.2524 24.0076 69.6577 23.9545C70.188 23.8864 70.6179 23.8352 70.9474 23.8011C71.2808 23.7633 71.5232 23.7008 71.6747 23.6136C71.83 23.5265 71.9077 23.375 71.9077 23.1591V23.1136C71.9077 22.553 71.7543 22.1174 71.4474 21.8068C71.1444 21.4962 70.6842 21.3409 70.0668 21.3409C69.4266 21.3409 68.9247 21.4811 68.5611 21.7614C68.1974 22.0417 67.9418 22.3409 67.794 22.6591L66.5213 22.2045C66.7486 21.6742 67.0516 21.2614 67.4304 20.9659C67.813 20.6667 68.2296 20.4583 68.6804 20.3409C69.1349 20.2197 69.5819 20.1591 70.0213 20.1591C70.3016 20.1591 70.6236 20.1932 70.9872 20.2614C71.3546 20.3258 71.7088 20.4602 72.0497 20.6648C72.3944 20.8693 72.6804 21.178 72.9077 21.5909C73.1349 22.0038 73.2486 22.5568 73.2486 23.25V29H71.9077V27.8182H71.8395C71.7486 28.0076 71.5971 28.2102 71.3849 28.4261C71.1728 28.642 70.8906 28.8258 70.5384 28.9773C70.1861 29.1288 69.7562 29.2045 69.2486 29.2045ZM69.4531 28C69.9834 28 70.4304 27.8958 70.794 27.6875C71.1615 27.4792 71.438 27.2102 71.6236 26.8807C71.813 26.5511 71.9077 26.2045 71.9077 25.8409V24.6136C71.8509 24.6818 71.7259 24.7443 71.5327 24.8011C71.3433 24.8542 71.1236 24.9015 70.8736 24.9432C70.6274 24.9811 70.3868 25.0152 70.152 25.0455C69.9209 25.072 69.7334 25.0947 69.5895 25.1136C69.241 25.1591 68.9152 25.233 68.6122 25.3352C68.313 25.4337 68.0705 25.5833 67.8849 25.7841C67.7031 25.9811 67.6122 26.25 67.6122 26.5909C67.6122 27.0568 67.7846 27.4091 68.1293 27.6477C68.4777 27.8826 68.919 28 69.4531 28ZM75.696 29V20.2727H76.9915V21.5909H77.0824C77.2415 21.1591 77.5294 20.8087 77.946 20.5398C78.3627 20.2708 78.8324 20.1364 79.3551 20.1364C79.4536 20.1364 79.5767 20.1383 79.7244 20.142C79.8722 20.1458 79.9839 20.1515 80.0597 20.1591V21.5227C80.0142 21.5114 79.91 21.4943 79.7472 21.4716C79.5881 21.4451 79.4195 21.4318 79.2415 21.4318C78.8172 21.4318 78.4384 21.5208 78.1051 21.6989C77.7756 21.8731 77.5142 22.1155 77.321 22.4261C77.1316 22.733 77.0369 23.0833 77.0369 23.4773V29H75.696ZM85.0426 29.1818C84.2017 29.1818 83.4763 28.9962 82.8665 28.625C82.2604 28.25 81.7926 27.7273 81.4631 27.0568C81.1373 26.3826 80.9744 25.5985 80.9744 24.7045C80.9744 23.8106 81.1373 23.0227 81.4631 22.3409C81.7926 21.6553 82.2509 21.1212 82.8381 20.7386C83.429 20.3523 84.1184 20.1591 84.9062 20.1591C85.3608 20.1591 85.8097 20.2348 86.2528 20.3864C86.696 20.5379 87.0994 20.7841 87.4631 21.125C87.8267 21.4621 88.1165 21.9091 88.3324 22.4659C88.5483 23.0227 88.6562 23.7083 88.6562 24.5227V25.0909H81.929V23.9318H87.2926C87.2926 23.4394 87.1941 23 86.9972 22.6136C86.804 22.2273 86.5275 21.9223 86.1676 21.6989C85.8116 21.4754 85.3911 21.3636 84.9062 21.3636C84.3722 21.3636 83.91 21.4962 83.5199 21.7614C83.1335 22.0227 82.8362 22.3636 82.6278 22.7841C82.4195 23.2045 82.3153 23.6553 82.3153 24.1364V24.9091C82.3153 25.5682 82.429 26.1269 82.6562 26.5852C82.8873 27.0398 83.2074 27.3864 83.6165 27.625C84.0256 27.8598 84.5009 27.9773 85.0426 27.9773C85.3949 27.9773 85.7131 27.928 85.9972 27.8295C86.285 27.7273 86.5331 27.5758 86.7415 27.375C86.9498 27.1705 87.1108 26.9167 87.2244 26.6136L88.5199 26.9773C88.3835 27.4167 88.1544 27.803 87.8324 28.1364C87.5104 28.4659 87.1127 28.7235 86.6392 28.9091C86.1657 29.0909 85.6335 29.1818 85.0426 29.1818Z" fill="#2ECC71"/>
<path d="M140.686 100V86.9091H148.586V88.3153H142.271V92.7386H148.177V94.1449H142.271V98.5938H148.689V100H140.686ZM152.748 94.0938V100H151.239V90.1818H152.696V91.7159H152.824C153.054 91.2173 153.404 90.8168 153.873 90.5142C154.341 90.2074 154.946 90.054 155.688 90.054C156.353 90.054 156.934 90.1903 157.433 90.4631C157.932 90.7315 158.319 91.1406 158.596 91.6903C158.873 92.2358 159.012 92.9261 159.012 93.7614V100H157.503V93.8636C157.503 93.0923 157.303 92.4915 156.902 92.0611C156.502 91.6264 155.952 91.4091 155.253 91.4091C154.772 91.4091 154.341 91.5135 153.962 91.7223C153.587 91.9311 153.291 92.2358 153.074 92.6364C152.856 93.0369 152.748 93.5227 152.748 94.0938ZM169.445 90.1818L165.815 100H164.28L160.65 90.1818H162.286L164.996 98.0057H165.099L167.809 90.1818H169.445ZM171.436 100V90.1818H172.945V100H171.436ZM172.203 88.5455C171.909 88.5455 171.656 88.4453 171.443 88.245C171.234 88.0447 171.13 87.804 171.13 87.5227C171.13 87.2415 171.234 87.0007 171.443 86.8004C171.656 86.6001 171.909 86.5 172.203 86.5C172.497 86.5 172.749 86.6001 172.958 86.8004C173.171 87.0007 173.277 87.2415 173.277 87.5227C173.277 87.804 173.171 88.0447 172.958 88.245C172.749 88.4453 172.497 88.5455 172.203 88.5455ZM178.597 100.23C177.975 100.23 177.41 100.113 176.903 99.8786C176.396 99.6399 175.993 99.2969 175.695 98.8494C175.397 98.3977 175.248 97.8523 175.248 97.2131C175.248 96.6506 175.358 96.1946 175.58 95.8452C175.802 95.4915 176.098 95.2145 176.468 95.0142C176.839 94.8139 177.248 94.6648 177.696 94.5668C178.147 94.4645 178.601 94.3835 179.057 94.3239C179.654 94.2472 180.138 94.1896 180.508 94.1513C180.883 94.1087 181.156 94.0384 181.326 93.9403C181.501 93.8423 181.589 93.6719 181.589 93.429V93.3778C181.589 92.7472 181.416 92.2571 181.071 91.9077C180.73 91.5582 180.212 91.3835 179.517 91.3835C178.797 91.3835 178.233 91.5412 177.824 91.8565C177.415 92.1719 177.127 92.5085 176.961 92.8665L175.529 92.3551C175.785 91.7585 176.125 91.294 176.552 90.9616C176.982 90.625 177.451 90.3906 177.958 90.2585C178.469 90.1222 178.972 90.054 179.466 90.054C179.782 90.054 180.144 90.0923 180.553 90.169C180.966 90.2415 181.365 90.3928 181.748 90.6229C182.136 90.853 182.458 91.2003 182.714 91.6648C182.969 92.1293 183.097 92.7514 183.097 93.5312V100H181.589V98.6705H181.512C181.41 98.8835 181.239 99.1115 181 99.3544C180.762 99.5973 180.444 99.804 180.048 99.9744C179.652 100.145 179.168 100.23 178.597 100.23ZM178.827 98.875C179.424 98.875 179.927 98.7578 180.336 98.5234C180.749 98.2891 181.06 97.9865 181.269 97.6158C181.482 97.245 181.589 96.8551 181.589 96.446V95.0653C181.525 95.142 181.384 95.2124 181.167 95.2763C180.954 95.3359 180.706 95.3892 180.425 95.4361C180.148 95.4787 179.878 95.517 179.613 95.5511C179.353 95.581 179.142 95.6065 178.981 95.6278C178.589 95.679 178.222 95.7621 177.881 95.8771C177.544 95.9879 177.272 96.1562 177.063 96.3821C176.858 96.6037 176.756 96.9062 176.756 97.2898C176.756 97.8139 176.95 98.2102 177.338 98.4787C177.73 98.7429 178.226 98.875 178.827 98.875ZM185.85 100V90.1818H187.308V91.6648H187.41C187.589 91.179 187.913 90.7848 188.382 90.4822C188.85 90.1797 189.379 90.0284 189.967 90.0284C190.078 90.0284 190.216 90.0305 190.382 90.0348C190.549 90.0391 190.674 90.0455 190.759 90.054V91.5881C190.708 91.5753 190.591 91.5561 190.408 91.5305C190.229 91.5007 190.039 91.4858 189.839 91.4858C189.362 91.4858 188.936 91.5859 188.561 91.7862C188.19 91.9822 187.896 92.255 187.679 92.6044C187.465 92.9496 187.359 93.3437 187.359 93.7869V100H185.85ZM198.352 100H196.69L201.497 86.9091H203.133L207.94 100H206.278L202.366 88.9801H202.264L198.352 100ZM198.965 94.8864H205.664V96.2926H198.965V94.8864ZM209.774 100V90.1818H211.232V91.6648H211.334C211.513 91.179 211.837 90.7848 212.305 90.4822C212.774 90.1797 213.303 90.0284 213.891 90.0284C214.002 90.0284 214.14 90.0305 214.306 90.0348C214.472 90.0391 214.598 90.0455 214.683 90.054V91.5881C214.632 91.5753 214.515 91.5561 214.332 91.5305C214.153 91.5007 213.963 91.4858 213.763 91.4858C213.286 91.4858 212.859 91.5859 212.484 91.7862C212.114 91.9822 211.82 92.255 211.602 92.6044C211.389 92.9496 211.283 93.3437 211.283 93.7869V100H209.774ZM222.872 103.682V98.4915H222.744C222.633 98.6705 222.475 98.8963 222.271 99.169C222.066 99.4375 221.774 99.6783 221.395 99.8913C221.016 100.1 220.511 100.205 219.88 100.205C219.062 100.205 218.34 99.9979 217.713 99.5845C217.087 99.1669 216.597 98.5788 216.243 97.8203C215.889 97.0575 215.712 96.1562 215.712 95.1165C215.712 94.0852 215.889 93.1903 216.243 92.4318C216.597 91.6733 217.089 91.0874 217.72 90.674C218.35 90.2607 219.079 90.054 219.906 90.054C220.545 90.054 221.05 90.1605 221.421 90.3736C221.796 90.5824 222.081 90.821 222.277 91.0895C222.477 91.3537 222.633 91.571 222.744 91.7415H222.923V90.1818H224.38V103.682H222.872ZM220.085 98.8494C220.69 98.8494 221.201 98.6918 221.619 98.3764C222.036 98.0568 222.354 97.6158 222.571 97.0533C222.788 96.4865 222.897 95.8324 222.897 95.0909C222.897 94.358 222.791 93.7166 222.578 93.1669C222.364 92.6129 222.049 92.1825 221.631 91.8757C221.214 91.5646 220.698 91.4091 220.085 91.4091C219.445 91.4091 218.913 91.5732 218.487 91.9013C218.065 92.2251 217.747 92.6662 217.534 93.2244C217.325 93.7784 217.221 94.4006 217.221 95.0909C217.221 95.7898 217.328 96.4247 217.541 96.9957C217.758 97.5625 218.078 98.0142 218.499 98.3509C218.926 98.6832 219.454 98.8494 220.085 98.8494ZM233.329 95.9858V90.1818H234.837V100H233.329V98.3381H233.227C232.997 98.8366 232.639 99.2607 232.153 99.6101C231.667 99.9553 231.053 100.128 230.312 100.128C229.698 100.128 229.153 99.9936 228.676 99.7251C228.198 99.4524 227.823 99.0433 227.551 98.4979C227.278 97.9482 227.141 97.2557 227.141 96.4205V90.1818H228.65V96.3182C228.65 97.0341 228.85 97.6051 229.251 98.0312C229.656 98.4574 230.171 98.6705 230.798 98.6705C231.173 98.6705 231.554 98.5746 231.942 98.3828C232.334 98.1911 232.662 97.897 232.926 97.5007C233.195 97.1044 233.329 96.5994 233.329 95.9858ZM237.6 100V90.1818H239.109V100H237.6ZM238.367 88.5455C238.073 88.5455 237.82 88.4453 237.607 88.245C237.398 88.0447 237.294 87.804 237.294 87.5227C237.294 87.2415 237.398 87.0007 237.607 86.8004C237.82 86.6001 238.073 86.5 238.367 86.5C238.661 86.5 238.913 86.6001 239.122 86.8004C239.335 87.0007 239.441 87.2415 239.441 87.5227C239.441 87.804 239.335 88.0447 239.122 88.245C238.913 88.4453 238.661 88.5455 238.367 88.5455ZM249.9 90.1818L246.27 100H244.736L241.105 90.1818H242.741L245.451 98.0057H245.554L248.264 90.1818H249.9ZM255.528 100.205C254.642 100.205 253.864 99.9936 253.195 99.5717C252.531 99.1499 252.011 98.5597 251.636 97.8011C251.265 97.0426 251.08 96.1562 251.08 95.142C251.08 94.1193 251.265 93.2266 251.636 92.4638C252.011 91.701 252.531 91.1087 253.195 90.6868C253.864 90.2649 254.642 90.054 255.528 90.054C256.415 90.054 257.19 90.2649 257.855 90.6868C258.524 91.1087 259.044 91.701 259.415 92.4638C259.79 93.2266 259.977 94.1193 259.977 95.142C259.977 96.1562 259.79 97.0426 259.415 97.8011C259.044 98.5597 258.524 99.1499 257.855 99.5717C257.19 99.9936 256.415 100.205 255.528 100.205ZM255.528 98.8494C256.202 98.8494 256.756 98.6768 257.19 98.3317C257.625 97.9865 257.947 97.5327 258.156 96.9702C258.364 96.4077 258.469 95.7983 258.469 95.142C258.469 94.4858 258.364 93.8743 258.156 93.3075C257.947 92.7408 257.625 92.2827 257.19 91.9332C256.756 91.5838 256.202 91.4091 255.528 91.4091C254.855 91.4091 254.301 91.5838 253.867 91.9332C253.432 92.2827 253.11 92.7408 252.901 93.3075C252.693 93.8743 252.588 94.4858 252.588 95.142C252.588 95.7983 252.693 96.4077 252.901 96.9702C253.11 97.5327 253.432 97.9865 253.867 98.3317C254.301 98.6768 254.855 98.8494 255.528 98.8494Z" fill="white"/>
<path d="M400 650H0V700H400V650Z" fill="#1E1A21"/>
<path d="M50 658C50 653.582 53.5817 650 58 650H159C163.418 650 167 653.582 167 658V692C167 696.418 163.418 700 159 700H58C53.5817 700 50 696.418 50 692V658Z" fill="#2D2828"/>
<path d="M241.5 658C241.5 653.582 245.082 650 249.5 650H350.5C354.918 650 358.5 653.582 358.5 658V692C358.5 696.418 354.918 700 350.5 700H249.5C245.082 700 241.5 696.418 241.5 692V658Z" fill="#2D2828"/>
<path d="M254.409 681V669.364H261.432V670.614H255.818V674.545H261.068V675.795H255.818V679.75H261.523V681H254.409ZM265.131 675.75V681H263.79V672.273H265.085V673.636H265.199C265.403 673.193 265.714 672.837 266.131 672.568C266.547 672.295 267.085 672.159 267.744 672.159C268.335 672.159 268.852 672.28 269.295 672.523C269.739 672.761 270.083 673.125 270.33 673.614C270.576 674.098 270.699 674.712 270.699 675.455V681H269.358V675.545C269.358 674.86 269.18 674.326 268.824 673.943C268.468 673.557 267.979 673.364 267.358 673.364C266.93 673.364 266.547 673.456 266.21 673.642C265.877 673.828 265.614 674.098 265.42 674.455C265.227 674.811 265.131 675.242 265.131 675.75ZM279.973 672.273L276.746 681H275.382L272.155 672.273H273.609L276.018 679.227H276.109L278.518 672.273H279.973ZM281.743 681V672.273H283.084V681H281.743ZM282.425 670.818C282.163 670.818 281.938 670.729 281.749 670.551C281.563 670.373 281.47 670.159 281.47 669.909C281.47 669.659 281.563 669.445 281.749 669.267C281.938 669.089 282.163 669 282.425 669C282.686 669 282.91 669.089 283.095 669.267C283.285 669.445 283.379 669.659 283.379 669.909C283.379 670.159 283.285 670.373 283.095 670.551C282.91 670.729 282.686 670.818 282.425 670.818ZM288.108 681.205C287.555 681.205 287.053 681.1 286.602 680.892C286.152 680.68 285.794 680.375 285.528 679.977C285.263 679.576 285.131 679.091 285.131 678.523C285.131 678.023 285.229 677.617 285.426 677.307C285.623 676.992 285.886 676.746 286.216 676.568C286.545 676.39 286.909 676.258 287.307 676.17C287.708 676.08 288.112 676.008 288.517 675.955C289.047 675.886 289.477 675.835 289.807 675.801C290.14 675.763 290.383 675.701 290.534 675.614C290.689 675.527 290.767 675.375 290.767 675.159V675.114C290.767 674.553 290.614 674.117 290.307 673.807C290.004 673.496 289.544 673.341 288.926 673.341C288.286 673.341 287.784 673.481 287.42 673.761C287.057 674.042 286.801 674.341 286.653 674.659L285.381 674.205C285.608 673.674 285.911 673.261 286.29 672.966C286.672 672.667 287.089 672.458 287.54 672.341C287.994 672.22 288.441 672.159 288.881 672.159C289.161 672.159 289.483 672.193 289.847 672.261C290.214 672.326 290.568 672.46 290.909 672.665C291.254 672.869 291.54 673.178 291.767 673.591C291.994 674.004 292.108 674.557 292.108 675.25V681H290.767V679.818H290.699C290.608 680.008 290.456 680.21 290.244 680.426C290.032 680.642 289.75 680.826 289.398 680.977C289.045 681.129 288.616 681.205 288.108 681.205ZM288.312 680C288.843 680 289.29 679.896 289.653 679.688C290.021 679.479 290.297 679.21 290.483 678.881C290.672 678.551 290.767 678.205 290.767 677.841V676.614C290.71 676.682 290.585 676.744 290.392 676.801C290.203 676.854 289.983 676.902 289.733 676.943C289.487 676.981 289.246 677.015 289.011 677.045C288.78 677.072 288.593 677.095 288.449 677.114C288.1 677.159 287.775 677.233 287.472 677.335C287.172 677.434 286.93 677.583 286.744 677.784C286.563 677.981 286.472 678.25 286.472 678.591C286.472 679.057 286.644 679.409 286.989 679.648C287.337 679.883 287.778 680 288.312 680ZM294.555 681V672.273H295.851V673.591H295.942C296.101 673.159 296.389 672.809 296.805 672.54C297.222 672.271 297.692 672.136 298.214 672.136C298.313 672.136 298.436 672.138 298.584 672.142C298.732 672.146 298.843 672.152 298.919 672.159V673.523C298.874 673.511 298.769 673.494 298.607 673.472C298.447 673.445 298.279 673.432 298.101 673.432C297.677 673.432 297.298 673.521 296.964 673.699C296.635 673.873 296.374 674.116 296.18 674.426C295.991 674.733 295.896 675.083 295.896 675.477V681H294.555ZM305.668 669.364L309.122 679.159H309.259L312.713 669.364H314.19L309.918 681H308.463L304.19 669.364H305.668ZM315.821 681V672.273H317.162V681H315.821ZM315.889 671.091L317.276 668.455H318.844L317.071 671.091H315.889ZM322.913 681.182C322.186 681.182 321.544 680.998 320.987 680.631C320.43 680.259 319.995 679.737 319.68 679.062C319.366 678.384 319.209 677.583 319.209 676.659C319.209 675.742 319.366 674.947 319.68 674.273C319.995 673.598 320.432 673.078 320.993 672.71C321.554 672.343 322.201 672.159 322.936 672.159C323.504 672.159 323.953 672.254 324.283 672.443C324.616 672.629 324.87 672.841 325.044 673.08C325.222 673.314 325.36 673.508 325.459 673.659H325.572V669.364H326.913V681H325.618V679.659H325.459C325.36 679.818 325.22 680.019 325.038 680.261C324.857 680.5 324.597 680.714 324.26 680.903C323.923 681.089 323.474 681.182 322.913 681.182ZM323.095 679.977C323.633 679.977 324.088 679.837 324.459 679.557C324.83 679.273 325.112 678.881 325.305 678.381C325.499 677.877 325.595 677.295 325.595 676.636C325.595 675.985 325.5 675.415 325.311 674.926C325.122 674.434 324.841 674.051 324.47 673.778C324.099 673.502 323.641 673.364 323.095 673.364C322.527 673.364 322.054 673.509 321.675 673.801C321.3 674.089 321.018 674.481 320.828 674.977C320.643 675.47 320.55 676.023 320.55 676.636C320.55 677.258 320.644 677.822 320.834 678.33C321.027 678.833 321.311 679.235 321.686 679.534C322.065 679.83 322.535 679.977 323.095 679.977ZM333.214 681.182C332.374 681.182 331.648 680.996 331.038 680.625C330.432 680.25 329.964 679.727 329.635 679.057C329.309 678.383 329.146 677.598 329.146 676.705C329.146 675.811 329.309 675.023 329.635 674.341C329.964 673.655 330.423 673.121 331.01 672.739C331.601 672.352 332.29 672.159 333.078 672.159C333.533 672.159 333.982 672.235 334.425 672.386C334.868 672.538 335.271 672.784 335.635 673.125C335.999 673.462 336.288 673.909 336.504 674.466C336.72 675.023 336.828 675.708 336.828 676.523V677.091H330.101V675.932H335.464C335.464 675.439 335.366 675 335.169 674.614C334.976 674.227 334.699 673.922 334.339 673.699C333.983 673.475 333.563 673.364 333.078 673.364C332.544 673.364 332.082 673.496 331.692 673.761C331.305 674.023 331.008 674.364 330.8 674.784C330.591 675.205 330.487 675.655 330.487 676.136V676.909C330.487 677.568 330.601 678.127 330.828 678.585C331.059 679.04 331.379 679.386 331.788 679.625C332.197 679.86 332.673 679.977 333.214 679.977C333.567 679.977 333.885 679.928 334.169 679.83C334.457 679.727 334.705 679.576 334.913 679.375C335.122 679.17 335.283 678.917 335.396 678.614L336.692 678.977C336.555 679.417 336.326 679.803 336.004 680.136C335.682 680.466 335.285 680.723 334.811 680.909C334.338 681.091 333.805 681.182 333.214 681.182ZM342.413 681.182C341.625 681.182 340.934 680.994 340.339 680.619C339.749 680.244 339.286 679.72 338.953 679.045C338.624 678.371 338.459 677.583 338.459 676.682C338.459 675.773 338.624 674.979 338.953 674.301C339.286 673.623 339.749 673.097 340.339 672.722C340.934 672.347 341.625 672.159 342.413 672.159C343.201 672.159 343.891 672.347 344.482 672.722C345.076 673.097 345.538 673.623 345.868 674.301C346.201 674.979 346.368 675.773 346.368 676.682C346.368 677.583 346.201 678.371 345.868 679.045C345.538 679.72 345.076 680.244 344.482 680.619C343.891 680.994 343.201 681.182 342.413 681.182ZM342.413 679.977C343.012 679.977 343.504 679.824 343.891 679.517C344.277 679.21 344.563 678.807 344.749 678.307C344.934 677.807 345.027 677.265 345.027 676.682C345.027 676.098 344.934 675.555 344.749 675.051C344.563 674.547 344.277 674.14 343.891 673.83C343.504 673.519 343.012 673.364 342.413 673.364C341.815 673.364 341.322 673.519 340.936 673.83C340.55 674.14 340.264 674.547 340.078 675.051C339.893 675.555 339.8 676.098 339.8 676.682C339.8 677.265 339.893 677.807 340.078 678.307C340.264 678.807 340.55 679.21 340.936 679.517C341.322 679.824 341.815 679.977 342.413 679.977Z" fill="white"/>
<path d="M60.4091 669.364H62.0909L66.0455 679.023H66.1818L70.1364 669.364H71.8182V681H70.5V672.159H70.3864L66.75 681H65.4773L61.8409 672.159H61.7273V681H60.4091V669.364ZM78.1207 681.182C77.2798 681.182 76.5545 680.996 75.9446 680.625C75.3385 680.25 74.8707 679.727 74.5412 679.057C74.2154 678.383 74.0526 677.598 74.0526 676.705C74.0526 675.811 74.2154 675.023 74.5412 674.341C74.8707 673.655 75.3291 673.121 75.9162 672.739C76.5071 672.352 77.1965 672.159 77.9844 672.159C78.4389 672.159 78.8878 672.235 79.331 672.386C79.7741 672.538 80.1776 672.784 80.5412 673.125C80.9048 673.462 81.1946 673.909 81.4105 674.466C81.6264 675.023 81.7344 675.708 81.7344 676.523V677.091H75.0071V675.932H80.3707C80.3707 675.439 80.2723 675 80.0753 674.614C79.8821 674.227 79.6056 673.922 79.2457 673.699C78.8897 673.475 78.4692 673.364 77.9844 673.364C77.4503 673.364 76.9882 673.496 76.598 673.761C76.2116 674.023 75.9143 674.364 75.706 674.784C75.4976 675.205 75.3935 675.655 75.3935 676.136V676.909C75.3935 677.568 75.5071 678.127 75.7344 678.585C75.9654 679.04 76.2855 679.386 76.6946 679.625C77.1037 679.86 77.5791 679.977 78.1207 679.977C78.473 679.977 78.7912 679.928 79.0753 679.83C79.3632 679.727 79.6113 679.576 79.8196 679.375C80.0279 679.17 80.1889 678.917 80.3026 678.614L81.598 678.977C81.4616 679.417 81.2325 679.803 80.9105 680.136C80.5885 680.466 80.1908 680.723 79.7173 680.909C79.2438 681.091 78.7116 681.182 78.1207 681.182ZM89.2741 677.432V672.273H90.6151V681H89.2741V679.523H89.1832C88.9787 679.966 88.6605 680.343 88.2287 680.653C87.7969 680.96 87.2514 681.114 86.5923 681.114C86.0469 681.114 85.562 680.994 85.1378 680.756C84.7135 680.513 84.3802 680.15 84.1378 679.665C83.8954 679.176 83.7741 678.561 83.7741 677.818V672.273H85.1151V677.727C85.1151 678.364 85.2931 678.871 85.6491 679.25C86.009 679.629 86.4673 679.818 87.0241 679.818C87.3575 679.818 87.6965 679.733 88.0412 679.562C88.3897 679.392 88.6813 679.131 88.9162 678.778C89.1548 678.426 89.2741 677.977 89.2741 677.432ZM99.2528 674.227L98.0483 674.568C97.9725 674.367 97.8608 674.172 97.7131 673.983C97.5691 673.79 97.3722 673.631 97.1222 673.506C96.8722 673.381 96.5521 673.318 96.1619 673.318C95.6278 673.318 95.1828 673.441 94.8267 673.688C94.4744 673.93 94.2983 674.239 94.2983 674.614C94.2983 674.947 94.4195 675.21 94.6619 675.403C94.9044 675.597 95.2831 675.758 95.7983 675.886L97.0938 676.205C97.8741 676.394 98.4555 676.684 98.8381 677.074C99.2206 677.46 99.4119 677.958 99.4119 678.568C99.4119 679.068 99.268 679.515 98.9801 679.909C98.696 680.303 98.2983 680.614 97.7869 680.841C97.2756 681.068 96.6809 681.182 96.0028 681.182C95.1127 681.182 94.3759 680.989 93.7926 680.602C93.2093 680.216 92.84 679.652 92.6847 678.909L93.9574 678.591C94.0786 679.061 94.3078 679.413 94.6449 679.648C94.9858 679.883 95.4309 680 95.9801 680C96.6051 680 97.1013 679.867 97.4688 679.602C97.84 679.333 98.0256 679.011 98.0256 678.636C98.0256 678.333 97.9195 678.08 97.7074 677.875C97.4953 677.667 97.1695 677.511 96.7301 677.409L95.2756 677.068C94.4763 676.879 93.8892 676.585 93.5142 676.188C93.143 675.786 92.9574 675.284 92.9574 674.682C92.9574 674.189 93.0956 673.754 93.3722 673.375C93.6525 672.996 94.0331 672.699 94.5142 672.483C94.9991 672.267 95.5483 672.159 96.1619 672.159C97.0256 672.159 97.7036 672.348 98.196 672.727C98.6922 673.106 99.0445 673.606 99.2528 674.227ZM106.589 669.364L110.044 679.159H110.18L113.635 669.364H115.112L110.839 681H109.385L105.112 669.364H106.589ZM116.743 681V672.273H118.084V681H116.743ZM116.811 671.091L118.197 668.455H119.766L117.993 671.091H116.811ZM123.835 681.182C123.108 681.182 122.466 680.998 121.909 680.631C121.352 680.259 120.917 679.737 120.602 679.062C120.288 678.384 120.131 677.583 120.131 676.659C120.131 675.742 120.288 674.947 120.602 674.273C120.917 673.598 121.354 673.078 121.915 672.71C122.475 672.343 123.123 672.159 123.858 672.159C124.426 672.159 124.875 672.254 125.205 672.443C125.538 672.629 125.792 672.841 125.966 673.08C126.144 673.314 126.282 673.508 126.381 673.659H126.494V669.364H127.835V681H126.54V679.659H126.381C126.282 679.818 126.142 680.019 125.96 680.261C125.778 680.5 125.519 680.714 125.182 680.903C124.845 681.089 124.396 681.182 123.835 681.182ZM124.017 679.977C124.555 679.977 125.009 679.837 125.381 679.557C125.752 679.273 126.034 678.881 126.227 678.381C126.42 677.877 126.517 677.295 126.517 676.636C126.517 675.985 126.422 675.415 126.233 674.926C126.044 674.434 125.763 674.051 125.392 673.778C125.021 673.502 124.563 673.364 124.017 673.364C123.449 673.364 122.975 673.509 122.597 673.801C122.222 674.089 121.939 674.481 121.75 674.977C121.564 675.47 121.472 676.023 121.472 676.636C121.472 677.258 121.566 677.822 121.756 678.33C121.949 678.833 122.233 679.235 122.608 679.534C122.987 679.83 123.456 679.977 124.017 679.977ZM134.136 681.182C133.295 681.182 132.57 680.996 131.96 680.625C131.354 680.25 130.886 679.727 130.557 679.057C130.231 678.383 130.068 677.598 130.068 676.705C130.068 675.811 130.231 675.023 130.557 674.341C130.886 673.655 131.345 673.121 131.932 672.739C132.523 672.352 133.212 672.159 134 672.159C134.455 672.159 134.903 672.235 135.347 672.386C135.79 672.538 136.193 672.784 136.557 673.125C136.92 673.462 137.21 673.909 137.426 674.466C137.642 675.023 137.75 675.708 137.75 676.523V677.091H131.023V675.932H136.386C136.386 675.439 136.288 675 136.091 674.614C135.898 674.227 135.621 673.922 135.261 673.699C134.905 673.475 134.485 673.364 134 673.364C133.466 673.364 133.004 673.496 132.614 673.761C132.227 674.023 131.93 674.364 131.722 674.784C131.513 675.205 131.409 675.655 131.409 676.136V676.909C131.409 677.568 131.523 678.127 131.75 678.585C131.981 679.04 132.301 679.386 132.71 679.625C133.119 679.86 133.595 679.977 134.136 679.977C134.489 679.977 134.807 679.928 135.091 679.83C135.379 679.727 135.627 679.576 135.835 679.375C136.044 679.17 136.205 678.917 136.318 678.614L137.614 678.977C137.477 679.417 137.248 679.803 136.926 680.136C136.604 680.466 136.206 680.723 135.733 680.909C135.259 681.091 134.727 681.182 134.136 681.182ZM143.335 681.182C142.547 681.182 141.856 680.994 141.261 680.619C140.67 680.244 140.208 679.72 139.875 679.045C139.545 678.371 139.381 677.583 139.381 676.682C139.381 675.773 139.545 674.979 139.875 674.301C140.208 673.623 140.67 673.097 141.261 672.722C141.856 672.347 142.547 672.159 143.335 672.159C144.123 672.159 144.813 672.347 145.403 672.722C145.998 673.097 146.46 673.623 146.79 674.301C147.123 674.979 147.29 675.773 147.29 676.682C147.29 677.583 147.123 678.371 146.79 679.045C146.46 679.72 145.998 680.244 145.403 680.619C144.813 680.994 144.123 681.182 143.335 681.182ZM143.335 679.977C143.934 679.977 144.426 679.824 144.812 679.517C145.199 679.21 145.485 678.807 145.67 678.307C145.856 677.807 145.949 677.265 145.949 676.682C145.949 676.098 145.856 675.555 145.67 675.051C145.485 674.547 145.199 674.14 144.812 673.83C144.426 673.519 143.934 673.364 143.335 673.364C142.737 673.364 142.244 673.519 141.858 673.83C141.472 674.14 141.186 674.547 141 675.051C140.814 675.555 140.722 676.098 140.722 676.682C140.722 677.265 140.814 677.807 141 678.307C141.186 678.807 141.472 679.21 141.858 679.517C142.244 679.824 142.737 679.977 143.335 679.977ZM155.518 674.227L154.314 674.568C154.238 674.367 154.126 674.172 153.979 673.983C153.835 673.79 153.638 673.631 153.388 673.506C153.138 673.381 152.818 673.318 152.428 673.318C151.893 673.318 151.448 673.441 151.092 673.688C150.74 673.93 150.564 674.239 150.564 674.614C150.564 674.947 150.685 675.21 150.928 675.403C151.17 675.597 151.549 675.758 152.064 675.886L153.359 676.205C154.14 676.394 154.721 676.684 155.104 677.074C155.486 677.46 155.678 677.958 155.678 678.568C155.678 679.068 155.534 679.515 155.246 679.909C154.962 680.303 154.564 680.614 154.053 680.841C153.541 681.068 152.946 681.182 152.268 681.182C151.378 681.182 150.642 680.989 150.058 680.602C149.475 680.216 149.106 679.652 148.95 678.909L150.223 678.591C150.344 679.061 150.573 679.413 150.911 679.648C151.251 679.883 151.696 680 152.246 680C152.871 680 153.367 679.867 153.734 679.602C154.106 679.333 154.291 679.011 154.291 678.636C154.291 678.333 154.185 678.08 153.973 677.875C153.761 677.667 153.435 677.511 152.996 677.409L151.541 677.068C150.742 676.879 150.155 676.585 149.78 676.188C149.409 675.786 149.223 675.284 149.223 674.682C149.223 674.189 149.361 673.754 149.638 673.375C149.918 672.996 150.299 672.699 150.78 672.483C151.265 672.267 151.814 672.159 152.428 672.159C153.291 672.159 153.969 672.348 154.462 672.727C154.958 673.106 155.31 673.606 155.518 674.227Z" fill="white"/>
<path d="M45 658C45 653.582 48.5817 650 53 650H159.683C164.102 650 167.683 653.582 167.683 658V692C167.683 696.418 164.102 700 159.683 700H53C48.5817 700 45 696.418 45 692V658Z" fill="#2D2828"/>
<path d="M235.317 658C235.317 653.582 239.072 650 243.705 650H349.611C354.244 650 358 653.582 358 658V692C358 696.418 354.244 700 349.611 700H243.705C239.072 700 235.317 696.418 235.317 692V658Z" fill="#2D2828"/>
<path d="M247.409 681V669.364H254.432V670.614H248.818V674.545H254.068V675.795H248.818V679.75H254.523V681H247.409ZM258.131 675.75V681H256.79V672.273H258.085V673.636H258.199C258.403 673.193 258.714 672.837 259.131 672.568C259.547 672.295 260.085 672.159 260.744 672.159C261.335 672.159 261.852 672.28 262.295 672.523C262.739 672.761 263.083 673.125 263.33 673.614C263.576 674.098 263.699 674.712 263.699 675.455V681H262.358V675.545C262.358 674.86 262.18 674.326 261.824 673.943C261.468 673.557 260.979 673.364 260.358 673.364C259.93 673.364 259.547 673.456 259.21 673.642C258.877 673.828 258.614 674.098 258.42 674.455C258.227 674.811 258.131 675.242 258.131 675.75ZM272.973 672.273L269.746 681H268.382L265.155 672.273H266.609L269.018 679.227H269.109L271.518 672.273H272.973ZM274.743 681V672.273H276.084V681H274.743ZM275.425 670.818C275.163 670.818 274.938 670.729 274.749 670.551C274.563 670.373 274.47 670.159 274.47 669.909C274.47 669.659 274.563 669.445 274.749 669.267C274.938 669.089 275.163 669 275.425 669C275.686 669 275.91 669.089 276.095 669.267C276.285 669.445 276.379 669.659 276.379 669.909C276.379 670.159 276.285 670.373 276.095 670.551C275.91 670.729 275.686 670.818 275.425 670.818ZM281.108 681.205C280.555 681.205 280.053 681.1 279.602 680.892C279.152 680.68 278.794 680.375 278.528 679.977C278.263 679.576 278.131 679.091 278.131 678.523C278.131 678.023 278.229 677.617 278.426 677.307C278.623 676.992 278.886 676.746 279.216 676.568C279.545 676.39 279.909 676.258 280.307 676.17C280.708 676.08 281.112 676.008 281.517 675.955C282.047 675.886 282.477 675.835 282.807 675.801C283.14 675.763 283.383 675.701 283.534 675.614C283.689 675.527 283.767 675.375 283.767 675.159V675.114C283.767 674.553 283.614 674.117 283.307 673.807C283.004 673.496 282.544 673.341 281.926 673.341C281.286 673.341 280.784 673.481 280.42 673.761C280.057 674.042 279.801 674.341 279.653 674.659L278.381 674.205C278.608 673.674 278.911 673.261 279.29 672.966C279.672 672.667 280.089 672.458 280.54 672.341C280.994 672.22 281.441 672.159 281.881 672.159C282.161 672.159 282.483 672.193 282.847 672.261C283.214 672.326 283.568 672.46 283.909 672.665C284.254 672.869 284.54 673.178 284.767 673.591C284.994 674.004 285.108 674.557 285.108 675.25V681H283.767V679.818H283.699C283.608 680.008 283.456 680.21 283.244 680.426C283.032 680.642 282.75 680.826 282.398 680.977C282.045 681.129 281.616 681.205 281.108 681.205ZM281.312 680C281.843 680 282.29 679.896 282.653 679.688C283.021 679.479 283.297 679.21 283.483 678.881C283.672 678.551 283.767 678.205 283.767 677.841V676.614C283.71 676.682 283.585 676.744 283.392 676.801C283.203 676.854 282.983 676.902 282.733 676.943C282.487 676.981 282.246 677.015 282.011 677.045C281.78 677.072 281.593 677.095 281.449 677.114C281.1 677.159 280.775 677.233 280.472 677.335C280.172 677.434 279.93 677.583 279.744 677.784C279.563 677.981 279.472 678.25 279.472 678.591C279.472 679.057 279.644 679.409 279.989 679.648C280.337 679.883 280.778 680 281.312 680ZM287.555 681V672.273H288.851V673.591H288.942C289.101 673.159 289.389 672.809 289.805 672.54C290.222 672.271 290.692 672.136 291.214 672.136C291.313 672.136 291.436 672.138 291.584 672.142C291.732 672.146 291.843 672.152 291.919 672.159V673.523C291.874 673.511 291.769 673.494 291.607 673.472C291.447 673.445 291.279 673.432 291.101 673.432C290.677 673.432 290.298 673.521 289.964 673.699C289.635 673.873 289.374 674.116 289.18 674.426C288.991 674.733 288.896 675.083 288.896 675.477V681H287.555ZM298.668 681H297.19L301.463 669.364H302.918L307.19 681H305.713L302.236 671.205H302.145L298.668 681ZM299.213 676.455H305.168V677.705H299.213V676.455ZM308.821 681V672.273H310.116V673.591H310.207C310.366 673.159 310.654 672.809 311.071 672.54C311.488 672.271 311.957 672.136 312.48 672.136C312.579 672.136 312.702 672.138 312.849 672.142C312.997 672.146 313.109 672.152 313.185 672.159V673.523C313.139 673.511 313.035 673.494 312.872 673.472C312.713 673.445 312.545 673.432 312.366 673.432C311.942 673.432 311.563 673.521 311.23 673.699C310.901 673.873 310.639 674.116 310.446 674.426C310.257 674.733 310.162 675.083 310.162 675.477V681H308.821ZM320.463 684.273V679.659H320.349C320.251 679.818 320.111 680.019 319.929 680.261C319.747 680.5 319.488 680.714 319.151 680.903C318.813 681.089 318.365 681.182 317.804 681.182C317.077 681.182 316.435 680.998 315.878 680.631C315.321 680.259 314.885 679.737 314.571 679.062C314.257 678.384 314.099 677.583 314.099 676.659C314.099 675.742 314.257 674.947 314.571 674.273C314.885 673.598 315.323 673.078 315.884 672.71C316.444 672.343 317.092 672.159 317.827 672.159C318.395 672.159 318.844 672.254 319.173 672.443C319.507 672.629 319.76 672.841 319.935 673.08C320.113 673.314 320.251 673.508 320.349 673.659H320.509V672.273H321.804V684.273H320.463ZM317.986 679.977C318.524 679.977 318.978 679.837 319.349 679.557C319.721 679.273 320.003 678.881 320.196 678.381C320.389 677.877 320.486 677.295 320.486 676.636C320.486 675.985 320.391 675.415 320.202 674.926C320.012 674.434 319.732 674.051 319.361 673.778C318.99 673.502 318.531 673.364 317.986 673.364C317.418 673.364 316.944 673.509 316.565 673.801C316.19 674.089 315.908 674.481 315.719 674.977C315.533 675.47 315.44 676.023 315.44 676.636C315.44 677.258 315.535 677.822 315.724 678.33C315.918 678.833 316.202 679.235 316.577 679.534C316.955 679.83 317.425 679.977 317.986 679.977ZM329.759 677.432V672.273H331.099V681H329.759V679.523H329.668C329.463 679.966 329.145 680.343 328.713 680.653C328.281 680.96 327.736 681.114 327.077 681.114C326.531 681.114 326.046 680.994 325.622 680.756C325.198 680.513 324.865 680.15 324.622 679.665C324.38 679.176 324.259 678.561 324.259 677.818V672.273H325.599V677.727C325.599 678.364 325.777 678.871 326.134 679.25C326.493 679.629 326.952 679.818 327.509 679.818C327.842 679.818 328.181 679.733 328.526 679.562C328.874 679.392 329.166 679.131 329.401 678.778C329.639 678.426 329.759 677.977 329.759 677.432ZM333.555 681V672.273H334.896V681H333.555ZM334.237 670.818C333.976 670.818 333.75 670.729 333.561 670.551C333.375 670.373 333.283 670.159 333.283 669.909C333.283 669.659 333.375 669.445 333.561 669.267C333.75 669.089 333.976 669 334.237 669C334.499 669 334.722 669.089 334.908 669.267C335.097 669.445 335.192 669.659 335.192 669.909C335.192 670.159 335.097 670.373 334.908 670.551C334.722 670.729 334.499 670.818 334.237 670.818ZM344.489 672.273L341.261 681H339.898L336.67 672.273H338.125L340.534 679.227H340.625L343.034 672.273H344.489ZM349.491 681.182C348.704 681.182 348.012 680.994 347.418 680.619C346.827 680.244 346.365 679.72 346.031 679.045C345.702 678.371 345.537 677.583 345.537 676.682C345.537 675.773 345.702 674.979 346.031 674.301C346.365 673.623 346.827 673.097 347.418 672.722C348.012 672.347 348.704 672.159 349.491 672.159C350.279 672.159 350.969 672.347 351.56 672.722C352.154 673.097 352.616 673.623 352.946 674.301C353.279 674.979 353.446 675.773 353.446 676.682C353.446 677.583 353.279 678.371 352.946 679.045C352.616 679.72 352.154 680.244 351.56 680.619C350.969 680.994 350.279 681.182 349.491 681.182ZM349.491 679.977C350.09 679.977 350.582 679.824 350.969 679.517C351.355 679.21 351.641 678.807 351.827 678.307C352.012 677.807 352.105 677.265 352.105 676.682C352.105 676.098 352.012 675.555 351.827 675.051C351.641 674.547 351.355 674.14 350.969 673.83C350.582 673.519 350.09 673.364 349.491 673.364C348.893 673.364 348.401 673.519 348.014 673.83C347.628 674.14 347.342 674.547 347.156 675.051C346.971 675.555 346.878 676.098 346.878 676.682C346.878 677.265 346.971 677.807 347.156 678.307C347.342 678.807 347.628 679.21 348.014 679.517C348.401 679.824 348.893 679.977 349.491 679.977Z" fill="white"/>
<path d="M51.4091 669.364H53.0909L57.0455 679.023H57.1818L61.1364 669.364H62.8182V681H61.5V672.159H61.3864L57.75 681H56.4773L52.8409 672.159H52.7273V681H51.4091V669.364ZM69.1207 681.182C68.2798 681.182 67.5545 680.996 66.9446 680.625C66.3385 680.25 65.8707 679.727 65.5412 679.057C65.2154 678.383 65.0526 677.598 65.0526 676.705C65.0526 675.811 65.2154 675.023 65.5412 674.341C65.8707 673.655 66.3291 673.121 66.9162 672.739C67.5071 672.352 68.1965 672.159 68.9844 672.159C69.4389 672.159 69.8878 672.235 70.331 672.386C70.7741 672.538 71.1776 672.784 71.5412 673.125C71.9048 673.462 72.1946 673.909 72.4105 674.466C72.6264 675.023 72.7344 675.708 72.7344 676.523V677.091H66.0071V675.932H71.3707C71.3707 675.439 71.2723 675 71.0753 674.614C70.8821 674.227 70.6056 673.922 70.2457 673.699C69.8897 673.475 69.4692 673.364 68.9844 673.364C68.4503 673.364 67.9882 673.496 67.598 673.761C67.2116 674.023 66.9143 674.364 66.706 674.784C66.4976 675.205 66.3935 675.655 66.3935 676.136V676.909C66.3935 677.568 66.5071 678.127 66.7344 678.585C66.9654 679.04 67.2855 679.386 67.6946 679.625C68.1037 679.86 68.5791 679.977 69.1207 679.977C69.473 679.977 69.7912 679.928 70.0753 679.83C70.3632 679.727 70.6113 679.576 70.8196 679.375C71.0279 679.17 71.1889 678.917 71.3026 678.614L72.598 678.977C72.4616 679.417 72.2325 679.803 71.9105 680.136C71.5885 680.466 71.1908 680.723 70.7173 680.909C70.2438 681.091 69.7116 681.182 69.1207 681.182ZM80.2741 677.432V672.273H81.6151V681H80.2741V679.523H80.1832C79.9787 679.966 79.6605 680.343 79.2287 680.653C78.7969 680.96 78.2514 681.114 77.5923 681.114C77.0469 681.114 76.562 680.994 76.1378 680.756C75.7135 680.513 75.3802 680.15 75.1378 679.665C74.8954 679.176 74.7741 678.561 74.7741 677.818V672.273H76.1151V677.727C76.1151 678.364 76.2931 678.871 76.6491 679.25C77.009 679.629 77.4673 679.818 78.0241 679.818C78.3575 679.818 78.6965 679.733 79.0412 679.562C79.3897 679.392 79.6813 679.131 79.9162 678.778C80.1548 678.426 80.2741 677.977 80.2741 677.432ZM90.2528 674.227L89.0483 674.568C88.9725 674.367 88.8608 674.172 88.7131 673.983C88.5691 673.79 88.3722 673.631 88.1222 673.506C87.8722 673.381 87.5521 673.318 87.1619 673.318C86.6278 673.318 86.1828 673.441 85.8267 673.688C85.4744 673.93 85.2983 674.239 85.2983 674.614C85.2983 674.947 85.4195 675.21 85.6619 675.403C85.9044 675.597 86.2831 675.758 86.7983 675.886L88.0938 676.205C88.8741 676.394 89.4555 676.684 89.8381 677.074C90.2206 677.46 90.4119 677.958 90.4119 678.568C90.4119 679.068 90.268 679.515 89.9801 679.909C89.696 680.303 89.2983 680.614 88.7869 680.841C88.2756 681.068 87.6809 681.182 87.0028 681.182C86.1127 681.182 85.3759 680.989 84.7926 680.602C84.2093 680.216 83.84 679.652 83.6847 678.909L84.9574 678.591C85.0786 679.061 85.3078 679.413 85.6449 679.648C85.9858 679.883 86.4309 680 86.9801 680C87.6051 680 88.1013 679.867 88.4688 679.602C88.84 679.333 89.0256 679.011 89.0256 678.636C89.0256 678.333 88.9195 678.08 88.7074 677.875C88.4953 677.667 88.1695 677.511 87.7301 677.409L86.2756 677.068C85.4763 676.879 84.8892 676.585 84.5142 676.188C84.143 675.786 83.9574 675.284 83.9574 674.682C83.9574 674.189 84.0956 673.754 84.3722 673.375C84.6525 672.996 85.0331 672.699 85.5142 672.483C85.9991 672.267 86.5483 672.159 87.1619 672.159C88.0256 672.159 88.7036 672.348 89.196 672.727C89.6922 673.106 90.0445 673.606 90.2528 674.227ZM97.5895 681H96.1122L100.385 669.364H101.839L106.112 681H104.635L101.158 671.205H101.067L97.5895 681ZM98.1349 676.455H104.089V677.705H98.1349V676.455ZM107.743 681V672.273H109.038V673.591H109.129C109.288 673.159 109.576 672.809 109.993 672.54C110.41 672.271 110.879 672.136 111.402 672.136C111.5 672.136 111.624 672.138 111.771 672.142C111.919 672.146 112.031 672.152 112.107 672.159V673.523C112.061 673.511 111.957 673.494 111.794 673.472C111.635 673.445 111.466 673.432 111.288 673.432C110.864 673.432 110.485 673.521 110.152 673.699C109.822 673.873 109.561 674.116 109.368 674.426C109.179 674.733 109.084 675.083 109.084 675.477V681H107.743ZM119.385 684.273V679.659H119.271C119.173 679.818 119.033 680.019 118.851 680.261C118.669 680.5 118.41 680.714 118.072 680.903C117.735 681.089 117.286 681.182 116.726 681.182C115.999 681.182 115.357 680.998 114.8 680.631C114.243 680.259 113.807 679.737 113.493 679.062C113.179 678.384 113.021 677.583 113.021 676.659C113.021 675.742 113.179 674.947 113.493 674.273C113.807 673.598 114.245 673.078 114.805 672.71C115.366 672.343 116.014 672.159 116.749 672.159C117.317 672.159 117.766 672.254 118.095 672.443C118.429 672.629 118.682 672.841 118.857 673.08C119.035 673.314 119.173 673.508 119.271 673.659H119.43V672.273H120.726V684.273H119.385ZM116.908 679.977C117.446 679.977 117.9 679.837 118.271 679.557C118.643 679.273 118.925 678.881 119.118 678.381C119.311 677.877 119.408 677.295 119.408 676.636C119.408 675.985 119.313 675.415 119.124 674.926C118.934 674.434 118.654 674.051 118.283 673.778C117.911 673.502 117.453 673.364 116.908 673.364C116.339 673.364 115.866 673.509 115.487 673.801C115.112 674.089 114.83 674.481 114.641 674.977C114.455 675.47 114.362 676.023 114.362 676.636C114.362 677.258 114.457 677.822 114.646 678.33C114.839 678.833 115.124 679.235 115.499 679.534C115.877 679.83 116.347 679.977 116.908 679.977ZM128.68 677.432V672.273H130.021V681H128.68V679.523H128.589C128.385 679.966 128.067 680.343 127.635 680.653C127.203 680.96 126.658 681.114 125.999 681.114C125.453 681.114 124.968 680.994 124.544 680.756C124.12 680.513 123.786 680.15 123.544 679.665C123.302 679.176 123.18 678.561 123.18 677.818V672.273H124.521V677.727C124.521 678.364 124.699 678.871 125.055 679.25C125.415 679.629 125.874 679.818 126.43 679.818C126.764 679.818 127.103 679.733 127.447 679.562C127.796 679.392 128.088 679.131 128.322 678.778C128.561 678.426 128.68 677.977 128.68 677.432ZM132.477 681V672.273H133.818V681H132.477ZM133.159 670.818C132.898 670.818 132.672 670.729 132.483 670.551C132.297 670.373 132.205 670.159 132.205 669.909C132.205 669.659 132.297 669.445 132.483 669.267C132.672 669.089 132.898 669 133.159 669C133.42 669 133.644 669.089 133.83 669.267C134.019 669.445 134.114 669.659 134.114 669.909C134.114 670.159 134.019 670.373 133.83 670.551C133.644 670.729 133.42 670.818 133.159 670.818ZM143.411 672.273L140.183 681H138.82L135.592 672.273H137.047L139.456 679.227H139.547L141.956 672.273H143.411ZM148.413 681.182C147.625 681.182 146.934 680.994 146.339 680.619C145.749 680.244 145.286 679.72 144.953 679.045C144.624 678.371 144.459 677.583 144.459 676.682C144.459 675.773 144.624 674.979 144.953 674.301C145.286 673.623 145.749 673.097 146.339 672.722C146.934 672.347 147.625 672.159 148.413 672.159C149.201 672.159 149.891 672.347 150.482 672.722C151.076 673.097 151.538 673.623 151.868 674.301C152.201 674.979 152.368 675.773 152.368 676.682C152.368 677.583 152.201 678.371 151.868 679.045C151.538 679.72 151.076 680.244 150.482 680.619C149.891 680.994 149.201 681.182 148.413 681.182ZM148.413 679.977C149.012 679.977 149.504 679.824 149.891 679.517C150.277 679.21 150.563 678.807 150.749 678.307C150.934 677.807 151.027 677.265 151.027 676.682C151.027 676.098 150.934 675.555 150.749 675.051C150.563 674.547 150.277 674.14 149.891 673.83C149.504 673.519 149.012 673.364 148.413 673.364C147.815 673.364 147.322 673.519 146.936 673.83C146.55 674.14 146.264 674.547 146.078 675.051C145.893 675.555 145.8 676.098 145.8 676.682C145.8 677.265 145.893 677.807 146.078 678.307C146.264 678.807 146.55 679.21 146.936 679.517C147.322 679.824 147.815 679.977 148.413 679.977ZM160.597 674.227L159.392 674.568C159.316 674.367 159.205 674.172 159.057 673.983C158.913 673.79 158.716 673.631 158.466 673.506C158.216 673.381 157.896 673.318 157.506 673.318C156.972 673.318 156.527 673.441 156.17 673.688C155.818 673.93 155.642 674.239 155.642 674.614C155.642 674.947 155.763 675.21 156.006 675.403C156.248 675.597 156.627 675.758 157.142 675.886L158.438 676.205C159.218 676.394 159.799 676.684 160.182 677.074C160.564 677.46 160.756 677.958 160.756 678.568C160.756 679.068 160.612 679.515 160.324 679.909C160.04 680.303 159.642 680.614 159.131 680.841C158.619 681.068 158.025 681.182 157.347 681.182C156.456 681.182 155.72 680.989 155.136 680.602C154.553 680.216 154.184 679.652 154.028 678.909L155.301 678.591C155.422 679.061 155.652 679.413 155.989 679.648C156.33 679.883 156.775 680 157.324 680C157.949 680 158.445 679.867 158.812 679.602C159.184 679.333 159.369 679.011 159.369 678.636C159.369 678.333 159.263 678.08 159.051 677.875C158.839 677.667 158.513 677.511 158.074 677.409L156.619 677.068C155.82 676.879 155.233 676.585 154.858 676.188C154.487 675.786 154.301 675.284 154.301 674.682C154.301 674.189 154.439 673.754 154.716 673.375C154.996 672.996 155.377 672.699 155.858 672.483C156.343 672.267 156.892 672.159 157.506 672.159C158.369 672.159 159.047 672.348 159.54 672.727C160.036 673.106 160.388 673.606 160.597 674.227Z" fill="white"/>
<path d="M294 168H106C102.686 168 100 170.686 100 174V202C100 205.314 102.686 208 106 208H294C297.314 208 300 205.314 300 202V174C300 170.686 297.314 168 294 168Z" fill="#2ECC71"/>
<path d="M151.177 186.364C151.117 185.86 150.876 185.469 150.451 185.19C150.027 184.912 149.507 184.773 148.89 184.773C148.439 184.773 148.045 184.846 147.707 184.991C147.372 185.137 147.11 185.338 146.921 185.593C146.736 185.848 146.643 186.138 146.643 186.463C146.643 186.735 146.708 186.969 146.837 187.164C146.969 187.356 147.139 187.517 147.344 187.646C147.55 187.772 147.765 187.877 147.99 187.96C148.216 188.039 148.423 188.104 148.612 188.153L149.646 188.432C149.911 188.501 150.206 188.598 150.531 188.72C150.859 188.843 151.172 189.01 151.47 189.222C151.772 189.431 152.021 189.7 152.216 190.028C152.412 190.356 152.509 190.759 152.509 191.236C152.509 191.786 152.365 192.283 152.077 192.727C151.792 193.171 151.374 193.524 150.824 193.786C150.277 194.048 149.613 194.179 148.831 194.179C148.101 194.179 147.47 194.061 146.936 193.826C146.406 193.591 145.988 193.263 145.684 192.842C145.382 192.421 145.211 191.932 145.171 191.375H146.444C146.477 191.759 146.607 192.078 146.832 192.33C147.061 192.578 147.349 192.764 147.697 192.886C148.048 193.006 148.426 193.065 148.831 193.065C149.301 193.065 149.724 192.989 150.098 192.837C150.473 192.681 150.769 192.465 150.988 192.19C151.207 191.912 151.316 191.587 151.316 191.216C151.316 190.878 151.222 190.603 151.033 190.391C150.844 190.179 150.595 190.006 150.287 189.874C149.979 189.741 149.646 189.625 149.288 189.526L148.035 189.168C147.24 188.939 146.61 188.612 146.146 188.188C145.682 187.764 145.45 187.209 145.45 186.523C145.45 185.953 145.604 185.455 145.912 185.031C146.224 184.604 146.641 184.272 147.165 184.037C147.692 183.798 148.28 183.679 148.93 183.679C149.586 183.679 150.17 183.797 150.68 184.032C151.19 184.264 151.595 184.582 151.893 184.987C152.195 185.391 152.354 185.85 152.37 186.364H151.177ZM157.579 194.159C156.843 194.159 156.209 193.997 155.675 193.672C155.145 193.344 154.736 192.886 154.447 192.3C154.162 191.71 154.02 191.024 154.02 190.241C154.02 189.459 154.162 188.77 154.447 188.173C154.736 187.573 155.137 187.106 155.65 186.771C156.167 186.433 156.771 186.264 157.46 186.264C157.858 186.264 158.25 186.33 158.638 186.463C159.026 186.596 159.379 186.811 159.697 187.109C160.015 187.404 160.269 187.795 160.458 188.283C160.647 188.77 160.741 189.37 160.741 190.082V190.58H154.855V189.565H159.548C159.548 189.134 159.462 188.75 159.29 188.412C159.12 188.074 158.879 187.807 158.564 187.612C158.252 187.416 157.884 187.318 157.46 187.318C156.993 187.318 156.588 187.434 156.247 187.666C155.909 187.895 155.649 188.193 155.466 188.561C155.284 188.929 155.193 189.323 155.193 189.744V190.42C155.193 190.997 155.292 191.486 155.491 191.887C155.693 192.285 155.973 192.588 156.331 192.797C156.689 193.002 157.105 193.105 157.579 193.105C157.888 193.105 158.166 193.062 158.415 192.976C158.666 192.886 158.883 192.754 159.066 192.578C159.248 192.399 159.389 192.177 159.488 191.912L160.622 192.23C160.503 192.615 160.302 192.953 160.02 193.244C159.739 193.533 159.391 193.758 158.976 193.92C158.562 194.08 158.096 194.159 157.579 194.159ZM163.699 183.818V194H162.526V183.818H163.699ZM169.05 194.159C168.314 194.159 167.679 193.997 167.146 193.672C166.616 193.344 166.206 192.886 165.918 192.3C165.633 191.71 165.49 191.024 165.49 190.241C165.49 189.459 165.633 188.77 165.918 188.173C166.206 187.573 166.607 187.106 167.121 186.771C167.638 186.433 168.241 186.264 168.931 186.264C169.328 186.264 169.721 186.33 170.109 186.463C170.497 186.596 170.85 186.811 171.168 187.109C171.486 187.404 171.74 187.795 171.929 188.283C172.117 188.77 172.212 189.37 172.212 190.082V190.58H166.326V189.565H171.019C171.019 189.134 170.933 188.75 170.76 188.412C170.591 188.074 170.349 187.807 170.034 187.612C169.723 187.416 169.355 187.318 168.931 187.318C168.463 187.318 168.059 187.434 167.718 187.666C167.38 187.895 167.119 188.193 166.937 188.561C166.755 188.929 166.664 189.323 166.664 189.744V190.42C166.664 190.997 166.763 191.486 166.962 191.887C167.164 192.285 167.444 192.588 167.802 192.797C168.16 193.002 168.576 193.105 169.05 193.105C169.358 193.105 169.637 193.062 169.885 192.976C170.137 192.886 170.354 192.754 170.536 192.578C170.719 192.399 170.86 192.177 170.959 191.912L172.093 192.23C171.973 192.615 171.773 192.953 171.491 193.244C171.209 193.533 170.861 193.758 170.447 193.92C170.033 194.08 169.567 194.159 169.05 194.159ZM177.099 194.159C176.383 194.159 175.767 193.99 175.25 193.652C174.733 193.314 174.335 192.848 174.056 192.255C173.778 191.662 173.639 190.984 173.639 190.222C173.639 189.446 173.781 188.762 174.066 188.168C174.355 187.572 174.756 187.106 175.269 186.771C175.786 186.433 176.39 186.264 177.079 186.264C177.616 186.264 178.1 186.364 178.531 186.562C178.962 186.761 179.315 187.04 179.59 187.398C179.865 187.756 180.036 188.173 180.102 188.651H178.929C178.839 188.303 178.64 187.994 178.332 187.726C178.027 187.454 177.616 187.318 177.099 187.318C176.642 187.318 176.241 187.437 175.896 187.676C175.554 187.911 175.288 188.245 175.095 188.675C174.907 189.103 174.812 189.605 174.812 190.182C174.812 190.772 174.905 191.286 175.09 191.723C175.279 192.161 175.545 192.5 175.886 192.742C176.231 192.984 176.635 193.105 177.099 193.105C177.404 193.105 177.681 193.052 177.929 192.946C178.178 192.84 178.388 192.688 178.561 192.489C178.733 192.29 178.856 192.051 178.929 191.773H180.102C180.036 192.223 179.871 192.629 179.61 192.991C179.351 193.349 179.008 193.634 178.581 193.846C178.156 194.055 177.662 194.159 177.099 194.159ZM181.817 194V186.364H182.99V194H181.817ZM182.414 185.091C182.185 185.091 181.988 185.013 181.822 184.857C181.66 184.701 181.578 184.514 181.578 184.295C181.578 184.077 181.66 183.889 181.822 183.734C181.988 183.578 182.185 183.5 182.414 183.5C182.642 183.5 182.838 183.578 183 183.734C183.166 183.889 183.249 184.077 183.249 184.295C183.249 184.514 183.166 184.701 183 184.857C182.838 185.013 182.642 185.091 182.414 185.091ZM188.242 194.159C187.552 194.159 186.947 193.995 186.427 193.667C185.91 193.339 185.506 192.88 185.214 192.29C184.926 191.7 184.781 191.01 184.781 190.222C184.781 189.426 184.926 188.732 185.214 188.138C185.506 187.545 185.91 187.085 186.427 186.756C186.947 186.428 187.552 186.264 188.242 186.264C188.931 186.264 189.534 186.428 190.051 186.756C190.572 187.085 190.976 187.545 191.264 188.138C191.556 188.732 191.702 189.426 191.702 190.222C191.702 191.01 191.556 191.7 191.264 192.29C190.976 192.88 190.572 193.339 190.051 193.667C189.534 193.995 188.931 194.159 188.242 194.159ZM188.242 193.105C188.765 193.105 189.196 192.971 189.534 192.702C189.872 192.434 190.122 192.081 190.285 191.643C190.447 191.206 190.528 190.732 190.528 190.222C190.528 189.711 190.447 189.236 190.285 188.795C190.122 188.354 189.872 187.998 189.534 187.726C189.196 187.454 188.765 187.318 188.242 187.318C187.718 187.318 187.287 187.454 186.949 187.726C186.611 187.998 186.361 188.354 186.198 188.795C186.036 189.236 185.955 189.711 185.955 190.222C185.955 190.732 186.036 191.206 186.198 191.643C186.361 192.081 186.611 192.434 186.949 192.702C187.287 192.971 187.718 193.105 188.242 193.105ZM194.666 189.406V194H193.493V186.364H194.626V187.557H194.726C194.905 187.169 195.177 186.857 195.541 186.622C195.906 186.384 196.376 186.264 196.953 186.264C197.47 186.264 197.922 186.37 198.31 186.582C198.698 186.791 199 187.109 199.215 187.537C199.431 187.961 199.538 188.498 199.538 189.148V194H198.365V189.227C198.365 188.627 198.209 188.16 197.898 187.825C197.586 187.487 197.159 187.318 196.615 187.318C196.24 187.318 195.906 187.399 195.611 187.562C195.319 187.724 195.089 187.961 194.92 188.273C194.751 188.584 194.666 188.962 194.666 189.406ZM203.929 194.179C203.446 194.179 203.006 194.088 202.612 193.906C202.218 193.72 201.904 193.453 201.672 193.105C201.44 192.754 201.324 192.33 201.324 191.832C201.324 191.395 201.41 191.04 201.583 190.768C201.755 190.493 201.986 190.278 202.274 190.122C202.562 189.966 202.88 189.85 203.228 189.774C203.58 189.695 203.933 189.632 204.287 189.585C204.751 189.526 205.128 189.481 205.416 189.451C205.708 189.418 205.92 189.363 206.052 189.287C206.188 189.211 206.256 189.078 206.256 188.889V188.849C206.256 188.359 206.122 187.978 205.853 187.706C205.588 187.434 205.186 187.298 204.645 187.298C204.085 187.298 203.646 187.421 203.328 187.666C203.01 187.911 202.786 188.173 202.657 188.452L201.543 188.054C201.742 187.59 202.007 187.229 202.339 186.97C202.673 186.708 203.038 186.526 203.432 186.423C203.83 186.317 204.221 186.264 204.606 186.264C204.851 186.264 205.133 186.294 205.451 186.354C205.772 186.41 206.082 186.528 206.38 186.707C206.682 186.886 206.932 187.156 207.131 187.517C207.33 187.878 207.429 188.362 207.429 188.969V194H206.256V192.966H206.196C206.117 193.132 205.984 193.309 205.799 193.498C205.613 193.687 205.366 193.848 205.058 193.98C204.75 194.113 204.374 194.179 203.929 194.179ZM204.108 193.125C204.572 193.125 204.964 193.034 205.282 192.852C205.603 192.669 205.845 192.434 206.008 192.146C206.173 191.857 206.256 191.554 206.256 191.236V190.162C206.206 190.222 206.097 190.276 205.928 190.326C205.762 190.372 205.57 190.414 205.351 190.45C205.136 190.483 204.925 190.513 204.72 190.54C204.518 190.563 204.354 190.583 204.228 190.599C203.923 190.639 203.638 190.704 203.373 190.793C203.111 190.879 202.899 191.01 202.736 191.186C202.577 191.358 202.498 191.594 202.498 191.892C202.498 192.3 202.648 192.608 202.95 192.817C203.255 193.022 203.641 193.125 204.108 193.125ZM209.571 194V186.364H210.704V187.517H210.784C210.923 187.139 211.175 186.833 211.54 186.597C211.904 186.362 212.315 186.244 212.773 186.244C212.859 186.244 212.967 186.246 213.096 186.249C213.225 186.253 213.323 186.258 213.389 186.264V187.457C213.349 187.447 213.258 187.433 213.116 187.413C212.976 187.389 212.829 187.378 212.673 187.378C212.302 187.378 211.971 187.456 211.679 187.612C211.391 187.764 211.162 187.976 210.993 188.248C210.827 188.516 210.744 188.823 210.744 189.168V194H209.571ZM219.294 183.818L222.317 192.389H222.436L225.459 183.818H226.752L223.013 194H221.74L218.002 183.818H219.294ZM228.178 194V186.364H229.352V194H228.178ZM228.238 185.33L229.451 183.023H230.823L229.272 185.33H228.238ZM234.384 194.159C233.748 194.159 233.186 193.998 232.699 193.677C232.212 193.352 231.83 192.895 231.555 192.305C231.28 191.711 231.143 191.01 231.143 190.202C231.143 189.4 231.28 188.704 231.555 188.114C231.83 187.524 232.213 187.068 232.704 186.746C233.194 186.425 233.761 186.264 234.404 186.264C234.901 186.264 235.294 186.347 235.582 186.513C235.874 186.675 236.096 186.861 236.248 187.07C236.404 187.275 236.525 187.444 236.611 187.577H236.711V183.818H237.884V194H236.751V192.827H236.611C236.525 192.966 236.403 193.142 236.244 193.354C236.084 193.562 235.857 193.75 235.562 193.915C235.267 194.078 234.875 194.159 234.384 194.159ZM234.543 193.105C235.014 193.105 235.412 192.982 235.736 192.737C236.061 192.489 236.308 192.146 236.477 191.708C236.646 191.267 236.731 190.759 236.731 190.182C236.731 189.612 236.648 189.113 236.482 188.685C236.316 188.254 236.071 187.92 235.746 187.681C235.422 187.439 235.021 187.318 234.543 187.318C234.046 187.318 233.632 187.446 233.3 187.701C232.972 187.953 232.725 188.296 232.56 188.73C232.397 189.161 232.316 189.645 232.316 190.182C232.316 190.725 232.399 191.219 232.565 191.663C232.734 192.104 232.982 192.455 233.31 192.717C233.642 192.976 234.053 193.105 234.543 193.105ZM243.398 194.159C242.662 194.159 242.027 193.997 241.494 193.672C240.963 193.344 240.554 192.886 240.266 192.3C239.98 191.71 239.838 191.024 239.838 190.241C239.838 189.459 239.98 188.77 240.266 188.173C240.554 187.573 240.955 187.106 241.469 186.771C241.986 186.433 242.589 186.264 243.278 186.264C243.676 186.264 244.069 186.33 244.457 186.463C244.844 186.596 245.197 186.811 245.516 187.109C245.834 187.404 246.087 187.795 246.276 188.283C246.465 188.77 246.56 189.37 246.56 190.082V190.58H240.673V189.565H245.366C245.366 189.134 245.28 188.75 245.108 188.412C244.939 188.074 244.697 187.807 244.382 187.612C244.07 187.416 243.703 187.318 243.278 187.318C242.811 187.318 242.407 187.434 242.065 187.666C241.727 187.895 241.467 188.193 241.285 188.561C241.102 188.929 241.011 189.323 241.011 189.744V190.42C241.011 190.997 241.111 191.486 241.31 191.887C241.512 192.285 241.792 192.588 242.15 192.797C242.508 193.002 242.924 193.105 243.398 193.105C243.706 193.105 243.984 193.062 244.233 192.976C244.485 192.886 244.702 192.754 244.884 192.578C245.066 192.399 245.207 192.177 245.307 191.912L246.44 192.23C246.321 192.615 246.12 192.953 245.839 193.244C245.557 193.533 245.209 193.758 244.795 193.92C244.38 194.08 243.915 194.159 243.398 194.159ZM251.447 194.159C250.757 194.159 250.152 193.995 249.632 193.667C249.115 193.339 248.711 192.88 248.419 192.29C248.131 191.7 247.986 191.01 247.986 190.222C247.986 189.426 248.131 188.732 248.419 188.138C248.711 187.545 249.115 187.085 249.632 186.756C250.152 186.428 250.757 186.264 251.447 186.264C252.136 186.264 252.739 186.428 253.256 186.756C253.777 187.085 254.181 187.545 254.469 188.138C254.761 188.732 254.907 189.426 254.907 190.222C254.907 191.01 254.761 191.7 254.469 192.29C254.181 192.88 253.777 193.339 253.256 193.667C252.739 193.995 252.136 194.159 251.447 194.159ZM251.447 193.105C251.97 193.105 252.401 192.971 252.739 192.702C253.077 192.434 253.328 192.081 253.49 191.643C253.652 191.206 253.734 190.732 253.734 190.222C253.734 189.711 253.652 189.236 253.49 188.795C253.328 188.354 253.077 187.998 252.739 187.726C252.401 187.454 251.97 187.318 251.447 187.318C250.923 187.318 250.492 187.454 250.154 187.726C249.816 187.998 249.566 188.354 249.403 188.795C249.241 189.236 249.16 189.711 249.16 190.222C249.16 190.732 249.241 191.206 249.403 191.643C249.566 192.081 249.816 192.434 250.154 192.702C250.492 192.971 250.923 193.105 251.447 193.105Z" fill="white"/>
<path d="M57.9773 233.273V242H56.9545L52.1989 235.148H52.1136V242H51.0568V233.273H52.0795L56.8523 240.142H56.9375V233.273H57.9773ZM62.6147 242.136C62.0238 242.136 61.5053 241.996 61.0593 241.714C60.6161 241.433 60.2695 241.04 60.0195 240.534C59.7724 240.028 59.6488 239.437 59.6488 238.761C59.6488 238.08 59.7724 237.484 60.0195 236.976C60.2695 236.467 60.6161 236.072 61.0593 235.791C61.5053 235.51 62.0238 235.369 62.6147 235.369C63.2056 235.369 63.7227 235.51 64.1658 235.791C64.6119 236.072 64.9585 236.467 65.2056 236.976C65.4556 237.484 65.5806 238.08 65.5806 238.761C65.5806 239.437 65.4556 240.028 65.2056 240.534C64.9585 241.04 64.6119 241.433 64.1658 241.714C63.7227 241.996 63.2056 242.136 62.6147 242.136ZM62.6147 241.233C63.0636 241.233 63.4329 241.118 63.7227 240.888C64.0124 240.658 64.2269 240.355 64.3661 239.98C64.5053 239.605 64.5749 239.199 64.5749 238.761C64.5749 238.324 64.5053 237.916 64.3661 237.538C64.2269 237.161 64.0124 236.855 63.7227 236.622C63.4329 236.389 63.0636 236.273 62.6147 236.273C62.1658 236.273 61.7965 236.389 61.5067 236.622C61.217 236.855 61.0025 237.161 60.8633 237.538C60.7241 237.916 60.6545 238.324 60.6545 238.761C60.6545 239.199 60.7241 239.605 60.8633 239.98C61.0025 240.355 61.217 240.658 61.5067 240.888C61.7965 241.118 62.1658 241.233 62.6147 241.233ZM67.1158 242V235.455H68.0874V236.477H68.1726C68.3089 236.128 68.5291 235.857 68.8331 235.663C69.1371 235.467 69.5021 235.369 69.9283 235.369C70.3601 235.369 70.7195 235.467 71.0064 235.663C71.2962 235.857 71.522 236.128 71.6839 236.477H71.7521C71.9197 236.139 72.1712 235.871 72.5064 235.672C72.8416 235.47 73.2436 235.369 73.7124 235.369C74.2976 235.369 74.7763 235.553 75.1484 235.919C75.5206 236.283 75.7067 236.849 75.7067 237.619V242H74.701V237.619C74.701 237.136 74.5689 236.791 74.3047 236.584C74.0405 236.376 73.7294 236.273 73.3714 236.273C72.9112 236.273 72.5547 236.412 72.3018 236.69C72.049 236.966 71.9226 237.315 71.9226 237.739V242H70.8999V237.517C70.8999 237.145 70.7791 236.845 70.5376 236.618C70.2962 236.388 69.9851 236.273 69.6044 236.273C69.343 236.273 69.0987 236.342 68.8714 236.482C68.647 236.621 68.4652 236.814 68.326 237.061C68.1896 237.305 68.1214 237.588 68.1214 237.909V242H67.1158ZM80.2898 242.136C79.6591 242.136 79.1151 241.997 78.6577 241.719C78.2031 241.438 77.8523 241.045 77.6051 240.543C77.3608 240.037 77.2386 239.449 77.2386 238.778C77.2386 238.108 77.3608 237.517 77.6051 237.006C77.8523 236.491 78.196 236.091 78.6364 235.804C79.0795 235.514 79.5966 235.369 80.1875 235.369C80.5284 235.369 80.8651 235.426 81.1974 235.54C81.5298 235.653 81.8324 235.838 82.1051 236.094C82.3778 236.347 82.5952 236.682 82.7571 237.099C82.919 237.517 83 238.031 83 238.642V239.068H77.9545V238.199H81.9773C81.9773 237.83 81.9034 237.5 81.7557 237.21C81.6108 236.92 81.4034 236.692 81.1335 236.524C80.8665 236.357 80.5511 236.273 80.1875 236.273C79.7869 236.273 79.4403 236.372 79.1477 236.571C78.858 236.767 78.6349 237.023 78.4787 237.338C78.3224 237.653 78.2443 237.991 78.2443 238.352V238.932C78.2443 239.426 78.3295 239.845 78.5 240.189C78.6733 240.53 78.9134 240.79 79.2202 240.969C79.527 241.145 79.8835 241.233 80.2898 241.233C80.554 241.233 80.7926 241.196 81.0057 241.122C81.2216 241.045 81.4077 240.932 81.5639 240.781C81.7202 240.628 81.8409 240.437 81.9261 240.21L82.8977 240.483C82.7955 240.812 82.6236 241.102 82.3821 241.352C82.1406 241.599 81.8423 241.793 81.4872 241.932C81.1321 242.068 80.733 242.136 80.2898 242.136ZM90.3764 242.136C89.831 242.136 89.3494 241.999 88.9318 241.723C88.5142 241.445 88.1875 241.053 87.9517 240.547C87.7159 240.038 87.598 239.438 87.598 238.744C87.598 238.057 87.7159 237.46 87.9517 236.955C88.1875 236.449 88.5156 236.058 88.9361 235.783C89.3565 235.507 89.8423 235.369 90.3935 235.369C90.8196 235.369 91.1563 235.44 91.4034 235.582C91.6534 235.722 91.8438 235.881 91.9744 236.06C92.108 236.236 92.2116 236.381 92.2855 236.494H92.3707V233.273H93.3764V242H92.4048V240.994H92.2855C92.2116 241.114 92.1065 241.264 91.9702 241.446C91.8338 241.625 91.6392 241.786 91.3864 241.928C91.1335 242.067 90.7969 242.136 90.3764 242.136ZM90.5128 241.233C90.9162 241.233 91.2571 241.128 91.5355 240.918C91.8139 240.705 92.0256 240.411 92.1705 240.036C92.3153 239.658 92.3878 239.222 92.3878 238.727C92.3878 238.239 92.3168 237.811 92.1747 237.445C92.0327 237.075 91.8224 236.788 91.544 236.584C91.2656 236.376 90.9219 236.273 90.5128 236.273C90.0866 236.273 89.7315 236.382 89.4474 236.601C89.1662 236.817 88.9545 237.111 88.8125 237.483C88.6733 237.852 88.6037 238.267 88.6037 238.727C88.6037 239.193 88.6747 239.616 88.8168 239.997C88.9616 240.375 89.1747 240.676 89.456 240.901C89.7401 241.122 90.0923 241.233 90.5128 241.233ZM98.017 242.136C97.4261 242.136 96.9077 241.996 96.4616 241.714C96.0185 241.433 95.6719 241.04 95.4219 240.534C95.1747 240.028 95.0511 239.437 95.0511 238.761C95.0511 238.08 95.1747 237.484 95.4219 236.976C95.6719 236.467 96.0185 236.072 96.4616 235.791C96.9077 235.51 97.4261 235.369 98.017 235.369C98.608 235.369 99.125 235.51 99.5682 235.791C100.014 236.072 100.361 236.467 100.608 236.976C100.858 237.484 100.983 238.08 100.983 238.761C100.983 239.437 100.858 240.028 100.608 240.534C100.361 241.04 100.014 241.433 99.5682 241.714C99.125 241.996 98.608 242.136 98.017 242.136ZM98.017 241.233C98.4659 241.233 98.8352 241.118 99.125 240.888C99.4148 240.658 99.6293 240.355 99.7685 239.98C99.9077 239.605 99.9773 239.199 99.9773 238.761C99.9773 238.324 99.9077 237.916 99.7685 237.538C99.6293 237.161 99.4148 236.855 99.125 236.622C98.8352 236.389 98.4659 236.273 98.017 236.273C97.5682 236.273 97.1989 236.389 96.9091 236.622C96.6193 236.855 96.4048 237.161 96.2656 237.538C96.1264 237.916 96.0568 238.324 96.0568 238.761C96.0568 239.199 96.1264 239.605 96.2656 239.98C96.4048 240.355 96.6193 240.658 96.9091 240.888C97.1989 241.118 97.5682 241.233 98.017 241.233ZM106.387 233.273L108.978 240.619H109.081L111.672 233.273H112.779L109.575 242H108.484L105.279 233.273H106.387ZM114.002 242V235.455H115.008V242H114.002ZM114.054 234.568L115.093 232.591H116.27L114.94 234.568H114.054ZM119.322 242.136C118.776 242.136 118.295 241.999 117.877 241.723C117.46 241.445 117.133 241.053 116.897 240.547C116.661 240.038 116.543 239.438 116.543 238.744C116.543 238.057 116.661 237.46 116.897 236.955C117.133 236.449 117.461 236.058 117.881 235.783C118.302 235.507 118.788 235.369 119.339 235.369C119.765 235.369 120.102 235.44 120.349 235.582C120.599 235.722 120.789 235.881 120.92 236.06C121.053 236.236 121.157 236.381 121.231 236.494H121.316V233.273H122.322V242H121.35V240.994H121.231C121.157 241.114 121.052 241.264 120.915 241.446C120.779 241.625 120.585 241.786 120.332 241.928C120.079 242.067 119.742 242.136 119.322 242.136ZM119.458 241.233C119.862 241.233 120.202 241.128 120.481 240.918C120.759 240.705 120.971 240.411 121.116 240.036C121.261 239.658 121.333 239.222 121.333 238.727C121.333 238.239 121.262 237.811 121.12 237.445C120.978 237.075 120.768 236.788 120.489 236.584C120.211 236.376 119.867 236.273 119.458 236.273C119.032 236.273 118.677 236.382 118.393 236.601C118.112 236.817 117.9 237.111 117.758 237.483C117.619 237.852 117.549 238.267 117.549 238.727C117.549 239.193 117.62 239.616 117.762 239.997C117.907 240.375 118.12 240.676 118.401 240.901C118.685 241.122 119.038 241.233 119.458 241.233ZM127.048 242.136C126.417 242.136 125.873 241.997 125.415 241.719C124.961 241.438 124.61 241.045 124.363 240.543C124.119 240.037 123.996 239.449 123.996 238.778C123.996 238.108 124.119 237.517 124.363 237.006C124.61 236.491 124.954 236.091 125.394 235.804C125.837 235.514 126.354 235.369 126.945 235.369C127.286 235.369 127.623 235.426 127.955 235.54C128.288 235.653 128.59 235.838 128.863 236.094C129.136 236.347 129.353 236.682 129.515 237.099C129.677 237.517 129.758 238.031 129.758 238.642V239.068H124.712V238.199H128.735C128.735 237.83 128.661 237.5 128.513 237.21C128.369 236.92 128.161 236.692 127.891 236.524C127.624 236.357 127.309 236.273 126.945 236.273C126.545 236.273 126.198 236.372 125.906 236.571C125.616 236.767 125.393 237.023 125.237 237.338C125.08 237.653 125.002 237.991 125.002 238.352V238.932C125.002 239.426 125.087 239.845 125.258 240.189C125.431 240.53 125.671 240.79 125.978 240.969C126.285 241.145 126.641 241.233 127.048 241.233C127.312 241.233 127.55 241.196 127.763 241.122C127.979 241.045 128.165 240.932 128.322 240.781C128.478 240.628 128.599 240.437 128.684 240.21L129.656 240.483C129.553 240.812 129.381 241.102 129.14 241.352C128.898 241.599 128.6 241.793 128.245 241.932C127.89 242.068 127.491 242.136 127.048 242.136ZM133.947 242.136C133.356 242.136 132.837 241.996 132.391 241.714C131.948 241.433 131.602 241.04 131.352 240.534C131.104 240.028 130.981 239.437 130.981 238.761C130.981 238.08 131.104 237.484 131.352 236.976C131.602 236.467 131.948 236.072 132.391 235.791C132.837 235.51 133.356 235.369 133.947 235.369C134.538 235.369 135.055 235.51 135.498 235.791C135.944 236.072 136.29 236.467 136.538 236.976C136.788 237.484 136.913 238.08 136.913 238.761C136.913 239.437 136.788 240.028 136.538 240.534C136.29 241.04 135.944 241.433 135.498 241.714C135.055 241.996 134.538 242.136 133.947 242.136ZM133.947 241.233C134.396 241.233 134.765 241.118 135.055 240.888C135.344 240.658 135.559 240.355 135.698 239.98C135.837 239.605 135.907 239.199 135.907 238.761C135.907 238.324 135.837 237.916 135.698 237.538C135.559 237.161 135.344 236.855 135.055 236.622C134.765 236.389 134.396 236.273 133.947 236.273C133.498 236.273 133.129 236.389 132.839 236.622C132.549 236.855 132.335 237.161 132.195 237.538C132.056 237.916 131.987 238.324 131.987 238.761C131.987 239.199 132.056 239.605 132.195 239.98C132.335 240.355 132.549 240.658 132.839 240.888C133.129 241.118 133.498 241.233 133.947 241.233Z" fill="white"/>
<path d="M346 252H54C51.7909 252 50 253.791 50 256V278C50 280.209 51.7909 282 54 282H346C348.209 282 350 280.209 350 278V256C350 253.791 348.209 252 346 252Z" fill="#2A1F3D" stroke="#555555"/>
<path d="M294 533H106C102.686 533 100 535.686 100 539V567C100 570.314 102.686 573 106 573H294C297.314 573 300 570.314 300 567V539C300 535.686 297.314 533 294 533Z" fill="#2ECC71"/>
<path d="M181.485 559V548.818H187.63V549.912H182.718V553.352H187.312V554.446H182.718V557.906H187.709V559H181.485ZM190.866 554.406V559H189.693V551.364H190.827V552.557H190.926C191.105 552.169 191.377 551.857 191.741 551.622C192.106 551.384 192.577 551.264 193.153 551.264C193.67 551.264 194.123 551.37 194.51 551.582C194.898 551.791 195.2 552.109 195.415 552.537C195.631 552.961 195.738 553.498 195.738 554.148V559H194.565V554.227C194.565 553.627 194.409 553.16 194.098 552.825C193.786 552.487 193.359 552.318 192.815 552.318C192.441 552.318 192.106 552.399 191.811 552.562C191.519 552.724 191.289 552.961 191.12 553.273C190.951 553.584 190.866 553.962 190.866 554.406ZM203.853 551.364L201.029 559H199.836L197.012 551.364H198.285L200.393 557.449H200.473L202.581 551.364H203.853ZM205.402 559V551.364H206.575V559H205.402ZM205.999 550.091C205.77 550.091 205.573 550.013 205.407 549.857C205.245 549.701 205.163 549.514 205.163 549.295C205.163 549.077 205.245 548.889 205.407 548.734C205.573 548.578 205.77 548.5 205.999 548.5C206.227 548.5 206.423 548.578 206.585 548.734C206.751 548.889 206.834 549.077 206.834 549.295C206.834 549.514 206.751 549.701 206.585 549.857C206.423 550.013 206.227 550.091 205.999 550.091ZM210.971 559.179C210.488 559.179 210.048 559.088 209.654 558.906C209.26 558.72 208.946 558.453 208.714 558.105C208.482 557.754 208.366 557.33 208.366 556.832C208.366 556.395 208.452 556.04 208.625 555.768C208.797 555.493 209.028 555.278 209.316 555.122C209.604 554.966 209.922 554.85 210.27 554.774C210.622 554.695 210.975 554.632 211.329 554.585C211.793 554.526 212.17 554.481 212.458 554.451C212.75 554.418 212.962 554.363 213.094 554.287C213.23 554.211 213.298 554.078 213.298 553.889V553.849C213.298 553.359 213.164 552.978 212.895 552.706C212.63 552.434 212.228 552.298 211.687 552.298C211.127 552.298 210.688 552.421 210.37 552.666C210.052 552.911 209.828 553.173 209.699 553.452L208.585 553.054C208.784 552.59 209.049 552.229 209.381 551.97C209.715 551.708 210.08 551.526 210.474 551.423C210.872 551.317 211.263 551.264 211.648 551.264C211.893 551.264 212.175 551.294 212.493 551.354C212.814 551.41 213.124 551.528 213.422 551.707C213.724 551.886 213.974 552.156 214.173 552.517C214.372 552.878 214.471 553.362 214.471 553.969V559H213.298V557.966H213.238C213.159 558.132 213.026 558.309 212.841 558.498C212.655 558.687 212.408 558.848 212.1 558.98C211.792 559.113 211.416 559.179 210.971 559.179ZM211.15 558.125C211.614 558.125 212.006 558.034 212.324 557.852C212.645 557.669 212.887 557.434 213.05 557.146C213.215 556.857 213.298 556.554 213.298 556.236V555.162C213.248 555.222 213.139 555.276 212.97 555.326C212.804 555.372 212.612 555.414 212.393 555.45C212.178 555.483 211.967 555.513 211.762 555.54C211.56 555.563 211.396 555.583 211.27 555.599C210.965 555.639 210.68 555.704 210.415 555.793C210.153 555.879 209.941 556.01 209.778 556.186C209.619 556.358 209.54 556.594 209.54 556.892C209.54 557.3 209.69 557.608 209.992 557.817C210.297 558.022 210.683 558.125 211.15 558.125ZM216.613 559V551.364H217.746V552.517H217.826C217.965 552.139 218.217 551.833 218.582 551.597C218.946 551.362 219.357 551.244 219.815 551.244C219.901 551.244 220.009 551.246 220.138 551.249C220.267 551.253 220.365 551.258 220.431 551.264V552.457C220.391 552.447 220.3 552.433 220.158 552.413C220.018 552.389 219.871 552.378 219.715 552.378C219.344 552.378 219.013 552.456 218.721 552.612C218.433 552.764 218.204 552.976 218.035 553.248C217.869 553.516 217.786 553.823 217.786 554.168V559H216.613Z" fill="white"/>
<path d="M344 328H56C52.6863 328 50 330.686 50 334V502C50 505.314 52.6863 508 56 508H344C347.314 508 350 505.314 350 502V334C350 330.686 347.314 328 344 328Z" fill="#2A1F3D"/>
<path d="M180 400L220 420L180 440V400Z" fill="#2ECC71"/>
<path d="M344 328H56C52.6863 328 50 330.686 50 334V502C50 505.314 52.6863 508 56 508H344C347.314 508 350 505.314 350 502V334C350 330.686 347.314 328 344 328Z" fill="#2A1F3D"/>
<path d="M180 400L220 420L180 440V400Z" fill="#2ECC71"/>
</svg>
