<svg width="400" height="700" viewBox="0 0 400 700" fill="none" xmlns="http://www.w3.org/2000/svg">
<path d="M400 0H0V700H400V0Z" fill="#1B0B26"/>
<path d="M400 0H0V50H400V0Z" fill="#1E1A21"/>
<path d="M400 0H0V50H400V0Z" fill="#1E1A21"/>
<rect x="314" width="86" height="50" rx="8" fill="#2D2828"/>
<path d="M337.409 31V19.3636H338.818V29.75H344.227V31H337.409ZM349.773 31.1818C348.985 31.1818 348.294 30.9943 347.699 30.6193C347.108 30.2443 346.646 29.7197 346.312 29.0455C345.983 28.3712 345.818 27.5833 345.818 26.6818C345.818 25.7727 345.983 24.9792 346.312 24.3011C346.646 23.6231 347.108 23.0966 347.699 22.7216C348.294 22.3466 348.985 22.1591 349.773 22.1591C350.561 22.1591 351.25 22.3466 351.841 22.7216C352.436 23.0966 352.898 23.6231 353.227 24.3011C353.561 24.9792 353.727 25.7727 353.727 26.6818C353.727 27.5833 353.561 28.3712 353.227 29.0455C352.898 29.7197 352.436 30.2443 351.841 30.6193C351.25 30.9943 350.561 31.1818 349.773 31.1818ZM349.773 29.9773C350.371 29.9773 350.864 29.8239 351.25 29.517C351.636 29.2102 351.922 28.8068 352.108 28.3068C352.294 27.8068 352.386 27.2652 352.386 26.6818C352.386 26.0985 352.294 25.5549 352.108 25.0511C351.922 24.5473 351.636 24.1402 351.25 23.8295C350.864 23.5189 350.371 23.3636 349.773 23.3636C349.174 23.3636 348.682 23.5189 348.295 23.8295C347.909 24.1402 347.623 24.5473 347.438 25.0511C347.252 25.5549 347.159 26.0985 347.159 26.6818C347.159 27.2652 347.252 27.8068 347.438 28.3068C347.623 28.8068 347.909 29.2102 348.295 29.517C348.682 29.8239 349.174 29.9773 349.773 29.9773ZM359.297 34.4545C358.649 34.4545 358.092 34.3712 357.626 34.2045C357.161 34.0417 356.772 33.8258 356.462 33.5568C356.155 33.2917 355.911 33.0076 355.729 32.7045L356.797 31.9545C356.918 32.1136 357.071 32.2955 357.257 32.5C357.443 32.7083 357.696 32.8883 358.018 33.0398C358.344 33.1951 358.77 33.2727 359.297 33.2727C360.001 33.2727 360.583 33.1023 361.041 32.7614C361.5 32.4205 361.729 31.8864 361.729 31.1591V29.3864H361.615C361.517 29.5455 361.376 29.7424 361.195 29.9773C361.017 30.2083 360.759 30.4148 360.422 30.5966C360.089 30.7746 359.638 30.8636 359.07 30.8636C358.365 30.8636 357.732 30.697 357.172 30.3636C356.615 30.0303 356.174 29.5455 355.848 28.9091C355.526 28.2727 355.365 27.5 355.365 26.5909C355.365 25.697 355.522 24.9186 355.837 24.2557C356.151 23.589 356.589 23.0739 357.149 22.7102C357.71 22.3428 358.357 22.1591 359.092 22.1591C359.661 22.1591 360.111 22.2538 360.445 22.4432C360.782 22.6288 361.039 22.8409 361.217 23.0795C361.399 23.3144 361.539 23.5076 361.638 23.6591H361.774V22.2727H363.07V31.25C363.07 32 362.899 32.6098 362.558 33.0795C362.221 33.553 361.767 33.8996 361.195 34.1193C360.626 34.3428 359.994 34.4545 359.297 34.4545ZM359.251 29.6591C359.789 29.6591 360.244 29.536 360.615 29.2898C360.986 29.0436 361.268 28.6894 361.462 28.2273C361.655 27.7652 361.751 27.2121 361.751 26.5682C361.751 25.9394 361.657 25.3845 361.467 24.9034C361.278 24.4223 360.998 24.0455 360.626 23.7727C360.255 23.5 359.797 23.3636 359.251 23.3636C358.683 23.3636 358.21 23.5076 357.831 23.7955C357.456 24.0833 357.174 24.4697 356.984 24.9545C356.799 25.4394 356.706 25.9773 356.706 26.5682C356.706 27.1742 356.801 27.7102 356.99 28.1761C357.183 28.6383 357.467 29.0019 357.842 29.267C358.221 29.5284 358.691 29.6591 359.251 29.6591ZM365.524 31V22.2727H366.865V31H365.524ZM366.206 20.8182C365.945 20.8182 365.719 20.7292 365.53 20.5511C365.344 20.3731 365.251 20.1591 365.251 19.9091C365.251 19.6591 365.344 19.4451 365.53 19.267C365.719 19.089 365.945 19 366.206 19C366.467 19 366.691 19.089 366.876 19.267C367.066 19.4451 367.161 19.6591 367.161 19.9091C367.161 20.1591 367.066 20.3731 366.876 20.5511C366.691 20.7292 366.467 20.8182 366.206 20.8182ZM370.662 25.75V31H369.321V22.2727H370.616V23.6364H370.73C370.935 23.1932 371.245 22.8371 371.662 22.5682C372.079 22.2955 372.616 22.1591 373.276 22.1591C373.866 22.1591 374.384 22.2803 374.827 22.5227C375.27 22.7614 375.615 23.125 375.861 23.6136C376.107 24.0985 376.23 24.7121 376.23 25.4545V31H374.889V25.5455C374.889 24.8598 374.711 24.3258 374.355 23.9432C373.999 23.5568 373.51 23.3636 372.889 23.3636C372.461 23.3636 372.079 23.4564 371.741 23.642C371.408 23.8277 371.145 24.0985 370.952 24.4545C370.759 24.8106 370.662 25.2424 370.662 25.75Z" fill="white"/>
<path d="M16.4091 29V17.3636H23.3864V18.6136H17.8182V22.5455H22.8636V23.7955H17.8182V29H16.4091ZM25.6179 29V20.2727H26.9588V29H25.6179ZM26.2997 18.8182C26.0384 18.8182 25.813 18.7292 25.6236 18.5511C25.438 18.3731 25.3452 18.1591 25.3452 17.9091C25.3452 17.6591 25.438 17.4451 25.6236 17.267C25.813 17.089 26.0384 17 26.2997 17C26.5611 17 26.7846 17.089 26.9702 17.267C27.1596 17.4451 27.2543 17.6591 27.2543 17.9091C27.2543 18.1591 27.1596 18.3731 26.9702 18.5511C26.7846 18.7292 26.5611 18.8182 26.2997 18.8182ZM30.7557 17.3636V29H29.4148V17.3636H30.7557ZM36.8707 29.1818C36.0298 29.1818 35.3045 28.9962 34.6946 28.625C34.0885 28.25 33.6207 27.7273 33.2912 27.0568C32.9654 26.3826 32.8026 25.5985 32.8026 24.7045C32.8026 23.8106 32.9654 23.0227 33.2912 22.3409C33.6207 21.6553 34.0791 21.1212 34.6662 20.7386C35.2571 20.3523 35.9465 20.1591 36.7344 20.1591C37.1889 20.1591 37.6378 20.2348 38.081 20.3864C38.5241 20.5379 38.9276 20.7841 39.2912 21.125C39.6548 21.4621 39.9446 21.9091 40.1605 22.4659C40.3764 23.0227 40.4844 23.7083 40.4844 24.5227V25.0909H33.7571V23.9318H39.1207C39.1207 23.4394 39.0223 23 38.8253 22.6136C38.6321 22.2273 38.3556 21.9223 37.9957 21.6989C37.6397 21.4754 37.2192 21.3636 36.7344 21.3636C36.2003 21.3636 35.7382 21.4962 35.348 21.7614C34.9616 22.0227 34.6643 22.3636 34.456 22.7841C34.2476 23.2045 34.1435 23.6553 34.1435 24.1364V24.9091C34.1435 25.5682 34.2571 26.1269 34.4844 26.5852C34.7154 27.0398 35.0355 27.3864 35.4446 27.625C35.8537 27.8598 36.3291 27.9773 36.8707 27.9773C37.223 27.9773 37.5412 27.928 37.8253 27.8295C38.1132 27.7273 38.3613 27.5758 38.5696 27.375C38.7779 27.1705 38.9389 26.9167 39.0526 26.6136L40.348 26.9773C40.2116 27.4167 39.9825 27.803 39.6605 28.1364C39.3385 28.4659 38.9408 28.7235 38.4673 28.9091C37.9938 29.0909 37.4616 29.1818 36.8707 29.1818ZM53.5696 20.2727C53.5014 19.697 53.2249 19.25 52.7401 18.9318C52.2552 18.6136 51.6605 18.4545 50.956 18.4545C50.4408 18.4545 49.9901 18.5379 49.6037 18.7045C49.2211 18.8712 48.9219 19.1004 48.706 19.392C48.4938 19.6837 48.3878 20.0152 48.3878 20.3864C48.3878 20.697 48.4616 20.964 48.6094 21.1875C48.7609 21.4072 48.9541 21.5909 49.1889 21.7386C49.4238 21.8826 49.67 22.0019 49.9276 22.0966C50.1851 22.1875 50.4219 22.2614 50.6378 22.3182L51.8196 22.6364C52.1226 22.7159 52.4598 22.8258 52.831 22.9659C53.206 23.1061 53.5639 23.2973 53.9048 23.5398C54.2495 23.7784 54.5336 24.0852 54.7571 24.4602C54.9806 24.8352 55.0923 25.2955 55.0923 25.8409C55.0923 26.4697 54.9276 27.0379 54.598 27.5455C54.2723 28.053 53.795 28.4564 53.1662 28.7557C52.5412 29.0549 51.7817 29.2045 50.8878 29.2045C50.0545 29.2045 49.3329 29.0701 48.723 28.8011C48.117 28.5322 47.6397 28.1572 47.2912 27.6761C46.9465 27.1951 46.7514 26.6364 46.706 26H48.1605C48.1984 26.4394 48.3461 26.803 48.6037 27.0909C48.8651 27.375 49.1946 27.5871 49.5923 27.7273C49.9938 27.8636 50.4257 27.9318 50.8878 27.9318C51.4257 27.9318 51.9086 27.8447 52.3366 27.6705C52.7647 27.4924 53.1037 27.2462 53.3537 26.9318C53.6037 26.6136 53.7287 26.2424 53.7287 25.8182C53.7287 25.4318 53.6207 25.1174 53.4048 24.875C53.1889 24.6326 52.9048 24.4356 52.5526 24.2841C52.2003 24.1326 51.8196 24 51.4105 23.8864L49.9787 23.4773C49.0696 23.2159 48.3499 22.8428 47.8196 22.358C47.2893 21.8731 47.0241 21.2386 47.0241 20.4545C47.0241 19.803 47.2003 19.2348 47.5526 18.75C47.9086 18.2614 48.3859 17.8826 48.9844 17.6136C49.5866 17.3409 50.259 17.2045 51.0014 17.2045C51.7514 17.2045 52.4181 17.339 53.0014 17.608C53.5848 17.8731 54.0469 18.2367 54.3878 18.6989C54.7325 19.161 54.9143 19.6856 54.9332 20.2727H53.5696ZM58.5682 23.75V29H57.2273V17.3636H58.5682V21.6364H58.6818C58.8864 21.1856 59.1932 20.8277 59.6023 20.5625C60.0152 20.2936 60.5644 20.1591 61.25 20.1591C61.8447 20.1591 62.3655 20.2784 62.8125 20.517C63.2595 20.7519 63.6061 21.1136 63.8523 21.6023C64.1023 22.0871 64.2273 22.7045 64.2273 23.4545V29H62.8864V23.5455C62.8864 22.8523 62.7064 22.3163 62.3466 21.9375C61.9905 21.5549 61.4962 21.3636 60.8636 21.3636C60.4242 21.3636 60.0303 21.4564 59.6818 21.642C59.3371 21.8277 59.0644 22.0985 58.8636 22.4545C58.6667 22.8106 58.5682 23.2424 58.5682 23.75ZM69.2486 29.2045C68.6955 29.2045 68.1937 29.1004 67.7429 28.892C67.2921 28.6799 66.9342 28.375 66.669 27.9773C66.4039 27.5758 66.2713 27.0909 66.2713 26.5227C66.2713 26.0227 66.3698 25.6174 66.5668 25.3068C66.7637 24.9924 67.027 24.7462 67.3565 24.5682C67.6861 24.3902 68.0497 24.2576 68.4474 24.1705C68.849 24.0795 69.2524 24.0076 69.6577 23.9545C70.188 23.8864 70.6179 23.8352 70.9474 23.8011C71.2808 23.7633 71.5232 23.7008 71.6747 23.6136C71.83 23.5265 71.9077 23.375 71.9077 23.1591V23.1136C71.9077 22.553 71.7543 22.1174 71.4474 21.8068C71.1444 21.4962 70.6842 21.3409 70.0668 21.3409C69.4266 21.3409 68.9247 21.4811 68.5611 21.7614C68.1974 22.0417 67.9418 22.3409 67.794 22.6591L66.5213 22.2045C66.7486 21.6742 67.0516 21.2614 67.4304 20.9659C67.813 20.6667 68.2296 20.4583 68.6804 20.3409C69.1349 20.2197 69.5819 20.1591 70.0213 20.1591C70.3016 20.1591 70.6236 20.1932 70.9872 20.2614C71.3546 20.3258 71.7088 20.4602 72.0497 20.6648C72.3944 20.8693 72.6804 21.178 72.9077 21.5909C73.1349 22.0038 73.2486 22.5568 73.2486 23.25V29H71.9077V27.8182H71.8395C71.7486 28.0076 71.5971 28.2102 71.3849 28.4261C71.1728 28.642 70.8906 28.8258 70.5384 28.9773C70.1861 29.1288 69.7562 29.2045 69.2486 29.2045ZM69.4531 28C69.9834 28 70.4304 27.8958 70.794 27.6875C71.1615 27.4792 71.438 27.2102 71.6236 26.8807C71.813 26.5511 71.9077 26.2045 71.9077 25.8409V24.6136C71.8509 24.6818 71.7259 24.7443 71.5327 24.8011C71.3433 24.8542 71.1236 24.9015 70.8736 24.9432C70.6274 24.9811 70.3868 25.0152 70.152 25.0455C69.9209 25.072 69.7334 25.0947 69.5895 25.1136C69.241 25.1591 68.9152 25.233 68.6122 25.3352C68.313 25.4337 68.0705 25.5833 67.8849 25.7841C67.7031 25.9811 67.6122 26.25 67.6122 26.5909C67.6122 27.0568 67.7846 27.4091 68.1293 27.6477C68.4777 27.8826 68.919 28 69.4531 28ZM75.696 29V20.2727H76.9915V21.5909H77.0824C77.2415 21.1591 77.5294 20.8087 77.946 20.5398C78.3627 20.2708 78.8324 20.1364 79.3551 20.1364C79.4536 20.1364 79.5767 20.1383 79.7244 20.142C79.8722 20.1458 79.9839 20.1515 80.0597 20.1591V21.5227C80.0142 21.5114 79.91 21.4943 79.7472 21.4716C79.5881 21.4451 79.4195 21.4318 79.2415 21.4318C78.8172 21.4318 78.4384 21.5208 78.1051 21.6989C77.7756 21.8731 77.5142 22.1155 77.321 22.4261C77.1316 22.733 77.0369 23.0833 77.0369 23.4773V29H75.696ZM85.0426 29.1818C84.2017 29.1818 83.4763 28.9962 82.8665 28.625C82.2604 28.25 81.7926 27.7273 81.4631 27.0568C81.1373 26.3826 80.9744 25.5985 80.9744 24.7045C80.9744 23.8106 81.1373 23.0227 81.4631 22.3409C81.7926 21.6553 82.2509 21.1212 82.8381 20.7386C83.429 20.3523 84.1184 20.1591 84.9062 20.1591C85.3608 20.1591 85.8097 20.2348 86.2528 20.3864C86.696 20.5379 87.0994 20.7841 87.4631 21.125C87.8267 21.4621 88.1165 21.9091 88.3324 22.4659C88.5483 23.0227 88.6562 23.7083 88.6562 24.5227V25.0909H81.929V23.9318H87.2926C87.2926 23.4394 87.1941 23 86.9972 22.6136C86.804 22.2273 86.5275 21.9223 86.1676 21.6989C85.8116 21.4754 85.3911 21.3636 84.9062 21.3636C84.3722 21.3636 83.91 21.4962 83.5199 21.7614C83.1335 22.0227 82.8362 22.3636 82.6278 22.7841C82.4195 23.2045 82.3153 23.6553 82.3153 24.1364V24.9091C82.3153 25.5682 82.429 26.1269 82.6562 26.5852C82.8873 27.0398 83.2074 27.3864 83.6165 27.625C84.0256 27.8598 84.5009 27.9773 85.0426 27.9773C85.3949 27.9773 85.7131 27.928 85.9972 27.8295C86.285 27.7273 86.5331 27.5758 86.7415 27.375C86.9498 27.1705 87.1108 26.9167 87.2244 26.6136L88.5199 26.9773C88.3835 27.4167 88.1544 27.803 87.8324 28.1364C87.5104 28.4659 87.1127 28.7235 86.6392 28.9091C86.1657 29.0909 85.6335 29.1818 85.0426 29.1818Z" fill="#2ECC71"/>
<path d="M178.085 100V86.9091H179.67V98.5938H185.756V100H178.085ZM191.994 100.205C191.108 100.205 190.33 99.9936 189.661 99.5717C188.996 99.1499 188.477 98.5597 188.102 97.8011C187.731 97.0426 187.545 96.1562 187.545 95.142C187.545 94.1193 187.731 93.2266 188.102 92.4638C188.477 91.701 188.996 91.1087 189.661 90.6868C190.33 90.2649 191.108 90.054 191.994 90.054C192.881 90.054 193.656 90.2649 194.321 90.6868C194.99 91.1087 195.51 91.701 195.881 92.4638C196.256 93.2266 196.443 94.1193 196.443 95.142C196.443 96.1562 196.256 97.0426 195.881 97.8011C195.51 98.5597 194.99 99.1499 194.321 99.5717C193.656 99.9936 192.881 100.205 191.994 100.205ZM191.994 98.8494C192.668 98.8494 193.222 98.6768 193.656 98.3317C194.091 97.9865 194.413 97.5327 194.621 96.9702C194.83 96.4077 194.935 95.7983 194.935 95.142C194.935 94.4858 194.83 93.8743 194.621 93.3075C194.413 92.7408 194.091 92.2827 193.656 91.9332C193.222 91.5838 192.668 91.4091 191.994 91.4091C191.321 91.4091 190.767 91.5838 190.332 91.9332C189.898 92.2827 189.576 92.7408 189.367 93.3075C189.158 93.8743 189.054 94.4858 189.054 95.142C189.054 95.7983 189.158 96.4077 189.367 96.9702C189.576 97.5327 189.898 97.9865 190.332 98.3317C190.767 98.6768 191.321 98.8494 191.994 98.8494ZM202.709 103.886C201.98 103.886 201.354 103.793 200.83 103.605C200.306 103.422 199.869 103.179 199.519 102.876C199.174 102.578 198.899 102.259 198.695 101.918L199.896 101.074C200.033 101.253 200.205 101.457 200.414 101.688C200.623 101.922 200.909 102.124 201.271 102.295C201.637 102.469 202.117 102.557 202.709 102.557C203.502 102.557 204.156 102.365 204.671 101.982C205.187 101.598 205.445 100.997 205.445 100.179V98.1847H205.317C205.206 98.3636 205.048 98.5852 204.844 98.8494C204.644 99.1094 204.354 99.3416 203.975 99.5462C203.6 99.7464 203.093 99.8466 202.453 99.8466C201.661 99.8466 200.949 99.6591 200.318 99.2841C199.692 98.9091 199.195 98.3636 198.829 97.6477C198.467 96.9318 198.286 96.0625 198.286 95.0398C198.286 94.0341 198.463 93.1584 198.816 92.4126C199.17 91.6626 199.662 91.0831 200.293 90.674C200.923 90.2607 201.652 90.054 202.479 90.054C203.118 90.054 203.625 90.1605 204 90.3736C204.379 90.5824 204.669 90.821 204.869 91.0895C205.074 91.3537 205.232 91.571 205.343 91.7415H205.496V90.1818H206.953V100.281C206.953 101.125 206.762 101.811 206.378 102.339C205.999 102.872 205.487 103.262 204.844 103.509C204.205 103.761 203.493 103.886 202.709 103.886ZM202.658 98.4915C203.263 98.4915 203.774 98.353 204.192 98.076C204.61 97.799 204.927 97.4006 205.144 96.8807C205.362 96.3608 205.47 95.7386 205.47 95.0142C205.47 94.3068 205.364 93.6825 205.151 93.1413C204.938 92.6001 204.622 92.1761 204.205 91.8693C203.787 91.5625 203.271 91.4091 202.658 91.4091C202.019 91.4091 201.486 91.571 201.06 91.8949C200.638 92.2187 200.32 92.6534 200.107 93.1989C199.899 93.7443 199.794 94.3494 199.794 95.0142C199.794 95.696 199.901 96.299 200.114 96.8232C200.331 97.343 200.651 97.7521 201.073 98.0504C201.499 98.3445 202.027 98.4915 202.658 98.4915ZM209.715 100V90.1818H211.223V100H209.715ZM210.482 88.5455C210.188 88.5455 209.934 88.4453 209.721 88.245C209.512 88.0447 209.408 87.804 209.408 87.5227C209.408 87.2415 209.512 87.0007 209.721 86.8004C209.934 86.6001 210.188 86.5 210.482 86.5C210.776 86.5 211.027 86.6001 211.236 86.8004C211.449 87.0007 211.556 87.2415 211.556 87.5227C211.556 87.804 211.449 88.0447 211.236 88.245C211.027 88.4453 210.776 88.5455 210.482 88.5455ZM215.495 94.0938V100H213.986V90.1818H215.444V91.7159H215.571C215.801 91.2173 216.151 90.8168 216.62 90.5142C217.088 90.2074 217.694 90.054 218.435 90.054C219.1 90.054 219.681 90.1903 220.18 90.4631C220.679 90.7315 221.066 91.1406 221.343 91.6903C221.62 92.2358 221.759 92.9261 221.759 93.7614V100H220.25V93.8636C220.25 93.0923 220.05 92.4915 219.65 92.0611C219.249 91.6264 218.699 91.4091 218 91.4091C217.519 91.4091 217.088 91.5135 216.709 91.7223C216.334 91.9311 216.038 92.2358 215.821 92.6364C215.603 93.0369 215.495 93.5227 215.495 94.0938Z" fill="white"/>
<path d="M51.0568 160V151.273H56.3239V152.21H52.1136V155.159H56.0511V156.097H52.1136V159.062H56.392V160H51.0568ZM58.0923 160V153.455H59.0639V154.477H59.1491C59.2855 154.128 59.5057 153.857 59.8097 153.663C60.1136 153.467 60.4787 153.369 60.9048 153.369C61.3366 153.369 61.696 153.467 61.983 153.663C62.2727 153.857 62.4986 154.128 62.6605 154.477H62.7287C62.8963 154.139 63.1477 153.871 63.483 153.672C63.8182 153.47 64.2202 153.369 64.6889 153.369C65.2741 153.369 65.7528 153.553 66.125 153.919C66.4972 154.283 66.6832 154.849 66.6832 155.619V160H65.6776V155.619C65.6776 155.136 65.5455 154.791 65.2812 154.584C65.017 154.376 64.706 154.273 64.348 154.273C63.8878 154.273 63.5313 154.412 63.2784 154.69C63.0256 154.966 62.8991 155.315 62.8991 155.739V160H61.8764V155.517C61.8764 155.145 61.7557 154.845 61.5142 154.618C61.2727 154.388 60.9616 154.273 60.581 154.273C60.3196 154.273 60.0753 154.342 59.848 154.482C59.6236 154.621 59.4418 154.814 59.3026 155.061C59.1662 155.305 59.098 155.588 59.098 155.909V160H58.0923ZM70.4482 160.153C70.0334 160.153 69.657 160.075 69.3189 159.919C68.9808 159.76 68.7124 159.531 68.5135 159.233C68.3146 158.932 68.2152 158.568 68.2152 158.142C68.2152 157.767 68.2891 157.463 68.4368 157.23C68.5845 156.994 68.782 156.81 69.0291 156.676C69.2763 156.543 69.549 156.443 69.8473 156.378C70.1484 156.31 70.451 156.256 70.755 156.216C71.1527 156.165 71.4751 156.126 71.7223 156.101C71.9723 156.072 72.1541 156.026 72.2678 155.96C72.3842 155.895 72.4425 155.781 72.4425 155.619V155.585C72.4425 155.165 72.3274 154.838 72.0973 154.605C71.87 154.372 71.5249 154.256 71.0618 154.256C70.5817 154.256 70.2053 154.361 69.9325 154.571C69.6598 154.781 69.468 155.006 69.3572 155.244L68.4027 154.903C68.5732 154.506 68.8004 154.196 69.0845 153.974C69.3714 153.75 69.6839 153.594 70.022 153.506C70.3629 153.415 70.6982 153.369 71.0277 153.369C71.2379 153.369 71.4794 153.395 71.7521 153.446C72.0277 153.494 72.2933 153.595 72.549 153.749C72.8075 153.902 73.022 154.134 73.1925 154.443C73.3629 154.753 73.4482 155.168 73.4482 155.688V160H72.4425V159.114H72.3913C72.3232 159.256 72.2095 159.408 72.0504 159.57C71.8913 159.732 71.6797 159.869 71.4155 159.983C71.1513 160.097 70.8288 160.153 70.4482 160.153ZM70.6016 159.25C70.9993 159.25 71.3345 159.172 71.6072 159.016C71.8828 158.859 72.0902 158.658 72.2294 158.411C72.3714 158.163 72.4425 157.903 72.4425 157.631V156.71C72.3999 156.761 72.3061 156.808 72.1612 156.851C72.0192 156.891 71.8544 156.926 71.6669 156.957C71.4822 156.986 71.3018 157.011 71.1257 157.034C70.9524 157.054 70.8118 157.071 70.7038 157.085C70.4425 157.119 70.1982 157.175 69.9709 157.251C69.7464 157.325 69.5646 157.437 69.4254 157.588C69.2891 157.736 69.2209 157.937 69.2209 158.193C69.2209 158.543 69.3501 158.807 69.6087 158.986C69.87 159.162 70.201 159.25 70.6016 159.25ZM75.2837 160V153.455H76.2894V160H75.2837ZM75.7951 152.364C75.5991 152.364 75.43 152.297 75.288 152.163C75.1488 152.03 75.0792 151.869 75.0792 151.682C75.0792 151.494 75.1488 151.334 75.288 151.2C75.43 151.067 75.5991 151 75.7951 151C75.9911 151 76.1587 151.067 76.2979 151.2C76.44 151.334 76.511 151.494 76.511 151.682C76.511 151.869 76.44 152.03 76.2979 152.163C76.1587 152.297 75.9911 152.364 75.7951 152.364ZM79.1371 151.273V160H78.1314V151.273H79.1371Z" fill="white"/>
<path d="M346 170H54C51.7909 170 50 171.791 50 174V196C50 198.209 51.7909 200 54 200H346C348.209 200 350 198.209 350 196V174C350 171.791 348.209 170 346 170Z" fill="#2A1F3D" stroke="#555555"/>
<path d="M55.8295 213.455C55.7784 213.023 55.571 212.688 55.2074 212.449C54.8438 212.21 54.3977 212.091 53.8693 212.091C53.483 212.091 53.1449 212.153 52.8551 212.278C52.5682 212.403 52.3438 212.575 52.1818 212.794C52.0227 213.013 51.9432 213.261 51.9432 213.54C51.9432 213.773 51.9986 213.973 52.1094 214.141C52.223 214.305 52.3679 214.443 52.544 214.554C52.7202 214.662 52.9048 214.751 53.098 214.822C53.2912 214.891 53.4688 214.946 53.6307 214.989L54.517 215.227C54.7443 215.287 54.9972 215.369 55.2756 215.474C55.5568 215.58 55.8253 215.723 56.081 215.905C56.3395 216.084 56.5526 216.314 56.7202 216.595C56.8878 216.876 56.9716 217.222 56.9716 217.631C56.9716 218.102 56.848 218.528 56.6009 218.909C56.3565 219.29 55.9986 219.592 55.527 219.817C55.0582 220.041 54.4886 220.153 53.8182 220.153C53.1932 220.153 52.652 220.053 52.1946 219.851C51.7401 219.649 51.3821 219.368 51.1207 219.007C50.8622 218.646 50.7159 218.227 50.6818 217.75H51.7727C51.8011 218.08 51.9119 218.352 52.1051 218.568C52.3011 218.781 52.5483 218.94 52.8466 219.045C53.1477 219.148 53.4716 219.199 53.8182 219.199C54.2216 219.199 54.5838 219.134 54.9048 219.003C55.2259 218.869 55.4801 218.685 55.6676 218.449C55.8551 218.21 55.9489 217.932 55.9489 217.614C55.9489 217.324 55.8679 217.088 55.706 216.906C55.544 216.724 55.331 216.577 55.0668 216.463C54.8026 216.349 54.517 216.25 54.2102 216.165L53.1364 215.858C52.4545 215.662 51.9148 215.382 51.517 215.018C51.1193 214.655 50.9205 214.179 50.9205 213.591C50.9205 213.102 51.0526 212.676 51.3168 212.312C51.5838 211.946 51.9418 211.662 52.3906 211.46C52.8423 211.256 53.3466 211.153 53.9034 211.153C54.4659 211.153 54.9659 211.254 55.4034 211.456C55.8409 211.655 56.1875 211.928 56.4432 212.274C56.7017 212.621 56.8381 213.014 56.8523 213.455H55.8295ZM61.3171 220.136C60.6864 220.136 60.1424 219.997 59.685 219.719C59.2305 219.438 58.8796 219.045 58.6325 218.543C58.3881 218.037 58.266 217.449 58.266 216.778C58.266 216.108 58.3881 215.517 58.6325 215.006C58.8796 214.491 59.2234 214.091 59.6637 213.804C60.1069 213.514 60.6239 213.369 61.2148 213.369C61.5558 213.369 61.8924 213.426 62.2248 213.54C62.5572 213.653 62.8597 213.838 63.1325 214.094C63.4052 214.347 63.6225 214.682 63.7844 215.099C63.9464 215.517 64.0273 216.031 64.0273 216.642V217.068H58.9819V216.199H63.0046C63.0046 215.83 62.9308 215.5 62.783 215.21C62.6381 214.92 62.4308 214.692 62.1609 214.524C61.8938 214.357 61.5785 214.273 61.2148 214.273C60.8143 214.273 60.4677 214.372 60.1751 214.571C59.8853 214.767 59.6623 215.023 59.506 215.338C59.3498 215.653 59.2717 215.991 59.2717 216.352V216.932C59.2717 217.426 59.3569 217.845 59.5273 218.189C59.7006 218.53 59.9407 218.79 60.2475 218.969C60.5543 219.145 60.9109 219.233 61.3171 219.233C61.5813 219.233 61.82 219.196 62.033 219.122C62.2489 219.045 62.435 218.932 62.5913 218.781C62.7475 218.628 62.8683 218.437 62.9535 218.21L63.9251 218.483C63.8228 218.812 63.6509 219.102 63.4094 219.352C63.168 219.599 62.8697 219.793 62.5146 219.932C62.1594 220.068 61.7603 220.136 61.3171 220.136ZM66.5629 216.062V220H65.5572V213.455H66.5288V214.477H66.614C66.7674 214.145 67.0004 213.878 67.3129 213.676C67.6254 213.472 68.0288 213.369 68.5231 213.369C68.9663 213.369 69.354 213.46 69.6864 213.642C70.0188 213.821 70.2773 214.094 70.462 214.46C70.6467 214.824 70.739 215.284 70.739 215.841V220H69.7333V215.909C69.7333 215.395 69.5998 214.994 69.3327 214.707C69.0657 214.418 68.6992 214.273 68.2333 214.273C67.9123 214.273 67.6254 214.342 67.3725 214.482C67.1225 214.621 66.9251 214.824 66.7802 215.091C66.6353 215.358 66.5629 215.682 66.5629 216.062ZM73.5824 216.062V220H72.5767V211.273H73.5824V214.477H73.6676C73.821 214.139 74.0511 213.871 74.358 213.672C74.6676 213.47 75.0795 213.369 75.5938 213.369C76.0398 213.369 76.4304 213.459 76.7656 213.638C77.1009 213.814 77.3608 214.085 77.5455 214.452C77.733 214.815 77.8267 215.278 77.8267 215.841V220H76.821V215.909C76.821 215.389 76.6861 214.987 76.4162 214.703C76.1491 214.416 75.7784 214.273 75.304 214.273C74.9744 214.273 74.679 214.342 74.4176 214.482C74.1591 214.621 73.9545 214.824 73.804 215.091C73.6563 215.358 73.5824 215.682 73.5824 216.062ZM81.5927 220.153C81.1779 220.153 80.8015 220.075 80.4634 219.919C80.1254 219.76 79.8569 219.531 79.658 219.233C79.4592 218.932 79.3597 218.568 79.3597 218.142C79.3597 217.767 79.4336 217.463 79.5813 217.23C79.729 216.994 79.9265 216.81 80.1737 216.676C80.4208 216.543 80.6935 216.443 80.9918 216.378C81.293 216.31 81.5955 216.256 81.8995 216.216C82.2972 216.165 82.6197 216.126 82.8668 216.101C83.1168 216.072 83.2987 216.026 83.4123 215.96C83.5288 215.895 83.587 215.781 83.587 215.619V215.585C83.587 215.165 83.4719 214.838 83.2418 214.605C83.0146 214.372 82.6694 214.256 82.2063 214.256C81.7262 214.256 81.3498 214.361 81.0771 214.571C80.8043 214.781 80.6126 215.006 80.5018 215.244L79.5472 214.903C79.7177 214.506 79.945 214.196 80.229 213.974C80.516 213.75 80.8285 213.594 81.1665 213.506C81.5075 213.415 81.8427 213.369 82.1722 213.369C82.3825 213.369 82.6239 213.395 82.8967 213.446C83.1722 213.494 83.4379 213.595 83.6935 213.749C83.9521 213.902 84.1665 214.134 84.337 214.443C84.5075 214.753 84.5927 215.168 84.5927 215.688V220H83.587V219.114H83.5359C83.4677 219.256 83.354 219.408 83.195 219.57C83.0359 219.732 82.8242 219.869 82.56 219.983C82.2958 220.097 81.9734 220.153 81.5927 220.153ZM81.7461 219.25C82.1438 219.25 82.479 219.172 82.7518 219.016C83.0273 218.859 83.2347 218.658 83.3739 218.411C83.516 218.163 83.587 217.903 83.587 217.631V216.71C83.5444 216.761 83.4506 216.808 83.3058 216.851C83.1637 216.891 82.9989 216.926 82.8114 216.957C82.6268 216.986 82.4464 217.011 82.2702 217.034C82.0969 217.054 81.9563 217.071 81.8484 217.085C81.587 217.119 81.3427 217.175 81.1154 217.251C80.891 217.325 80.7092 217.437 80.57 217.588C80.4336 217.736 80.3654 217.937 80.3654 218.193C80.3654 218.543 80.4947 218.807 80.7532 218.986C81.0146 219.162 81.3455 219.25 81.7461 219.25Z" fill="white"/>
<path d="M346 230H54C51.7909 230 50 231.791 50 234V256C50 258.209 51.7909 260 54 260H346C348.209 260 350 258.209 350 256V234C350 231.791 348.209 230 346 230Z" fill="#2A1F3D" stroke="#555555"/>
<path d="M294 300H106C102.686 300 100 302.686 100 306V334C100 337.314 102.686 340 106 340H294C297.314 340 300 337.314 300 334V306C300 302.686 297.314 300 294 300Z" fill="#2ECC71"/>
<path d="M181.233 325V314.818H187.378V315.912H182.466V319.352H187.06V320.446H182.466V323.906H187.457V325H181.233ZM190.614 320.406V325H189.441V317.364H190.575V318.557H190.674C190.853 318.169 191.125 317.857 191.489 317.622C191.854 317.384 192.325 317.264 192.901 317.264C193.418 317.264 193.871 317.37 194.259 317.582C194.646 317.791 194.948 318.109 195.163 318.537C195.379 318.961 195.487 319.498 195.487 320.148V325H194.313V320.227C194.313 319.627 194.157 319.16 193.846 318.825C193.534 318.487 193.107 318.318 192.563 318.318C192.189 318.318 191.854 318.399 191.559 318.562C191.267 318.724 191.037 318.961 190.868 319.273C190.699 319.584 190.614 319.962 190.614 320.406ZM200.952 317.364V318.358H196.994V317.364H200.952ZM198.148 315.534H199.321V322.812C199.321 323.144 199.369 323.393 199.465 323.558C199.564 323.721 199.69 323.83 199.843 323.886C199.999 323.939 200.163 323.966 200.335 323.966C200.464 323.966 200.57 323.959 200.653 323.946C200.736 323.929 200.802 323.916 200.852 323.906L201.091 324.96C201.011 324.99 200.9 325.02 200.758 325.05C200.615 325.083 200.434 325.099 200.216 325.099C199.884 325.099 199.559 325.028 199.241 324.886C198.926 324.743 198.665 324.526 198.456 324.234C198.25 323.943 198.148 323.575 198.148 323.131V315.534ZM202.716 325V317.364H203.85V318.517H203.93C204.069 318.139 204.321 317.833 204.685 317.597C205.05 317.362 205.461 317.244 205.918 317.244C206.004 317.244 206.112 317.246 206.241 317.249C206.371 317.253 206.468 317.258 206.535 317.264V318.457C206.495 318.447 206.404 318.433 206.261 318.413C206.122 318.389 205.974 318.378 205.819 318.378C205.448 318.378 205.116 318.456 204.824 318.612C204.536 318.764 204.307 318.976 204.138 319.248C203.973 319.516 203.89 319.823 203.89 320.168V325H202.716ZM210.173 325.179C209.689 325.179 209.25 325.088 208.855 324.906C208.461 324.72 208.147 324.453 207.915 324.105C207.683 323.754 207.567 323.33 207.567 322.832C207.567 322.395 207.654 322.04 207.826 321.768C207.998 321.493 208.229 321.278 208.517 321.122C208.805 320.966 209.124 320.85 209.472 320.774C209.823 320.695 210.176 320.632 210.531 320.585C210.995 320.526 211.371 320.481 211.659 320.451C211.951 320.418 212.163 320.363 212.295 320.287C212.431 320.211 212.499 320.078 212.499 319.889V319.849C212.499 319.359 212.365 318.978 212.097 318.706C211.831 318.434 211.429 318.298 210.888 318.298C210.328 318.298 209.889 318.421 209.571 318.666C209.253 318.911 209.029 319.173 208.9 319.452L207.786 319.054C207.985 318.59 208.25 318.229 208.582 317.97C208.916 317.708 209.281 317.526 209.675 317.423C210.073 317.317 210.464 317.264 210.849 317.264C211.094 317.264 211.376 317.294 211.694 317.354C212.015 317.41 212.325 317.528 212.624 317.707C212.925 317.886 213.175 318.156 213.374 318.517C213.573 318.878 213.673 319.362 213.673 319.969V325H212.499V323.966H212.44C212.36 324.132 212.228 324.309 212.042 324.498C211.856 324.687 211.609 324.848 211.301 324.98C210.993 325.113 210.617 325.179 210.173 325.179ZM210.352 324.125C210.816 324.125 211.207 324.034 211.525 323.852C211.846 323.669 212.088 323.434 212.251 323.146C212.416 322.857 212.499 322.554 212.499 322.236V321.162C212.45 321.222 212.34 321.276 212.171 321.326C212.005 321.372 211.813 321.414 211.594 321.45C211.379 321.483 211.169 321.513 210.963 321.54C210.761 321.563 210.597 321.583 210.471 321.599C210.166 321.639 209.881 321.704 209.616 321.793C209.354 321.879 209.142 322.01 208.979 322.186C208.82 322.358 208.741 322.594 208.741 322.892C208.741 323.3 208.892 323.608 209.193 323.817C209.498 324.022 209.884 324.125 210.352 324.125ZM215.814 325V317.364H216.948V318.517H217.027C217.166 318.139 217.418 317.833 217.783 317.597C218.147 317.362 218.558 317.244 219.016 317.244C219.102 317.244 219.21 317.246 219.339 317.249C219.468 317.253 219.566 317.258 219.632 317.264V318.457C219.593 318.447 219.501 318.433 219.359 318.413C219.22 318.389 219.072 318.378 218.916 318.378C218.545 318.378 218.214 318.456 217.922 318.612C217.634 318.764 217.405 318.976 217.236 319.248C217.07 319.516 216.987 319.823 216.987 320.168V325H215.814Z" fill="white"/>
<path d="M400 650H0V700H400V650Z" fill="#1E1A21"/>
<path d="M50 658C50 653.582 53.5817 650 58 650H159C163.418 650 167 653.582 167 658V692C167 696.418 163.418 700 159 700H58C53.5817 700 50 696.418 50 692V658Z" fill="#2D2828"/>
<path d="M241.5 658C241.5 653.582 245.082 650 249.5 650H350.5C354.918 650 358.5 653.582 358.5 658V692C358.5 696.418 354.918 700 350.5 700H249.5C245.082 700 241.5 696.418 241.5 692V658Z" fill="#2D2828"/>
<path d="M254.409 681V669.364H261.432V670.614H255.818V674.545H261.068V675.795H255.818V679.75H261.523V681H254.409ZM265.131 675.75V681H263.79V672.273H265.085V673.636H265.199C265.403 673.193 265.714 672.837 266.131 672.568C266.547 672.295 267.085 672.159 267.744 672.159C268.335 672.159 268.852 672.28 269.295 672.523C269.739 672.761 270.083 673.125 270.33 673.614C270.576 674.098 270.699 674.712 270.699 675.455V681H269.358V675.545C269.358 674.86 269.18 674.326 268.824 673.943C268.468 673.557 267.979 673.364 267.358 673.364C266.93 673.364 266.547 673.456 266.21 673.642C265.877 673.828 265.614 674.098 265.42 674.455C265.227 674.811 265.131 675.242 265.131 675.75ZM279.973 672.273L276.746 681H275.382L272.155 672.273H273.609L276.018 679.227H276.109L278.518 672.273H279.973ZM281.743 681V672.273H283.084V681H281.743ZM282.425 670.818C282.163 670.818 281.938 670.729 281.749 670.551C281.563 670.373 281.47 670.159 281.47 669.909C281.47 669.659 281.563 669.445 281.749 669.267C281.938 669.089 282.163 669 282.425 669C282.686 669 282.91 669.089 283.095 669.267C283.285 669.445 283.379 669.659 283.379 669.909C283.379 670.159 283.285 670.373 283.095 670.551C282.91 670.729 282.686 670.818 282.425 670.818ZM288.108 681.205C287.555 681.205 287.053 681.1 286.602 680.892C286.152 680.68 285.794 680.375 285.528 679.977C285.263 679.576 285.131 679.091 285.131 678.523C285.131 678.023 285.229 677.617 285.426 677.307C285.623 676.992 285.886 676.746 286.216 676.568C286.545 676.39 286.909 676.258 287.307 676.17C287.708 676.08 288.112 676.008 288.517 675.955C289.047 675.886 289.477 675.835 289.807 675.801C290.14 675.763 290.383 675.701 290.534 675.614C290.689 675.527 290.767 675.375 290.767 675.159V675.114C290.767 674.553 290.614 674.117 290.307 673.807C290.004 673.496 289.544 673.341 288.926 673.341C288.286 673.341 287.784 673.481 287.42 673.761C287.057 674.042 286.801 674.341 286.653 674.659L285.381 674.205C285.608 673.674 285.911 673.261 286.29 672.966C286.672 672.667 287.089 672.458 287.54 672.341C287.994 672.22 288.441 672.159 288.881 672.159C289.161 672.159 289.483 672.193 289.847 672.261C290.214 672.326 290.568 672.46 290.909 672.665C291.254 672.869 291.54 673.178 291.767 673.591C291.994 674.004 292.108 674.557 292.108 675.25V681H290.767V679.818H290.699C290.608 680.008 290.456 680.21 290.244 680.426C290.032 680.642 289.75 680.826 289.398 680.977C289.045 681.129 288.616 681.205 288.108 681.205ZM288.312 680C288.843 680 289.29 679.896 289.653 679.688C290.021 679.479 290.297 679.21 290.483 678.881C290.672 678.551 290.767 678.205 290.767 677.841V676.614C290.71 676.682 290.585 676.744 290.392 676.801C290.203 676.854 289.983 676.902 289.733 676.943C289.487 676.981 289.246 677.015 289.011 677.045C288.78 677.072 288.593 677.095 288.449 677.114C288.1 677.159 287.775 677.233 287.472 677.335C287.172 677.434 286.93 677.583 286.744 677.784C286.563 677.981 286.472 678.25 286.472 678.591C286.472 679.057 286.644 679.409 286.989 679.648C287.337 679.883 287.778 680 288.312 680ZM294.555 681V672.273H295.851V673.591H295.942C296.101 673.159 296.389 672.809 296.805 672.54C297.222 672.271 297.692 672.136 298.214 672.136C298.313 672.136 298.436 672.138 298.584 672.142C298.732 672.146 298.843 672.152 298.919 672.159V673.523C298.874 673.511 298.769 673.494 298.607 673.472C298.447 673.445 298.279 673.432 298.101 673.432C297.677 673.432 297.298 673.521 296.964 673.699C296.635 673.873 296.374 674.116 296.18 674.426C295.991 674.733 295.896 675.083 295.896 675.477V681H294.555ZM305.668 669.364L309.122 679.159H309.259L312.713 669.364H314.19L309.918 681H308.463L304.19 669.364H305.668ZM315.821 681V672.273H317.162V681H315.821ZM315.889 671.091L317.276 668.455H318.844L317.071 671.091H315.889ZM322.913 681.182C322.186 681.182 321.544 680.998 320.987 680.631C320.43 680.259 319.995 679.737 319.68 679.062C319.366 678.384 319.209 677.583 319.209 676.659C319.209 675.742 319.366 674.947 319.68 674.273C319.995 673.598 320.432 673.078 320.993 672.71C321.554 672.343 322.201 672.159 322.936 672.159C323.504 672.159 323.953 672.254 324.283 672.443C324.616 672.629 324.87 672.841 325.044 673.08C325.222 673.314 325.36 673.508 325.459 673.659H325.572V669.364H326.913V681H325.618V679.659H325.459C325.36 679.818 325.22 680.019 325.038 680.261C324.857 680.5 324.597 680.714 324.26 680.903C323.923 681.089 323.474 681.182 322.913 681.182ZM323.095 679.977C323.633 679.977 324.088 679.837 324.459 679.557C324.83 679.273 325.112 678.881 325.305 678.381C325.499 677.877 325.595 677.295 325.595 676.636C325.595 675.985 325.5 675.415 325.311 674.926C325.122 674.434 324.841 674.051 324.47 673.778C324.099 673.502 323.641 673.364 323.095 673.364C322.527 673.364 322.054 673.509 321.675 673.801C321.3 674.089 321.018 674.481 320.828 674.977C320.643 675.47 320.55 676.023 320.55 676.636C320.55 677.258 320.644 677.822 320.834 678.33C321.027 678.833 321.311 679.235 321.686 679.534C322.065 679.83 322.535 679.977 323.095 679.977ZM333.214 681.182C332.374 681.182 331.648 680.996 331.038 680.625C330.432 680.25 329.964 679.727 329.635 679.057C329.309 678.383 329.146 677.598 329.146 676.705C329.146 675.811 329.309 675.023 329.635 674.341C329.964 673.655 330.423 673.121 331.01 672.739C331.601 672.352 332.29 672.159 333.078 672.159C333.533 672.159 333.982 672.235 334.425 672.386C334.868 672.538 335.271 672.784 335.635 673.125C335.999 673.462 336.288 673.909 336.504 674.466C336.72 675.023 336.828 675.708 336.828 676.523V677.091H330.101V675.932H335.464C335.464 675.439 335.366 675 335.169 674.614C334.976 674.227 334.699 673.922 334.339 673.699C333.983 673.475 333.563 673.364 333.078 673.364C332.544 673.364 332.082 673.496 331.692 673.761C331.305 674.023 331.008 674.364 330.8 674.784C330.591 675.205 330.487 675.655 330.487 676.136V676.909C330.487 677.568 330.601 678.127 330.828 678.585C331.059 679.04 331.379 679.386 331.788 679.625C332.197 679.86 332.673 679.977 333.214 679.977C333.567 679.977 333.885 679.928 334.169 679.83C334.457 679.727 334.705 679.576 334.913 679.375C335.122 679.17 335.283 678.917 335.396 678.614L336.692 678.977C336.555 679.417 336.326 679.803 336.004 680.136C335.682 680.466 335.285 680.723 334.811 680.909C334.338 681.091 333.805 681.182 333.214 681.182ZM342.413 681.182C341.625 681.182 340.934 680.994 340.339 680.619C339.749 680.244 339.286 679.72 338.953 679.045C338.624 678.371 338.459 677.583 338.459 676.682C338.459 675.773 338.624 674.979 338.953 674.301C339.286 673.623 339.749 673.097 340.339 672.722C340.934 672.347 341.625 672.159 342.413 672.159C343.201 672.159 343.891 672.347 344.482 672.722C345.076 673.097 345.538 673.623 345.868 674.301C346.201 674.979 346.368 675.773 346.368 676.682C346.368 677.583 346.201 678.371 345.868 679.045C345.538 679.72 345.076 680.244 344.482 680.619C343.891 680.994 343.201 681.182 342.413 681.182ZM342.413 679.977C343.012 679.977 343.504 679.824 343.891 679.517C344.277 679.21 344.563 678.807 344.749 678.307C344.934 677.807 345.027 677.265 345.027 676.682C345.027 676.098 344.934 675.555 344.749 675.051C344.563 674.547 344.277 674.14 343.891 673.83C343.504 673.519 343.012 673.364 342.413 673.364C341.815 673.364 341.322 673.519 340.936 673.83C340.55 674.14 340.264 674.547 340.078 675.051C339.893 675.555 339.8 676.098 339.8 676.682C339.8 677.265 339.893 677.807 340.078 678.307C340.264 678.807 340.55 679.21 340.936 679.517C341.322 679.824 341.815 679.977 342.413 679.977Z" fill="white"/>
<path d="M60.4091 669.364H62.0909L66.0455 679.023H66.1818L70.1364 669.364H71.8182V681H70.5V672.159H70.3864L66.75 681H65.4773L61.8409 672.159H61.7273V681H60.4091V669.364ZM78.1207 681.182C77.2798 681.182 76.5545 680.996 75.9446 680.625C75.3385 680.25 74.8707 679.727 74.5412 679.057C74.2154 678.383 74.0526 677.598 74.0526 676.705C74.0526 675.811 74.2154 675.023 74.5412 674.341C74.8707 673.655 75.3291 673.121 75.9162 672.739C76.5071 672.352 77.1965 672.159 77.9844 672.159C78.4389 672.159 78.8878 672.235 79.331 672.386C79.7741 672.538 80.1776 672.784 80.5412 673.125C80.9048 673.462 81.1946 673.909 81.4105 674.466C81.6264 675.023 81.7344 675.708 81.7344 676.523V677.091H75.0071V675.932H80.3707C80.3707 675.439 80.2723 675 80.0753 674.614C79.8821 674.227 79.6056 673.922 79.2457 673.699C78.8897 673.475 78.4692 673.364 77.9844 673.364C77.4503 673.364 76.9882 673.496 76.598 673.761C76.2116 674.023 75.9143 674.364 75.706 674.784C75.4976 675.205 75.3935 675.655 75.3935 676.136V676.909C75.3935 677.568 75.5071 678.127 75.7344 678.585C75.9654 679.04 76.2855 679.386 76.6946 679.625C77.1037 679.86 77.5791 679.977 78.1207 679.977C78.473 679.977 78.7912 679.928 79.0753 679.83C79.3632 679.727 79.6113 679.576 79.8196 679.375C80.0279 679.17 80.1889 678.917 80.3026 678.614L81.598 678.977C81.4616 679.417 81.2325 679.803 80.9105 680.136C80.5885 680.466 80.1908 680.723 79.7173 680.909C79.2438 681.091 78.7116 681.182 78.1207 681.182ZM89.2741 677.432V672.273H90.6151V681H89.2741V679.523H89.1832C88.9787 679.966 88.6605 680.343 88.2287 680.653C87.7969 680.96 87.2514 681.114 86.5923 681.114C86.0469 681.114 85.562 680.994 85.1378 680.756C84.7135 680.513 84.3802 680.15 84.1378 679.665C83.8954 679.176 83.7741 678.561 83.7741 677.818V672.273H85.1151V677.727C85.1151 678.364 85.2931 678.871 85.6491 679.25C86.009 679.629 86.4673 679.818 87.0241 679.818C87.3575 679.818 87.6965 679.733 88.0412 679.562C88.3897 679.392 88.6813 679.131 88.9162 678.778C89.1548 678.426 89.2741 677.977 89.2741 677.432ZM99.2528 674.227L98.0483 674.568C97.9725 674.367 97.8608 674.172 97.7131 673.983C97.5691 673.79 97.3722 673.631 97.1222 673.506C96.8722 673.381 96.5521 673.318 96.1619 673.318C95.6278 673.318 95.1828 673.441 94.8267 673.688C94.4744 673.93 94.2983 674.239 94.2983 674.614C94.2983 674.947 94.4195 675.21 94.6619 675.403C94.9044 675.597 95.2831 675.758 95.7983 675.886L97.0938 676.205C97.8741 676.394 98.4555 676.684 98.8381 677.074C99.2206 677.46 99.4119 677.958 99.4119 678.568C99.4119 679.068 99.268 679.515 98.9801 679.909C98.696 680.303 98.2983 680.614 97.7869 680.841C97.2756 681.068 96.6809 681.182 96.0028 681.182C95.1127 681.182 94.3759 680.989 93.7926 680.602C93.2093 680.216 92.84 679.652 92.6847 678.909L93.9574 678.591C94.0786 679.061 94.3078 679.413 94.6449 679.648C94.9858 679.883 95.4309 680 95.9801 680C96.6051 680 97.1013 679.867 97.4688 679.602C97.84 679.333 98.0256 679.011 98.0256 678.636C98.0256 678.333 97.9195 678.08 97.7074 677.875C97.4953 677.667 97.1695 677.511 96.7301 677.409L95.2756 677.068C94.4763 676.879 93.8892 676.585 93.5142 676.188C93.143 675.786 92.9574 675.284 92.9574 674.682C92.9574 674.189 93.0956 673.754 93.3722 673.375C93.6525 672.996 94.0331 672.699 94.5142 672.483C94.9991 672.267 95.5483 672.159 96.1619 672.159C97.0256 672.159 97.7036 672.348 98.196 672.727C98.6922 673.106 99.0445 673.606 99.2528 674.227ZM106.589 669.364L110.044 679.159H110.18L113.635 669.364H115.112L110.839 681H109.385L105.112 669.364H106.589ZM116.743 681V672.273H118.084V681H116.743ZM116.811 671.091L118.197 668.455H119.766L117.993 671.091H116.811ZM123.835 681.182C123.108 681.182 122.466 680.998 121.909 680.631C121.352 680.259 120.917 679.737 120.602 679.062C120.288 678.384 120.131 677.583 120.131 676.659C120.131 675.742 120.288 674.947 120.602 674.273C120.917 673.598 121.354 673.078 121.915 672.71C122.475 672.343 123.123 672.159 123.858 672.159C124.426 672.159 124.875 672.254 125.205 672.443C125.538 672.629 125.792 672.841 125.966 673.08C126.144 673.314 126.282 673.508 126.381 673.659H126.494V669.364H127.835V681H126.54V679.659H126.381C126.282 679.818 126.142 680.019 125.96 680.261C125.778 680.5 125.519 680.714 125.182 680.903C124.845 681.089 124.396 681.182 123.835 681.182ZM124.017 679.977C124.555 679.977 125.009 679.837 125.381 679.557C125.752 679.273 126.034 678.881 126.227 678.381C126.42 677.877 126.517 677.295 126.517 676.636C126.517 675.985 126.422 675.415 126.233 674.926C126.044 674.434 125.763 674.051 125.392 673.778C125.021 673.502 124.563 673.364 124.017 673.364C123.449 673.364 122.975 673.509 122.597 673.801C122.222 674.089 121.939 674.481 121.75 674.977C121.564 675.47 121.472 676.023 121.472 676.636C121.472 677.258 121.566 677.822 121.756 678.33C121.949 678.833 122.233 679.235 122.608 679.534C122.987 679.83 123.456 679.977 124.017 679.977ZM134.136 681.182C133.295 681.182 132.57 680.996 131.96 680.625C131.354 680.25 130.886 679.727 130.557 679.057C130.231 678.383 130.068 677.598 130.068 676.705C130.068 675.811 130.231 675.023 130.557 674.341C130.886 673.655 131.345 673.121 131.932 672.739C132.523 672.352 133.212 672.159 134 672.159C134.455 672.159 134.903 672.235 135.347 672.386C135.79 672.538 136.193 672.784 136.557 673.125C136.92 673.462 137.21 673.909 137.426 674.466C137.642 675.023 137.75 675.708 137.75 676.523V677.091H131.023V675.932H136.386C136.386 675.439 136.288 675 136.091 674.614C135.898 674.227 135.621 673.922 135.261 673.699C134.905 673.475 134.485 673.364 134 673.364C133.466 673.364 133.004 673.496 132.614 673.761C132.227 674.023 131.93 674.364 131.722 674.784C131.513 675.205 131.409 675.655 131.409 676.136V676.909C131.409 677.568 131.523 678.127 131.75 678.585C131.981 679.04 132.301 679.386 132.71 679.625C133.119 679.86 133.595 679.977 134.136 679.977C134.489 679.977 134.807 679.928 135.091 679.83C135.379 679.727 135.627 679.576 135.835 679.375C136.044 679.17 136.205 678.917 136.318 678.614L137.614 678.977C137.477 679.417 137.248 679.803 136.926 680.136C136.604 680.466 136.206 680.723 135.733 680.909C135.259 681.091 134.727 681.182 134.136 681.182ZM143.335 681.182C142.547 681.182 141.856 680.994 141.261 680.619C140.67 680.244 140.208 679.72 139.875 679.045C139.545 678.371 139.381 677.583 139.381 676.682C139.381 675.773 139.545 674.979 139.875 674.301C140.208 673.623 140.67 673.097 141.261 672.722C141.856 672.347 142.547 672.159 143.335 672.159C144.123 672.159 144.813 672.347 145.403 672.722C145.998 673.097 146.46 673.623 146.79 674.301C147.123 674.979 147.29 675.773 147.29 676.682C147.29 677.583 147.123 678.371 146.79 679.045C146.46 679.72 145.998 680.244 145.403 680.619C144.813 680.994 144.123 681.182 143.335 681.182ZM143.335 679.977C143.934 679.977 144.426 679.824 144.812 679.517C145.199 679.21 145.485 678.807 145.67 678.307C145.856 677.807 145.949 677.265 145.949 676.682C145.949 676.098 145.856 675.555 145.67 675.051C145.485 674.547 145.199 674.14 144.812 673.83C144.426 673.519 143.934 673.364 143.335 673.364C142.737 673.364 142.244 673.519 141.858 673.83C141.472 674.14 141.186 674.547 141 675.051C140.814 675.555 140.722 676.098 140.722 676.682C140.722 677.265 140.814 677.807 141 678.307C141.186 678.807 141.472 679.21 141.858 679.517C142.244 679.824 142.737 679.977 143.335 679.977ZM155.518 674.227L154.314 674.568C154.238 674.367 154.126 674.172 153.979 673.983C153.835 673.79 153.638 673.631 153.388 673.506C153.138 673.381 152.818 673.318 152.428 673.318C151.893 673.318 151.448 673.441 151.092 673.688C150.74 673.93 150.564 674.239 150.564 674.614C150.564 674.947 150.685 675.21 150.928 675.403C151.17 675.597 151.549 675.758 152.064 675.886L153.359 676.205C154.14 676.394 154.721 676.684 155.104 677.074C155.486 677.46 155.678 677.958 155.678 678.568C155.678 679.068 155.534 679.515 155.246 679.909C154.962 680.303 154.564 680.614 154.053 680.841C153.541 681.068 152.946 681.182 152.268 681.182C151.378 681.182 150.642 680.989 150.058 680.602C149.475 680.216 149.106 679.652 148.95 678.909L150.223 678.591C150.344 679.061 150.573 679.413 150.911 679.648C151.251 679.883 151.696 680 152.246 680C152.871 680 153.367 679.867 153.734 679.602C154.106 679.333 154.291 679.011 154.291 678.636C154.291 678.333 154.185 678.08 153.973 677.875C153.761 677.667 153.435 677.511 152.996 677.409L151.541 677.068C150.742 676.879 150.155 676.585 149.78 676.188C149.409 675.786 149.223 675.284 149.223 674.682C149.223 674.189 149.361 673.754 149.638 673.375C149.918 672.996 150.299 672.699 150.78 672.483C151.265 672.267 151.814 672.159 152.428 672.159C153.291 672.159 153.969 672.348 154.462 672.727C154.958 673.106 155.31 673.606 155.518 674.227Z" fill="white"/>
<path d="M45 658C45 653.582 48.5817 650 53 650H159.683C164.102 650 167.683 653.582 167.683 658V692C167.683 696.418 164.102 700 159.683 700H53C48.5817 700 45 696.418 45 692V658Z" fill="#2D2828"/>
<path d="M235.317 658C235.317 653.582 239.072 650 243.705 650H349.611C354.244 650 358 653.582 358 658V692C358 696.418 354.244 700 349.611 700H243.705C239.072 700 235.317 696.418 235.317 692V658Z" fill="#2D2828"/>
<path d="M247.409 681V669.364H254.432V670.614H248.818V674.545H254.068V675.795H248.818V679.75H254.523V681H247.409ZM258.131 675.75V681H256.79V672.273H258.085V673.636H258.199C258.403 673.193 258.714 672.837 259.131 672.568C259.547 672.295 260.085 672.159 260.744 672.159C261.335 672.159 261.852 672.28 262.295 672.523C262.739 672.761 263.083 673.125 263.33 673.614C263.576 674.098 263.699 674.712 263.699 675.455V681H262.358V675.545C262.358 674.86 262.18 674.326 261.824 673.943C261.468 673.557 260.979 673.364 260.358 673.364C259.93 673.364 259.547 673.456 259.21 673.642C258.877 673.828 258.614 674.098 258.42 674.455C258.227 674.811 258.131 675.242 258.131 675.75ZM272.973 672.273L269.746 681H268.382L265.155 672.273H266.609L269.018 679.227H269.109L271.518 672.273H272.973ZM274.743 681V672.273H276.084V681H274.743ZM275.425 670.818C275.163 670.818 274.938 670.729 274.749 670.551C274.563 670.373 274.47 670.159 274.47 669.909C274.47 669.659 274.563 669.445 274.749 669.267C274.938 669.089 275.163 669 275.425 669C275.686 669 275.91 669.089 276.095 669.267C276.285 669.445 276.379 669.659 276.379 669.909C276.379 670.159 276.285 670.373 276.095 670.551C275.91 670.729 275.686 670.818 275.425 670.818ZM281.108 681.205C280.555 681.205 280.053 681.1 279.602 680.892C279.152 680.68 278.794 680.375 278.528 679.977C278.263 679.576 278.131 679.091 278.131 678.523C278.131 678.023 278.229 677.617 278.426 677.307C278.623 676.992 278.886 676.746 279.216 676.568C279.545 676.39 279.909 676.258 280.307 676.17C280.708 676.08 281.112 676.008 281.517 675.955C282.047 675.886 282.477 675.835 282.807 675.801C283.14 675.763 283.383 675.701 283.534 675.614C283.689 675.527 283.767 675.375 283.767 675.159V675.114C283.767 674.553 283.614 674.117 283.307 673.807C283.004 673.496 282.544 673.341 281.926 673.341C281.286 673.341 280.784 673.481 280.42 673.761C280.057 674.042 279.801 674.341 279.653 674.659L278.381 674.205C278.608 673.674 278.911 673.261 279.29 672.966C279.672 672.667 280.089 672.458 280.54 672.341C280.994 672.22 281.441 672.159 281.881 672.159C282.161 672.159 282.483 672.193 282.847 672.261C283.214 672.326 283.568 672.46 283.909 672.665C284.254 672.869 284.54 673.178 284.767 673.591C284.994 674.004 285.108 674.557 285.108 675.25V681H283.767V679.818H283.699C283.608 680.008 283.456 680.21 283.244 680.426C283.032 680.642 282.75 680.826 282.398 680.977C282.045 681.129 281.616 681.205 281.108 681.205ZM281.312 680C281.843 680 282.29 679.896 282.653 679.688C283.021 679.479 283.297 679.21 283.483 678.881C283.672 678.551 283.767 678.205 283.767 677.841V676.614C283.71 676.682 283.585 676.744 283.392 676.801C283.203 676.854 282.983 676.902 282.733 676.943C282.487 676.981 282.246 677.015 282.011 677.045C281.78 677.072 281.593 677.095 281.449 677.114C281.1 677.159 280.775 677.233 280.472 677.335C280.172 677.434 279.93 677.583 279.744 677.784C279.563 677.981 279.472 678.25 279.472 678.591C279.472 679.057 279.644 679.409 279.989 679.648C280.337 679.883 280.778 680 281.312 680ZM287.555 681V672.273H288.851V673.591H288.942C289.101 673.159 289.389 672.809 289.805 672.54C290.222 672.271 290.692 672.136 291.214 672.136C291.313 672.136 291.436 672.138 291.584 672.142C291.732 672.146 291.843 672.152 291.919 672.159V673.523C291.874 673.511 291.769 673.494 291.607 673.472C291.447 673.445 291.279 673.432 291.101 673.432C290.677 673.432 290.298 673.521 289.964 673.699C289.635 673.873 289.374 674.116 289.18 674.426C288.991 674.733 288.896 675.083 288.896 675.477V681H287.555ZM298.668 681H297.19L301.463 669.364H302.918L307.19 681H305.713L302.236 671.205H302.145L298.668 681ZM299.213 676.455H305.168V677.705H299.213V676.455ZM308.821 681V672.273H310.116V673.591H310.207C310.366 673.159 310.654 672.809 311.071 672.54C311.488 672.271 311.957 672.136 312.48 672.136C312.579 672.136 312.702 672.138 312.849 672.142C312.997 672.146 313.109 672.152 313.185 672.159V673.523C313.139 673.511 313.035 673.494 312.872 673.472C312.713 673.445 312.545 673.432 312.366 673.432C311.942 673.432 311.563 673.521 311.23 673.699C310.901 673.873 310.639 674.116 310.446 674.426C310.257 674.733 310.162 675.083 310.162 675.477V681H308.821ZM320.463 684.273V679.659H320.349C320.251 679.818 320.111 680.019 319.929 680.261C319.747 680.5 319.488 680.714 319.151 680.903C318.813 681.089 318.365 681.182 317.804 681.182C317.077 681.182 316.435 680.998 315.878 680.631C315.321 680.259 314.885 679.737 314.571 679.062C314.257 678.384 314.099 677.583 314.099 676.659C314.099 675.742 314.257 674.947 314.571 674.273C314.885 673.598 315.323 673.078 315.884 672.71C316.444 672.343 317.092 672.159 317.827 672.159C318.395 672.159 318.844 672.254 319.173 672.443C319.507 672.629 319.76 672.841 319.935 673.08C320.113 673.314 320.251 673.508 320.349 673.659H320.509V672.273H321.804V684.273H320.463ZM317.986 679.977C318.524 679.977 318.978 679.837 319.349 679.557C319.721 679.273 320.003 678.881 320.196 678.381C320.389 677.877 320.486 677.295 320.486 676.636C320.486 675.985 320.391 675.415 320.202 674.926C320.012 674.434 319.732 674.051 319.361 673.778C318.99 673.502 318.531 673.364 317.986 673.364C317.418 673.364 316.944 673.509 316.565 673.801C316.19 674.089 315.908 674.481 315.719 674.977C315.533 675.47 315.44 676.023 315.44 676.636C315.44 677.258 315.535 677.822 315.724 678.33C315.918 678.833 316.202 679.235 316.577 679.534C316.955 679.83 317.425 679.977 317.986 679.977ZM329.759 677.432V672.273H331.099V681H329.759V679.523H329.668C329.463 679.966 329.145 680.343 328.713 680.653C328.281 680.96 327.736 681.114 327.077 681.114C326.531 681.114 326.046 680.994 325.622 680.756C325.198 680.513 324.865 680.15 324.622 679.665C324.38 679.176 324.259 678.561 324.259 677.818V672.273H325.599V677.727C325.599 678.364 325.777 678.871 326.134 679.25C326.493 679.629 326.952 679.818 327.509 679.818C327.842 679.818 328.181 679.733 328.526 679.562C328.874 679.392 329.166 679.131 329.401 678.778C329.639 678.426 329.759 677.977 329.759 677.432ZM333.555 681V672.273H334.896V681H333.555ZM334.237 670.818C333.976 670.818 333.75 670.729 333.561 670.551C333.375 670.373 333.283 670.159 333.283 669.909C333.283 669.659 333.375 669.445 333.561 669.267C333.75 669.089 333.976 669 334.237 669C334.499 669 334.722 669.089 334.908 669.267C335.097 669.445 335.192 669.659 335.192 669.909C335.192 670.159 335.097 670.373 334.908 670.551C334.722 670.729 334.499 670.818 334.237 670.818ZM344.489 672.273L341.261 681H339.898L336.67 672.273H338.125L340.534 679.227H340.625L343.034 672.273H344.489ZM349.491 681.182C348.704 681.182 348.012 680.994 347.418 680.619C346.827 680.244 346.365 679.72 346.031 679.045C345.702 678.371 345.537 677.583 345.537 676.682C345.537 675.773 345.702 674.979 346.031 674.301C346.365 673.623 346.827 673.097 347.418 672.722C348.012 672.347 348.704 672.159 349.491 672.159C350.279 672.159 350.969 672.347 351.56 672.722C352.154 673.097 352.616 673.623 352.946 674.301C353.279 674.979 353.446 675.773 353.446 676.682C353.446 677.583 353.279 678.371 352.946 679.045C352.616 679.72 352.154 680.244 351.56 680.619C350.969 680.994 350.279 681.182 349.491 681.182ZM349.491 679.977C350.09 679.977 350.582 679.824 350.969 679.517C351.355 679.21 351.641 678.807 351.827 678.307C352.012 677.807 352.105 677.265 352.105 676.682C352.105 676.098 352.012 675.555 351.827 675.051C351.641 674.547 351.355 674.14 350.969 673.83C350.582 673.519 350.09 673.364 349.491 673.364C348.893 673.364 348.401 673.519 348.014 673.83C347.628 674.14 347.342 674.547 347.156 675.051C346.971 675.555 346.878 676.098 346.878 676.682C346.878 677.265 346.971 677.807 347.156 678.307C347.342 678.807 347.628 679.21 348.014 679.517C348.401 679.824 348.893 679.977 349.491 679.977Z" fill="white"/>
<path d="M51.4091 669.364H53.0909L57.0455 679.023H57.1818L61.1364 669.364H62.8182V681H61.5V672.159H61.3864L57.75 681H56.4773L52.8409 672.159H52.7273V681H51.4091V669.364ZM69.1207 681.182C68.2798 681.182 67.5545 680.996 66.9446 680.625C66.3385 680.25 65.8707 679.727 65.5412 679.057C65.2154 678.383 65.0526 677.598 65.0526 676.705C65.0526 675.811 65.2154 675.023 65.5412 674.341C65.8707 673.655 66.3291 673.121 66.9162 672.739C67.5071 672.352 68.1965 672.159 68.9844 672.159C69.4389 672.159 69.8878 672.235 70.331 672.386C70.7741 672.538 71.1776 672.784 71.5412 673.125C71.9048 673.462 72.1946 673.909 72.4105 674.466C72.6264 675.023 72.7344 675.708 72.7344 676.523V677.091H66.0071V675.932H71.3707C71.3707 675.439 71.2723 675 71.0753 674.614C70.8821 674.227 70.6056 673.922 70.2457 673.699C69.8897 673.475 69.4692 673.364 68.9844 673.364C68.4503 673.364 67.9882 673.496 67.598 673.761C67.2116 674.023 66.9143 674.364 66.706 674.784C66.4976 675.205 66.3935 675.655 66.3935 676.136V676.909C66.3935 677.568 66.5071 678.127 66.7344 678.585C66.9654 679.04 67.2855 679.386 67.6946 679.625C68.1037 679.86 68.5791 679.977 69.1207 679.977C69.473 679.977 69.7912 679.928 70.0753 679.83C70.3632 679.727 70.6113 679.576 70.8196 679.375C71.0279 679.17 71.1889 678.917 71.3026 678.614L72.598 678.977C72.4616 679.417 72.2325 679.803 71.9105 680.136C71.5885 680.466 71.1908 680.723 70.7173 680.909C70.2438 681.091 69.7116 681.182 69.1207 681.182ZM80.2741 677.432V672.273H81.6151V681H80.2741V679.523H80.1832C79.9787 679.966 79.6605 680.343 79.2287 680.653C78.7969 680.96 78.2514 681.114 77.5923 681.114C77.0469 681.114 76.562 680.994 76.1378 680.756C75.7135 680.513 75.3802 680.15 75.1378 679.665C74.8954 679.176 74.7741 678.561 74.7741 677.818V672.273H76.1151V677.727C76.1151 678.364 76.2931 678.871 76.6491 679.25C77.009 679.629 77.4673 679.818 78.0241 679.818C78.3575 679.818 78.6965 679.733 79.0412 679.562C79.3897 679.392 79.6813 679.131 79.9162 678.778C80.1548 678.426 80.2741 677.977 80.2741 677.432ZM90.2528 674.227L89.0483 674.568C88.9725 674.367 88.8608 674.172 88.7131 673.983C88.5691 673.79 88.3722 673.631 88.1222 673.506C87.8722 673.381 87.5521 673.318 87.1619 673.318C86.6278 673.318 86.1828 673.441 85.8267 673.688C85.4744 673.93 85.2983 674.239 85.2983 674.614C85.2983 674.947 85.4195 675.21 85.6619 675.403C85.9044 675.597 86.2831 675.758 86.7983 675.886L88.0938 676.205C88.8741 676.394 89.4555 676.684 89.8381 677.074C90.2206 677.46 90.4119 677.958 90.4119 678.568C90.4119 679.068 90.268 679.515 89.9801 679.909C89.696 680.303 89.2983 680.614 88.7869 680.841C88.2756 681.068 87.6809 681.182 87.0028 681.182C86.1127 681.182 85.3759 680.989 84.7926 680.602C84.2093 680.216 83.84 679.652 83.6847 678.909L84.9574 678.591C85.0786 679.061 85.3078 679.413 85.6449 679.648C85.9858 679.883 86.4309 680 86.9801 680C87.6051 680 88.1013 679.867 88.4688 679.602C88.84 679.333 89.0256 679.011 89.0256 678.636C89.0256 678.333 88.9195 678.08 88.7074 677.875C88.4953 677.667 88.1695 677.511 87.7301 677.409L86.2756 677.068C85.4763 676.879 84.8892 676.585 84.5142 676.188C84.143 675.786 83.9574 675.284 83.9574 674.682C83.9574 674.189 84.0956 673.754 84.3722 673.375C84.6525 672.996 85.0331 672.699 85.5142 672.483C85.9991 672.267 86.5483 672.159 87.1619 672.159C88.0256 672.159 88.7036 672.348 89.196 672.727C89.6922 673.106 90.0445 673.606 90.2528 674.227ZM97.5895 681H96.1122L100.385 669.364H101.839L106.112 681H104.635L101.158 671.205H101.067L97.5895 681ZM98.1349 676.455H104.089V677.705H98.1349V676.455ZM107.743 681V672.273H109.038V673.591H109.129C109.288 673.159 109.576 672.809 109.993 672.54C110.41 672.271 110.879 672.136 111.402 672.136C111.5 672.136 111.624 672.138 111.771 672.142C111.919 672.146 112.031 672.152 112.107 672.159V673.523C112.061 673.511 111.957 673.494 111.794 673.472C111.635 673.445 111.466 673.432 111.288 673.432C110.864 673.432 110.485 673.521 110.152 673.699C109.822 673.873 109.561 674.116 109.368 674.426C109.179 674.733 109.084 675.083 109.084 675.477V681H107.743ZM119.385 684.273V679.659H119.271C119.173 679.818 119.033 680.019 118.851 680.261C118.669 680.5 118.41 680.714 118.072 680.903C117.735 681.089 117.286 681.182 116.726 681.182C115.999 681.182 115.357 680.998 114.8 680.631C114.243 680.259 113.807 679.737 113.493 679.062C113.179 678.384 113.021 677.583 113.021 676.659C113.021 675.742 113.179 674.947 113.493 674.273C113.807 673.598 114.245 673.078 114.805 672.71C115.366 672.343 116.014 672.159 116.749 672.159C117.317 672.159 117.766 672.254 118.095 672.443C118.429 672.629 118.682 672.841 118.857 673.08C119.035 673.314 119.173 673.508 119.271 673.659H119.43V672.273H120.726V684.273H119.385ZM116.908 679.977C117.446 679.977 117.9 679.837 118.271 679.557C118.643 679.273 118.925 678.881 119.118 678.381C119.311 677.877 119.408 677.295 119.408 676.636C119.408 675.985 119.313 675.415 119.124 674.926C118.934 674.434 118.654 674.051 118.283 673.778C117.911 673.502 117.453 673.364 116.908 673.364C116.339 673.364 115.866 673.509 115.487 673.801C115.112 674.089 114.83 674.481 114.641 674.977C114.455 675.47 114.362 676.023 114.362 676.636C114.362 677.258 114.457 677.822 114.646 678.33C114.839 678.833 115.124 679.235 115.499 679.534C115.877 679.83 116.347 679.977 116.908 679.977ZM128.68 677.432V672.273H130.021V681H128.68V679.523H128.589C128.385 679.966 128.067 680.343 127.635 680.653C127.203 680.96 126.658 681.114 125.999 681.114C125.453 681.114 124.968 680.994 124.544 680.756C124.12 680.513 123.786 680.15 123.544 679.665C123.302 679.176 123.18 678.561 123.18 677.818V672.273H124.521V677.727C124.521 678.364 124.699 678.871 125.055 679.25C125.415 679.629 125.874 679.818 126.43 679.818C126.764 679.818 127.103 679.733 127.447 679.562C127.796 679.392 128.088 679.131 128.322 678.778C128.561 678.426 128.68 677.977 128.68 677.432ZM132.477 681V672.273H133.818V681H132.477ZM133.159 670.818C132.898 670.818 132.672 670.729 132.483 670.551C132.297 670.373 132.205 670.159 132.205 669.909C132.205 669.659 132.297 669.445 132.483 669.267C132.672 669.089 132.898 669 133.159 669C133.42 669 133.644 669.089 133.83 669.267C134.019 669.445 134.114 669.659 134.114 669.909C134.114 670.159 134.019 670.373 133.83 670.551C133.644 670.729 133.42 670.818 133.159 670.818ZM143.411 672.273L140.183 681H138.82L135.592 672.273H137.047L139.456 679.227H139.547L141.956 672.273H143.411ZM148.413 681.182C147.625 681.182 146.934 680.994 146.339 680.619C145.749 680.244 145.286 679.72 144.953 679.045C144.624 678.371 144.459 677.583 144.459 676.682C144.459 675.773 144.624 674.979 144.953 674.301C145.286 673.623 145.749 673.097 146.339 672.722C146.934 672.347 147.625 672.159 148.413 672.159C149.201 672.159 149.891 672.347 150.482 672.722C151.076 673.097 151.538 673.623 151.868 674.301C152.201 674.979 152.368 675.773 152.368 676.682C152.368 677.583 152.201 678.371 151.868 679.045C151.538 679.72 151.076 680.244 150.482 680.619C149.891 680.994 149.201 681.182 148.413 681.182ZM148.413 679.977C149.012 679.977 149.504 679.824 149.891 679.517C150.277 679.21 150.563 678.807 150.749 678.307C150.934 677.807 151.027 677.265 151.027 676.682C151.027 676.098 150.934 675.555 150.749 675.051C150.563 674.547 150.277 674.14 149.891 673.83C149.504 673.519 149.012 673.364 148.413 673.364C147.815 673.364 147.322 673.519 146.936 673.83C146.55 674.14 146.264 674.547 146.078 675.051C145.893 675.555 145.8 676.098 145.8 676.682C145.8 677.265 145.893 677.807 146.078 678.307C146.264 678.807 146.55 679.21 146.936 679.517C147.322 679.824 147.815 679.977 148.413 679.977ZM160.597 674.227L159.392 674.568C159.316 674.367 159.205 674.172 159.057 673.983C158.913 673.79 158.716 673.631 158.466 673.506C158.216 673.381 157.896 673.318 157.506 673.318C156.972 673.318 156.527 673.441 156.17 673.688C155.818 673.93 155.642 674.239 155.642 674.614C155.642 674.947 155.763 675.21 156.006 675.403C156.248 675.597 156.627 675.758 157.142 675.886L158.438 676.205C159.218 676.394 159.799 676.684 160.182 677.074C160.564 677.46 160.756 677.958 160.756 678.568C160.756 679.068 160.612 679.515 160.324 679.909C160.04 680.303 159.642 680.614 159.131 680.841C158.619 681.068 158.025 681.182 157.347 681.182C156.456 681.182 155.72 680.989 155.136 680.602C154.553 680.216 154.184 679.652 154.028 678.909L155.301 678.591C155.422 679.061 155.652 679.413 155.989 679.648C156.33 679.883 156.775 680 157.324 680C157.949 680 158.445 679.867 158.812 679.602C159.184 679.333 159.369 679.011 159.369 678.636C159.369 678.333 159.263 678.08 159.051 677.875C158.839 677.667 158.513 677.511 158.074 677.409L156.619 677.068C155.82 676.879 155.233 676.585 154.858 676.188C154.487 675.786 154.301 675.284 154.301 674.682C154.301 674.189 154.439 673.754 154.716 673.375C154.996 672.996 155.377 672.699 155.858 672.483C156.343 672.267 156.892 672.159 157.506 672.159C158.369 672.159 159.047 672.348 159.54 672.727C160.036 673.106 160.388 673.606 160.597 674.227Z" fill="white"/>
</svg>
